<svg width="568" height="36" viewBox="0 0 568 36" fill="none" xmlns="http://www.w3.org/2000/svg">
<path d="M6.096 2.648V34.088H1.056V35H19.2V34.088H15.456V0.871999H11.568L0.72 2.36L0.816 3.32L6.096 2.648ZM35.9906 34.472C30.7106 34.472 26.0546 28.856 23.6546 24.056H22.8386L23.3186 35.48H23.9906C24.3746 34.568 24.6626 34.04 25.4306 34.04C26.7746 34.04 30.8066 35.48 35.4626 35.48C42.5186 35.48 47.2226 30.92 47.2226 24.008C47.2226 16.04 41.3186 14.216 35.9906 12.776C31.1426 11.48 27.8786 10.28 27.8786 6.728C27.8786 3.896 30.2786 1.88 33.7346 1.88C38.6786 1.88 41.9426 6.68 44.3906 11.096H45.1586L44.8226 1.4H44.2946C43.9586 2.024 43.7186 2.36 42.9026 2.36C41.2706 2.36 38.7746 0.871999 34.3586 0.871999C26.9666 0.871999 22.9826 5.912 22.9826 11.288C22.9826 18.536 27.3986 20.84 33.2066 22.472C39.1106 24.152 42.0866 25.448 42.0866 29.432C42.0866 32.936 38.8706 34.472 35.9906 34.472ZM77.5436 1.4H49.2236L48.7436 13.448H49.6556C52.1036 6.008 53.7356 2.408 58.1036 2.408H58.7276V33.992H54.6476V35H72.1676V33.992H68.0876V2.408H68.6636C73.0316 2.408 74.5196 5.624 77.1116 13.448H78.0236L77.5436 1.4ZM89.1263 1.4V2.312H92.2463V34.088H89.1263V35H107.606V34.088H101.606V21.224H101.99C111.302 21.224 117.59 19.112 117.59 10.952C117.59 3.416 112.262 1.4 103.238 1.4H89.1263ZM101.606 2.312H102.902C106.55 2.312 107.702 4.232 107.702 9.656V11.96C107.702 17.528 106.646 20.312 102.614 20.312H101.606V2.312ZM142.407 20.168C142.407 29.816 141.735 34.472 136.359 34.472C130.743 34.472 130.167 29.288 130.167 20.264V16.808C130.167 6.968 130.551 1.88 136.359 1.88C142.119 1.88 142.407 6.776 142.407 16.616V20.168ZM120.327 18.728C120.327 29.288 125.463 35.48 136.167 35.48C147.255 35.48 152.295 28.808 152.295 18.104C152.295 7.208 147.063 0.871999 136.743 0.871999C126.039 0.871999 120.327 7.688 120.327 18.728ZM169.397 34.472C164.117 34.472 159.461 28.856 157.061 24.056H156.245L156.725 35.48H157.397C157.781 34.568 158.069 34.04 158.837 34.04C160.181 34.04 164.213 35.48 168.869 35.48C175.925 35.48 180.629 30.92 180.629 24.008C180.629 16.04 174.725 14.216 169.397 12.776C164.549 11.48 161.285 10.28 161.285 6.728C161.285 3.896 163.685 1.88 167.141 1.88C172.085 1.88 175.349 6.68 177.797 11.096H178.565L178.229 1.4H177.701C177.365 2.024 177.125 2.36 176.309 2.36C174.677 2.36 172.181 0.871999 167.765 0.871999C160.373 0.871999 156.389 5.912 156.389 11.288C156.389 18.536 160.805 20.84 166.613 22.472C172.517 24.152 175.493 25.448 175.493 29.432C175.493 32.936 172.277 34.472 169.397 34.472ZM210.95 1.4H182.63L182.15 13.448H183.062C185.51 6.008 187.142 2.408 191.51 2.408H192.134V33.992H188.054V35H205.574V33.992H201.494V2.408H202.07C206.438 2.408 207.926 5.624 210.518 13.448H211.43L210.95 1.4ZM214.196 1.4V2.456H217.028V33.944H214.196V35H240.548L240.932 24.536H239.972C238.531 29.768 234.308 33.944 228.212 33.944H226.388V18.536H227.54C230.9 18.536 232.724 20.408 233.876 25.208H234.692V11H233.972C233.156 14.648 231.14 17.288 228.02 17.288H226.388V2.456H228.068C233.876 2.456 236.132 4.616 238.772 10.904H239.635L239.156 1.4H214.196ZM258.885 18.008C261.477 18.008 262.149 19.784 262.149 23.192V26.696C262.149 33.464 263.925 35.48 269.973 35.48C274.437 35.48 275.781 34.088 276.501 28.616L275.685 28.52C275.061 32.264 274.341 32.648 273.477 32.648C272.133 32.648 271.989 31.544 271.989 28.424V25.88C271.989 20.312 270.213 18.296 265.029 17.624V17.48C270.117 17.048 273.189 15.32 273.189 9.464C273.189 2.456 268.389 1.4 258.357 1.4H243.861V2.312H246.981V34.088H243.861V35H259.461V34.088H256.341V18.008H258.885ZM256.341 2.312H257.925C261.285 2.312 263.253 3.176 263.253 8.552V9.944C263.253 15.128 261.429 17.096 257.877 17.096H256.341V2.312ZM287.133 1.4V2.456H289.965V33.944H287.133V35H313.485L313.869 24.536H312.909C311.469 29.768 307.245 33.944 301.149 33.944H299.325V18.536H300.477C303.837 18.536 305.661 20.408 306.813 25.208H307.629V11H306.909C306.093 14.648 304.077 17.288 300.957 17.288H299.325V2.456H301.005C306.813 2.456 309.069 4.616 311.709 10.904H312.573L312.093 1.4H287.133ZM348.741 35V34.088H345.957L335.061 15.32L343.173 2.36H346.341V1.4H336.501V2.36H341.493L334.245 13.976L327.765 2.36H331.029V1.4H314.853V2.36H317.445L327.477 19.976L319.077 34.088H315.861V35H325.797V34.088H320.709L328.341 21.416L335.493 34.088H332.325V35H348.741ZM350.274 1.4V2.312H353.106V34.088H350.274V35H365.25V34.088H362.466V18.44H372.018V34.088H369.186V35H384.21V34.088H381.378V2.312H384.21V1.4H369.186V2.312H372.018V17.192H362.466V2.312H365.25V1.4H350.274ZM386.419 1.4V2.312H389.059V34.088H386.419V35H401.059V34.088H398.419V2.312H401.059V1.4H386.419ZM403.289 1.4V2.312H406.409V34.088H403.289V35H417.401C426.425 35 432.665 33.032 432.665 25.592C432.665 20.552 429.113 18.008 423.065 17.24V17.144C428.105 16.328 430.985 13.88 430.985 9.272C430.985 3.32 426.089 1.4 417.641 1.4H403.289ZM415.769 18.008H416.873C421.529 18.008 422.777 20.408 422.777 24.344V26.888C422.777 31.304 421.721 34.088 418.025 34.088H415.769V18.008ZM415.769 2.312H417.305C420.665 2.312 421.481 4.088 421.481 8.696V10.952C421.481 14.888 420.473 17.096 417.017 17.096H415.769V2.312ZM435.122 1.4V2.312H437.762V34.088H435.122V35H449.762V34.088H447.122V2.312H449.762V1.4H435.122ZM481.512 1.4H453.192L452.712 13.448H453.624C456.072 6.008 457.704 2.408 462.072 2.408H462.696V33.992H458.616V35H476.136V33.992H472.056V2.408H472.632C477 2.408 478.488 5.624 481.08 13.448H481.992L481.512 1.4ZM484.95 1.4V2.312H487.59V34.088H484.95V35H499.59V34.088H496.95V2.312H499.59V1.4H484.95ZM524.861 20.168C524.861 29.816 524.189 34.472 518.813 34.472C513.197 34.472 512.621 29.288 512.621 20.264V16.808C512.621 6.968 513.005 1.88 518.813 1.88C524.573 1.88 524.861 6.776 524.861 16.616V20.168ZM502.781 18.728C502.781 29.288 507.917 35.48 518.621 35.48C529.709 35.48 534.749 28.808 534.749 18.104C534.749 7.208 529.517 0.871999 519.197 0.871999C508.493 0.871999 502.781 7.688 502.781 18.728ZM565.039 2.312H567.679V1.4H561.103V2.312H563.743V25.496L551.167 1.4H537.919V2.312H540.559V34.088H537.919V35H544.495V34.088H541.855V3.944L558.319 35H565.039V2.312Z" fill="black"/>
</svg>
