<svg width="1440" height="1021" viewBox="0 0 1440 1021" fill="none" xmlns="http://www.w3.org/2000/svg">
<g clip-path="url(#clip0)">
<rect width="1440" height="1021" fill="white"/>
<path d="M609.074 530.91L612.615 529.852V499.557L609.197 498.746L609.025 498.402L609.369 496.311H634.844L634.008 503.787C633.402 503.902 632.721 503.861 631.967 503.664L630.541 499.189H617.262V512.811H627.27L628.5 509.32C628.959 509.205 629.59 509.205 630.393 509.32V519.205C629.689 519.32 629.057 519.32 628.5 519.205L627.27 515.738H617.262V530.123H631.598L633.689 524.148C634.246 523.984 634.885 523.984 635.607 524.148L635.828 533H608.975L608.852 532.779L609.074 530.91ZM644.459 511.066L641.631 510.352L641.434 510.057L641.754 508.09H652.107L652.279 508.336L652.033 510.131L649.328 511.066L655.697 528.303L662.164 510.992L658.77 510.352L658.648 510.057L658.943 508.09H668.213L668.385 508.336L668.016 510.352L665.164 511.066L656.213 532.557C655.951 533.082 655.123 533.418 653.73 533.566L644.459 511.066ZM691.033 527.418C691.885 527.762 692.352 528.369 692.434 529.238C689.926 531.615 687.402 533.098 684.861 533.689C684.303 533.82 683.738 533.885 683.164 533.885C679.721 533.885 676.926 532.672 674.779 530.246C672.648 527.869 671.582 524.902 671.582 521.344C671.582 517.475 672.852 514.148 675.393 511.361C676.557 510.082 677.902 509.074 679.426 508.336C680.951 507.598 682.492 507.23 684.049 507.23C685.623 507.23 686.951 507.508 688.033 508.066C689.131 508.607 690.041 509.344 690.762 510.279C692.205 512.115 692.926 514.459 692.926 517.311C692.926 518.115 692.852 518.811 692.705 519.402C692.525 519.811 689.156 520.016 682.598 520.016C680.418 520.016 678.115 519.984 675.689 519.918C675.721 523.049 676.73 525.574 678.713 527.492C680.484 529.197 682.484 530.049 684.713 530.049C686.943 530.049 689.049 529.172 691.033 527.418ZM677.73 517.656C682.648 517.656 686.238 517.5 688.5 517.189C688.5 515.434 687.975 513.82 686.926 512.344C685.779 510.754 684.41 509.959 682.82 509.959C681.082 509.959 679.582 510.607 678.32 511.902C676.959 513.262 676.123 515.18 675.811 517.656H677.73ZM713.016 510.943C710.738 510.943 708.213 511.574 705.443 512.836V529.852L709.377 530.689L709.475 531.033L709.205 533H698.189L698.016 532.779L698.262 530.91L701.508 529.852V513.426L698.09 511.926L697.844 511.631L698.09 510.303L704.557 507.697L704.975 507.918V510.943C708.746 508.467 711.828 507.23 714.221 507.23C716.68 507.23 718.598 507.984 719.975 509.492C721.336 510.967 722.016 513.016 722.016 515.639V529.852L726.27 530.689L726.393 531.033L726.098 533H714.393L714.295 532.779L714.516 530.91L718.057 529.852V516.795C718.057 512.893 716.377 510.943 713.016 510.943ZM740.729 530.123C742.533 530.123 744.41 529.738 746.361 528.967C746.951 529.328 747.279 529.902 747.344 530.689C744.459 532.82 742.066 533.885 740.164 533.885C737.934 533.885 736.238 533.148 735.074 531.672C734.057 530.377 733.549 528.623 733.549 526.41V510.943H730.328C730.197 510.664 730.131 510.385 730.131 510.107C730.131 509.762 730.254 509.434 730.5 509.123L734.09 507.869L735.885 501.23H737.557V508.287C739.377 508.287 742.229 508.205 746.115 508.041C746.115 508.123 746.123 508.205 746.139 508.287L746.164 508.902C746.164 509.803 745.967 510.484 745.574 510.943H737.557V526.213C737.557 527.311 737.77 528.131 738.197 528.672C738.934 529.639 739.779 530.123 740.729 530.123ZM769.648 530.516C775.648 526.484 779.73 523.254 781.893 520.828C783.762 518.713 784.697 516.713 784.697 514.828C784.697 513.369 784.221 512.164 783.27 511.213C782.238 510.18 781.008 509.664 779.582 509.664C776.467 509.664 773.738 510.631 771.393 512.566C770.311 511.877 769.77 511.123 769.77 510.303C772.426 508.156 775.352 506.803 778.549 506.246C779.287 506.131 780.156 506.074 781.156 506.074C782.156 506.074 783.197 506.246 784.279 506.59C785.377 506.934 786.336 507.426 787.156 508.066C788.91 509.475 789.787 511.361 789.787 513.721C789.787 516.311 788.672 518.77 786.443 521.098C784.967 522.639 783.115 524.23 780.885 525.869L774.738 530.344C783.787 530.344 788.418 529.959 788.631 529.189L789.615 525.205C790.221 525.025 790.893 524.975 791.631 525.057L792.443 533H770.508C769.803 532.426 769.516 531.598 769.648 530.516ZM799.992 532.902C799.549 532.492 799.238 532.115 799.057 531.77C798.877 531.426 798.787 531.074 798.787 530.713C798.787 530.352 798.861 529.992 799.008 529.631C799.156 529.27 799.361 528.951 799.623 528.672C800.213 528.016 800.787 527.689 801.344 527.689C801.902 527.689 802.369 527.762 802.746 527.91C803.123 528.057 803.467 528.262 803.779 528.525C804.467 529.098 804.811 529.656 804.811 530.197C804.811 530.721 804.73 531.164 804.566 531.525C804.402 531.885 804.172 532.213 803.877 532.508C803.238 533.18 802.516 533.516 801.713 533.516C801.025 533.516 800.451 533.311 799.992 532.902ZM812.582 532.902C812.139 532.492 811.828 532.115 811.648 531.77C811.467 531.426 811.377 531.074 811.377 530.713C811.377 530.352 811.451 529.992 811.598 529.631C811.746 529.27 811.951 528.951 812.213 528.672C812.803 528.016 813.377 527.689 813.934 527.689C814.492 527.689 814.959 527.762 815.336 527.91C815.713 528.057 816.057 528.262 816.369 528.525C817.057 529.098 817.402 529.656 817.402 530.197C817.402 530.721 817.32 531.164 817.156 531.525C816.992 531.885 816.762 532.213 816.467 532.508C815.828 533.18 815.107 533.516 814.303 533.516C813.615 533.516 813.041 533.311 812.582 532.902ZM825.172 532.902C824.73 532.492 824.418 532.115 824.238 531.77C824.057 531.426 823.967 531.074 823.967 530.713C823.967 530.352 824.041 529.992 824.189 529.631C824.336 529.27 824.541 528.951 824.803 528.672C825.393 528.016 825.967 527.689 826.525 527.689C827.082 527.689 827.549 527.762 827.926 527.91C828.303 528.057 828.648 528.262 828.959 528.525C829.648 529.098 829.992 529.656 829.992 530.197C829.992 530.721 829.91 531.164 829.746 531.525C829.582 531.885 829.352 532.213 829.057 532.508C828.418 533.18 827.697 533.516 826.893 533.516C826.205 533.516 825.631 533.311 825.172 532.902Z" fill="black"/>
<rect width="1440" height="1024" fill="white"/>
<rect width="1440" height="1024" fill="white"/>
<rect y="-3" width="1440" height="1024" fill="black"/>
<path d="M1234.54 504.234C1298.29 502.463 1352.41 486.856 1396.92 461.538C1338.05 429.707 1295.24 380.975 1268.57 324.619C1257.45 327.234 1245.47 328.84 1232.67 329.183C1035.1 327.943 1031.98 34.5777 1229.46 29.1072C1242.28 29.1848 1254.26 30.5248 1265.45 32.9159C1290.89 -24.0137 1332.64 -73.6516 1390.83 -106.721C1345.81 -131.072 1291.38 -145.528 1227.61 -145.924C799.733 -134.092 806.462 501.53 1234.54 504.234Z" fill="white"/>
<path d="M1265.51 32.9765C1415.43 64.9378 1417.81 289.511 1268.63 324.679C1295.27 381.036 1338.08 429.768 1396.97 461.598C1433.23 440.969 1463.09 413.915 1486.61 382.664L1482.2 -29.6879C1458.01 -60.4127 1427.57 -86.8346 1390.88 -106.681C1332.7 -73.591 1290.95 -23.9531 1265.51 32.9765Z" fill="white"/>
<path d="M137.096 130.648V162.088H132.056V163H150.2V162.088H146.456V128.872H142.568L131.72 130.36L131.816 131.32L137.096 130.648ZM166.991 162.472C161.711 162.472 157.055 156.856 154.655 152.056H153.839L154.319 163.48H154.991C155.375 162.568 155.663 162.04 156.431 162.04C157.775 162.04 161.807 163.48 166.463 163.48C173.519 163.48 178.223 158.92 178.223 152.008C178.223 144.04 172.319 142.216 166.991 140.776C162.143 139.48 158.879 138.28 158.879 134.728C158.879 131.896 161.279 129.88 164.735 129.88C169.679 129.88 172.943 134.68 175.391 139.096H176.159L175.823 129.4H175.295C174.959 130.024 174.719 130.36 173.903 130.36C172.271 130.36 169.775 128.872 165.359 128.872C157.967 128.872 153.983 133.912 153.983 139.288C153.983 146.536 158.399 148.84 164.207 150.472C170.111 152.152 173.087 153.448 173.087 157.432C173.087 160.936 169.871 162.472 166.991 162.472ZM208.544 129.4H180.224L179.744 141.448H180.656C183.104 134.008 184.736 130.408 189.104 130.408H189.728V161.992H185.648V163H203.168V161.992H199.088V130.408H199.664C204.032 130.408 205.52 133.624 208.112 141.448H209.024L208.544 129.4ZM220.126 129.4V130.312H223.246V162.088H220.126V163H238.606V162.088H232.606V149.224H232.99C242.302 149.224 248.59 147.112 248.59 138.952C248.59 131.416 243.262 129.4 234.238 129.4H220.126ZM232.606 130.312H233.902C237.55 130.312 238.702 132.232 238.702 137.656V139.96C238.702 145.528 237.646 148.312 233.614 148.312H232.606V130.312ZM273.407 148.168C273.407 157.816 272.735 162.472 267.359 162.472C261.743 162.472 261.167 157.288 261.167 148.264V144.808C261.167 134.968 261.551 129.88 267.359 129.88C273.119 129.88 273.407 134.776 273.407 144.616V148.168ZM251.327 146.728C251.327 157.288 256.463 163.48 267.167 163.48C278.255 163.48 283.295 156.808 283.295 146.104C283.295 135.208 278.063 128.872 267.743 128.872C257.039 128.872 251.327 135.688 251.327 146.728ZM300.397 162.472C295.117 162.472 290.461 156.856 288.061 152.056H287.245L287.725 163.48H288.397C288.781 162.568 289.069 162.04 289.837 162.04C291.181 162.04 295.213 163.48 299.869 163.48C306.925 163.48 311.629 158.92 311.629 152.008C311.629 144.04 305.725 142.216 300.397 140.776C295.549 139.48 292.285 138.28 292.285 134.728C292.285 131.896 294.685 129.88 298.141 129.88C303.085 129.88 306.349 134.68 308.797 139.096H309.565L309.229 129.4H308.701C308.365 130.024 308.125 130.36 307.309 130.36C305.677 130.36 303.181 128.872 298.765 128.872C291.373 128.872 287.389 133.912 287.389 139.288C287.389 146.536 291.805 148.84 297.613 150.472C303.517 152.152 306.493 153.448 306.493 157.432C306.493 160.936 303.277 162.472 300.397 162.472ZM341.95 129.4H313.63L313.15 141.448H314.062C316.51 134.008 318.142 130.408 322.51 130.408H323.134V161.992H319.054V163H336.574V161.992H332.494V130.408H333.07C337.438 130.408 338.926 133.624 341.518 141.448H342.43L341.95 129.4ZM345.196 129.4V130.456H348.028V161.944H345.196V163H371.548L371.932 152.536H370.972C369.531 157.768 365.308 161.944 359.212 161.944H357.388V146.536H358.54C361.9 146.536 363.724 148.408 364.876 153.208H365.692V139H364.972C364.156 142.648 362.14 145.288 359.02 145.288H357.388V130.456H359.068C364.876 130.456 367.132 132.616 369.772 138.904H370.635L370.156 129.4H345.196ZM389.885 146.008C392.477 146.008 393.149 147.784 393.149 151.192V154.696C393.149 161.464 394.925 163.48 400.973 163.48C405.437 163.48 406.781 162.088 407.501 156.616L406.685 156.52C406.061 160.264 405.341 160.648 404.477 160.648C403.133 160.648 402.989 159.544 402.989 156.424V153.88C402.989 148.312 401.213 146.296 396.029 145.624V145.48C401.117 145.048 404.189 143.32 404.189 137.464C404.189 130.456 399.389 129.4 389.357 129.4H374.861V130.312H377.981V162.088H374.861V163H390.461V162.088H387.341V146.008H389.885ZM387.341 130.312H388.925C392.285 130.312 394.253 131.176 394.253 136.552V137.944C394.253 143.128 392.429 145.096 388.877 145.096H387.341V130.312ZM418.133 129.4V130.456H420.965V161.944H418.133V163H444.485L444.869 152.536H443.909C442.469 157.768 438.245 161.944 432.149 161.944H430.325V146.536H431.477C434.837 146.536 436.661 148.408 437.813 153.208H438.629V139H437.909C437.093 142.648 435.077 145.288 431.957 145.288H430.325V130.456H432.005C437.813 130.456 440.069 132.616 442.709 138.904H443.573L443.093 129.4H418.133ZM479.741 163V162.088H476.957L466.061 143.32L474.173 130.36H477.341V129.4H467.501V130.36H472.493L465.245 141.976L458.765 130.36H462.029V129.4H445.853V130.36H448.445L458.477 147.976L450.077 162.088H446.861V163H456.797V162.088H451.709L459.341 149.416L466.493 162.088H463.325V163H479.741ZM481.274 129.4V130.312H484.106V162.088H481.274V163H496.25V162.088H493.466V146.44H503.018V162.088H500.186V163H515.21V162.088H512.378V130.312H515.21V129.4H500.186V130.312H503.018V145.192H493.466V130.312H496.25V129.4H481.274ZM517.419 129.4V130.312H520.059V162.088H517.419V163H532.059V162.088H529.419V130.312H532.059V129.4H517.419ZM534.289 129.4V130.312H537.409V162.088H534.289V163H548.401C557.425 163 563.665 161.032 563.665 153.592C563.665 148.552 560.113 146.008 554.065 145.24V145.144C559.105 144.328 561.985 141.88 561.985 137.272C561.985 131.32 557.089 129.4 548.641 129.4H534.289ZM546.769 146.008H547.873C552.529 146.008 553.777 148.408 553.777 152.344V154.888C553.777 159.304 552.721 162.088 549.025 162.088H546.769V146.008ZM546.769 130.312H548.305C551.665 130.312 552.481 132.088 552.481 136.696V138.952C552.481 142.888 551.473 145.096 548.017 145.096H546.769V130.312ZM566.122 129.4V130.312H568.762V162.088H566.122V163H580.762V162.088H578.122V130.312H580.762V129.4H566.122ZM612.512 129.4H584.192L583.712 141.448H584.624C587.072 134.008 588.704 130.408 593.072 130.408H593.696V161.992H589.616V163H607.136V161.992H603.056V130.408H603.632C608 130.408 609.488 133.624 612.08 141.448H612.992L612.512 129.4ZM615.95 129.4V130.312H618.59V162.088H615.95V163H630.59V162.088H627.95V130.312H630.59V129.4H615.95ZM655.861 148.168C655.861 157.816 655.189 162.472 649.813 162.472C644.197 162.472 643.621 157.288 643.621 148.264V144.808C643.621 134.968 644.005 129.88 649.813 129.88C655.573 129.88 655.861 134.776 655.861 144.616V148.168ZM633.781 146.728C633.781 157.288 638.917 163.48 649.621 163.48C660.709 163.48 665.749 156.808 665.749 146.104C665.749 135.208 660.517 128.872 650.197 128.872C639.493 128.872 633.781 135.688 633.781 146.728ZM696.039 130.312H698.679V129.4H692.103V130.312H694.743V153.496L682.167 129.4H668.919V130.312H671.559V162.088H668.919V163H675.495V162.088H672.855V131.944L689.319 163H696.039V130.312Z" fill="white"/>
</g>
<defs>
<clipPath id="clip0">
<rect width="1440" height="1021" fill="white"/>
</clipPath>
</defs>
</svg>
