<svg width="1440" height="1021" viewBox="0 0 1440 1021" fill="none" xmlns="http://www.w3.org/2000/svg">
<g clip-path="url(#clip0)">
<rect width="1440" height="1021" fill="white"/>
<path d="M609.074 530.91L612.615 529.852V499.557L609.197 498.746L609.025 498.402L609.369 496.311H634.844L634.008 503.787C633.402 503.902 632.721 503.861 631.967 503.664L630.541 499.189H617.262V512.811H627.27L628.5 509.32C628.959 509.205 629.59 509.205 630.393 509.32V519.205C629.689 519.32 629.057 519.32 628.5 519.205L627.27 515.738H617.262V530.123H631.598L633.689 524.148C634.246 523.984 634.885 523.984 635.607 524.148L635.828 533H608.975L608.852 532.779L609.074 530.91ZM644.459 511.066L641.631 510.352L641.434 510.057L641.754 508.09H652.107L652.279 508.336L652.033 510.131L649.328 511.066L655.697 528.303L662.164 510.992L658.77 510.352L658.648 510.057L658.943 508.09H668.213L668.385 508.336L668.016 510.352L665.164 511.066L656.213 532.557C655.951 533.082 655.123 533.418 653.73 533.566L644.459 511.066ZM691.033 527.418C691.885 527.762 692.352 528.369 692.434 529.238C689.926 531.615 687.402 533.098 684.861 533.689C684.303 533.82 683.738 533.885 683.164 533.885C679.721 533.885 676.926 532.672 674.779 530.246C672.648 527.869 671.582 524.902 671.582 521.344C671.582 517.475 672.852 514.148 675.393 511.361C676.557 510.082 677.902 509.074 679.426 508.336C680.951 507.598 682.492 507.23 684.049 507.23C685.623 507.23 686.951 507.508 688.033 508.066C689.131 508.607 690.041 509.344 690.762 510.279C692.205 512.115 692.926 514.459 692.926 517.311C692.926 518.115 692.852 518.811 692.705 519.402C692.525 519.811 689.156 520.016 682.598 520.016C680.418 520.016 678.115 519.984 675.689 519.918C675.721 523.049 676.73 525.574 678.713 527.492C680.484 529.197 682.484 530.049 684.713 530.049C686.943 530.049 689.049 529.172 691.033 527.418ZM677.73 517.656C682.648 517.656 686.238 517.5 688.5 517.189C688.5 515.434 687.975 513.82 686.926 512.344C685.779 510.754 684.41 509.959 682.82 509.959C681.082 509.959 679.582 510.607 678.32 511.902C676.959 513.262 676.123 515.18 675.811 517.656H677.73ZM713.016 510.943C710.738 510.943 708.213 511.574 705.443 512.836V529.852L709.377 530.689L709.475 531.033L709.205 533H698.189L698.016 532.779L698.262 530.91L701.508 529.852V513.426L698.09 511.926L697.844 511.631L698.09 510.303L704.557 507.697L704.975 507.918V510.943C708.746 508.467 711.828 507.23 714.221 507.23C716.68 507.23 718.598 507.984 719.975 509.492C721.336 510.967 722.016 513.016 722.016 515.639V529.852L726.27 530.689L726.393 531.033L726.098 533H714.393L714.295 532.779L714.516 530.91L718.057 529.852V516.795C718.057 512.893 716.377 510.943 713.016 510.943ZM740.729 530.123C742.533 530.123 744.41 529.738 746.361 528.967C746.951 529.328 747.279 529.902 747.344 530.689C744.459 532.82 742.066 533.885 740.164 533.885C737.934 533.885 736.238 533.148 735.074 531.672C734.057 530.377 733.549 528.623 733.549 526.41V510.943H730.328C730.197 510.664 730.131 510.385 730.131 510.107C730.131 509.762 730.254 509.434 730.5 509.123L734.09 507.869L735.885 501.23H737.557V508.287C739.377 508.287 742.229 508.205 746.115 508.041C746.115 508.123 746.123 508.205 746.139 508.287L746.164 508.902C746.164 509.803 745.967 510.484 745.574 510.943H737.557V526.213C737.557 527.311 737.77 528.131 738.197 528.672C738.934 529.639 739.779 530.123 740.729 530.123ZM769.648 530.516C775.648 526.484 779.73 523.254 781.893 520.828C783.762 518.713 784.697 516.713 784.697 514.828C784.697 513.369 784.221 512.164 783.27 511.213C782.238 510.18 781.008 509.664 779.582 509.664C776.467 509.664 773.738 510.631 771.393 512.566C770.311 511.877 769.77 511.123 769.77 510.303C772.426 508.156 775.352 506.803 778.549 506.246C779.287 506.131 780.156 506.074 781.156 506.074C782.156 506.074 783.197 506.246 784.279 506.59C785.377 506.934 786.336 507.426 787.156 508.066C788.91 509.475 789.787 511.361 789.787 513.721C789.787 516.311 788.672 518.77 786.443 521.098C784.967 522.639 783.115 524.23 780.885 525.869L774.738 530.344C783.787 530.344 788.418 529.959 788.631 529.189L789.615 525.205C790.221 525.025 790.893 524.975 791.631 525.057L792.443 533H770.508C769.803 532.426 769.516 531.598 769.648 530.516ZM799.992 532.902C799.549 532.492 799.238 532.115 799.057 531.77C798.877 531.426 798.787 531.074 798.787 530.713C798.787 530.352 798.861 529.992 799.008 529.631C799.156 529.27 799.361 528.951 799.623 528.672C800.213 528.016 800.787 527.689 801.344 527.689C801.902 527.689 802.369 527.762 802.746 527.91C803.123 528.057 803.467 528.262 803.779 528.525C804.467 529.098 804.811 529.656 804.811 530.197C804.811 530.721 804.73 531.164 804.566 531.525C804.402 531.885 804.172 532.213 803.877 532.508C803.238 533.18 802.516 533.516 801.713 533.516C801.025 533.516 800.451 533.311 799.992 532.902ZM812.582 532.902C812.139 532.492 811.828 532.115 811.648 531.77C811.467 531.426 811.377 531.074 811.377 530.713C811.377 530.352 811.451 529.992 811.598 529.631C811.746 529.27 811.951 528.951 812.213 528.672C812.803 528.016 813.377 527.689 813.934 527.689C814.492 527.689 814.959 527.762 815.336 527.91C815.713 528.057 816.057 528.262 816.369 528.525C817.057 529.098 817.402 529.656 817.402 530.197C817.402 530.721 817.32 531.164 817.156 531.525C816.992 531.885 816.762 532.213 816.467 532.508C815.828 533.18 815.107 533.516 814.303 533.516C813.615 533.516 813.041 533.311 812.582 532.902ZM825.172 532.902C824.73 532.492 824.418 532.115 824.238 531.77C824.057 531.426 823.967 531.074 823.967 530.713C823.967 530.352 824.041 529.992 824.189 529.631C824.336 529.27 824.541 528.951 824.803 528.672C825.393 528.016 825.967 527.689 826.525 527.689C827.082 527.689 827.549 527.762 827.926 527.91C828.303 528.057 828.648 528.262 828.959 528.525C829.648 529.098 829.992 529.656 829.992 530.197C829.992 530.721 829.91 531.164 829.746 531.525C829.582 531.885 829.352 532.213 829.057 532.508C828.418 533.18 827.697 533.516 826.893 533.516C826.205 533.516 825.631 533.311 825.172 532.902Z" fill="black"/>
<rect width="1440" height="1024" fill="white"/>
<rect width="1440" height="1024" fill="white"/>
<rect y="-3" width="1440" height="1024" fill="black"/>
<path d="M743.394 559.854C752.647 557.762 762.561 556.551 773.172 556.367C936.79 559.12 936.827 802.502 773.172 805.292C762.561 805.108 752.61 803.897 743.394 801.805C777.982 726.477 777.982 635.218 743.394 559.854Z" fill="#B7AEAC"/>
<path d="M743.393 559.855C777.982 635.219 777.982 726.478 743.393 801.842C619.468 773.98 619.468 587.681 743.393 559.855Z" fill="#B7AEAC"/>
<path d="M974.03 297.54V300.66H982.58C982.01 304.32 978.56 307.35 972.44 308.88L973.94 311.97C982.16 309.87 986.81 304.89 986.81 297.54H974.03ZM980.87 315.63H991.34V320.16H980.87V315.63ZM976.97 323.25H995.24V312.51H976.97V323.25ZM991.25 295.98V311.34H995.24V295.98H991.25ZM1008.71 298.35H1004.9V303C1004.9 307.71 1003.43 312.66 999.378 315.12L1001.75 318.09C1004.24 316.59 1005.86 313.95 1006.82 310.89C1007.69 313.68 1009.16 316.02 1011.5 317.46L1013.66 314.4C1009.91 311.91 1008.71 307.32 1008.71 302.85V298.35ZM1014.23 305.28H1010.75V308.49H1014.23V322.35H1017.92V296.4H1014.23V305.28ZM1019.84 295.95V323.58H1023.59V295.95H1019.84ZM1031.6 304.74C1031.6 302.46 1033.1 301.05 1035.11 301.05C1037.15 301.05 1038.65 302.46 1038.65 304.74C1038.65 307.05 1037.15 308.46 1035.11 308.46C1033.1 308.46 1031.6 307.05 1031.6 304.74ZM1046.63 302.94V306.51H1042.19C1042.34 305.97 1042.4 305.34 1042.4 304.74C1042.4 304.11 1042.31 303.51 1042.19 302.94H1046.63ZM1046.63 309.66V316.17H1050.59V295.95H1046.63V299.79H1040.48C1039.13 298.41 1037.27 297.6 1035.11 297.6C1031.03 297.6 1027.85 300.63 1027.85 304.74C1027.85 308.88 1031.03 311.91 1035.11 311.91C1037.27 311.91 1039.19 311.07 1040.54 309.66H1046.63ZM1036.34 319.95V314.19H1032.38V323.1H1051.22V319.95H1036.34ZM1054.03 323.91H1055.26L1064.08 297.15H1062.88L1054.03 323.91ZM1070.45 300V300.57H1072.1V320.43H1070.45V321H1079.6V320.43H1077.95V310.92L1078.22 310.86L1083.17 320.43H1081.76V321H1091.39V320.43H1089.77L1082.57 306.33L1087.73 300.57H1089.53V300H1084.28V300.57H1086.65L1078.19 309.99L1077.95 310.05V300.57H1079.6V300H1070.45ZM1093.5 301.86C1093.5 303.12 1094.07 304.65 1096.5 304.65C1098.66 304.65 1099.53 303.42 1099.53 301.83C1099.53 300 1098.42 299.07 1096.56 299.07C1094.31 299.07 1093.5 300.39 1093.5 301.86ZM1091.91 306.72V307.26H1093.68V320.46H1092.03V321H1100.94V320.46H1099.26V306.72H1091.91ZM1101.55 306.72V307.26H1103.2V320.46H1101.55V321H1109.86V320.46H1108.78V312.18C1108.78 309.75 1109.86 307.86 1110.97 307.86C1111.51 307.86 1111.84 308.16 1111.84 310.71V320.46H1110.79V321H1118.5V320.46H1117.42V312C1117.42 309.48 1118.53 307.86 1119.61 307.86C1120.15 307.86 1120.48 308.16 1120.48 310.71V320.46H1119.43V321H1127.74V320.46H1126.06V311.43C1126.06 307.8 1124.26 306.42 1121.65 306.42C1118.95 306.42 1117.72 308.16 1117.24 309.66C1116.73 307.35 1115.14 306.42 1113.01 306.42C1110.25 306.42 1109.26 307.98 1108.78 309.48V306.72H1101.55ZM1143.03 320.67C1139.73 320.67 1136.82 317.16 1135.32 314.16H1134.81L1135.11 321.3H1135.53C1135.77 320.73 1135.95 320.4 1136.43 320.4C1137.27 320.4 1139.79 321.3 1142.7 321.3C1147.11 321.3 1150.05 318.45 1150.05 314.13C1150.05 309.15 1146.36 308.01 1143.03 307.11C1140 306.3 1137.96 305.55 1137.96 303.33C1137.96 301.56 1139.46 300.3 1141.62 300.3C1144.71 300.3 1146.75 303.3 1148.28 306.06H1148.76L1148.55 300H1148.22C1148.01 300.39 1147.86 300.6 1147.35 300.6C1146.33 300.6 1144.77 299.67 1142.01 299.67C1137.39 299.67 1134.9 302.82 1134.9 306.18C1134.9 310.71 1137.66 312.15 1141.29 313.17C1144.98 314.22 1146.84 315.03 1146.84 317.52C1146.84 319.71 1144.83 320.67 1143.03 320.67ZM1151.71 313.89C1151.71 318.24 1154.11 321.3 1159.45 321.3C1163.71 321.3 1165.27 319.32 1165.96 316.74L1165.42 316.65C1164.76 318.96 1163.26 320.37 1161.04 320.37C1158.13 320.37 1157.5 317.97 1157.5 314.43V313.26H1165.96C1166.14 308.79 1164.13 306.42 1159.42 306.42C1155.25 306.42 1151.71 308.7 1151.71 313.89ZM1157.53 312.66V311.19C1157.53 308.01 1158.1 306.99 1159.15 306.99C1160.38 306.99 1160.62 308.04 1160.62 311.19V312.66H1157.53ZM1166.12 307.26H1167.35L1172.48 321H1175.12L1174.46 322.86C1173.32 326.1 1172.12 327.78 1170.44 327.78C1169.57 327.78 1169.39 327.09 1169.69 326.19H1170.74C1170.86 325.77 1170.92 325.41 1170.92 325.11C1170.92 323.7 1169.96 323.04 1168.43 323.04C1166.99 323.04 1166.03 323.97 1166.03 325.47C1166.03 327.36 1167.53 328.5 1169.78 328.5C1172.15 328.5 1173.71 327.3 1175.06 323.43L1180.67 307.26H1182.17V306.72H1177.94V307.26H1179.95L1176.47 317.22L1173.2 307.26H1174.82V306.72H1166.12V307.26ZM1181.63 313.89C1181.63 318.24 1184.03 321.3 1189.37 321.3C1193.63 321.3 1195.19 319.32 1195.88 316.74L1195.34 316.65C1194.68 318.96 1193.18 320.37 1190.96 320.37C1188.05 320.37 1187.42 317.97 1187.42 314.43V313.26H1195.88C1196.06 308.79 1194.05 306.42 1189.34 306.42C1185.17 306.42 1181.63 308.7 1181.63 313.89ZM1187.45 312.66V311.19C1187.45 308.01 1188.02 306.99 1189.07 306.99C1190.3 306.99 1190.54 308.04 1190.54 311.19V312.66H1187.45ZM1206.63 315.09C1206.63 318.99 1206.54 320.76 1204.83 320.76C1203 320.76 1202.94 318.51 1202.94 315.03V312.69C1202.94 309.3 1203.03 306.96 1204.86 306.96C1206.54 306.96 1206.63 309.3 1206.63 312.54V315.09ZM1197.18 313.92C1197.18 318.6 1199.73 321.3 1204.77 321.3C1210.11 321.3 1212.39 318.57 1212.39 313.65C1212.39 308.79 1209.99 306.42 1204.95 306.42C1200.12 306.42 1197.18 309 1197.18 313.92ZM1213.29 306.72V307.26H1214.94V320.46H1213.29V321H1221.81V320.46H1220.52V312.18C1220.52 309.75 1221.69 307.86 1222.95 307.86C1223.7 307.86 1224.06 308.16 1224.06 310.71V320.46H1222.83V321H1231.32V320.46H1229.64V311.43C1229.64 307.8 1227.78 306.42 1224.99 306.42C1222.02 306.42 1221.03 307.98 1220.52 309.48V306.72H1213.29ZM983.99 343.15C981.35 343.15 977.99 345.31 977.99 350.59C977.99 352.96 979.43 355.15 982.37 355.15C984.14 355.15 984.95 354.01 985.31 353.05C985.76 354.19 986.69 355.21 989.24 355.21C992.99 355.21 995.27 352.78 995.27 347.68C995.27 341.32 990.98 337.84 985.01 337.84C977.9 337.84 973.1 342.97 973.1 349.9C973.1 357.25 978.71 360.49 984.89 360.49C987.62 360.49 990.59 359.5 992.39 357.82L991.91 357.28C990.32 358.63 987.95 359.77 984.92 359.77C979.58 359.77 973.94 357.13 973.94 349.78C973.94 342.64 979.07 338.5 984.8 338.5C990.98 338.5 994.49 342.1 994.49 347.89C994.49 352.15 992.33 354.34 990.77 354.34C989.33 354.34 989.06 353.5 989.06 352C989.06 351.1 989.21 350.08 989.42 348.82L990.38 343.36H987.11L986.6 344.26C985.91 343.6 985.25 343.15 983.99 343.15ZM985.43 351.1C985.13 353.08 984.17 354.52 983 354.52C981.98 354.52 981.47 353.8 981.47 352C981.47 349.75 981.95 343.78 984.47 343.78C985.31 343.78 985.85 344.05 986.45 344.68L985.43 351.1ZM1007.02 341.26H1008.13L1008.88 344.44L1006.72 351.46L1003.96 341.26H1005.76V340.72H996.669V341.26H998.019L1002.46 355H1006.48L1009.3 345.79L1011.91 355H1016.02L1019.62 341.26H1020.88V340.72H1016.83V341.26H1018.9L1016.23 351.37L1013.53 341.26H1014.76V340.72H1007.02V341.26ZM1021.19 332.5V333.04H1022.84V354.46H1021.19V355H1029.71V354.46H1028.42V346.18C1028.42 343.75 1029.59 341.86 1030.85 341.86C1031.6 341.86 1031.96 342.16 1031.96 344.71V354.46H1030.73V355H1039.22V354.46H1037.54V345.43C1037.54 341.8 1035.68 340.42 1032.89 340.42C1029.92 340.42 1028.93 341.98 1028.42 343.48V332.5H1021.19ZM1039.83 347.89C1039.83 352.24 1042.23 355.3 1047.57 355.3C1051.83 355.3 1053.39 353.32 1054.08 350.74L1053.54 350.65C1052.88 352.96 1051.38 354.37 1049.16 354.37C1046.25 354.37 1045.62 351.97 1045.62 348.43V347.26H1054.08C1054.26 342.79 1052.25 340.42 1047.54 340.42C1043.37 340.42 1039.83 342.7 1039.83 347.89ZM1045.65 346.66V345.19C1045.65 342.01 1046.22 340.99 1047.27 340.99C1048.5 340.99 1048.74 342.04 1048.74 345.19V346.66H1045.65ZM1065.17 341.56C1065.8 341.56 1066.4 341.86 1065.8 343.09H1064.72C1064.09 345.22 1065.05 346.48 1067.06 346.48C1068.68 346.48 1069.58 345.34 1069.58 343.63C1069.58 341.35 1068.17 340.42 1066.4 340.42C1064.6 340.42 1062.92 341.47 1062.38 343.6V340.72H1055.15V341.26H1056.8V354.46H1055.15V355H1064.51V354.46H1062.38V346.42C1062.38 343.72 1063.73 341.56 1065.17 341.56ZM1070 347.89C1070 352.24 1072.4 355.3 1077.74 355.3C1082 355.3 1083.56 353.32 1084.25 350.74L1083.71 350.65C1083.05 352.96 1081.55 354.37 1079.33 354.37C1076.42 354.37 1075.79 351.97 1075.79 348.43V347.26H1084.25C1084.43 342.79 1082.42 340.42 1077.71 340.42C1073.54 340.42 1070 342.7 1070 347.89ZM1075.82 346.66V345.19C1075.82 342.01 1076.39 340.99 1077.44 340.99C1078.67 340.99 1078.91 342.04 1078.91 345.19V346.66H1075.82ZM1092.52 347.95C1088.23 347.95 1085.62 348.64 1085.62 351.67C1085.62 354.67 1087.96 355.3 1090.06 355.3C1092.16 355.3 1093.03 354.52 1093.51 353.08C1093.87 354.55 1095.22 355.3 1097.65 355.3C1100.23 355.3 1101.34 354.28 1101.49 350.68L1101.04 350.65C1100.89 353.17 1100.38 353.74 1099.84 353.74C1099.33 353.74 1098.97 353.41 1098.97 352.18V346.09C1098.97 341.74 1097.38 340.42 1092.67 340.42C1088.59 340.42 1086.4 341.59 1086.4 344.11C1086.4 345.58 1087.12 346.6 1088.98 346.6C1090.48 346.6 1091.62 345.67 1091.62 344.26C1091.62 343.69 1091.53 343.3 1091.38 342.91H1090.63C1090.51 342.58 1090.45 342.28 1090.45 342.04C1090.45 341.08 1091.32 340.84 1091.86 340.84C1093.06 340.84 1093.39 341.83 1093.39 345.64V347.95H1092.52ZM1092.1 354.1C1091.53 354.1 1091.32 353.8 1091.32 351.64V351.16C1091.32 349.33 1091.92 348.43 1093.18 348.43H1093.39V351.22C1093.39 353.14 1092.67 354.1 1092.1 354.1ZM1111.81 341.56C1112.44 341.56 1113.04 341.86 1112.44 343.09H1111.36C1110.73 345.22 1111.69 346.48 1113.7 346.48C1115.32 346.48 1116.22 345.34 1116.22 343.63C1116.22 341.35 1114.81 340.42 1113.04 340.42C1111.24 340.42 1109.56 341.47 1109.02 343.6V340.72H1101.79V341.26H1103.44V354.46H1101.79V355H1111.15V354.46H1109.02V346.42C1109.02 343.72 1110.37 341.56 1111.81 341.56ZM1116.65 347.89C1116.65 352.24 1119.05 355.3 1124.39 355.3C1128.65 355.3 1130.21 353.32 1130.9 350.74L1130.36 350.65C1129.7 352.96 1128.2 354.37 1125.98 354.37C1123.07 354.37 1122.44 351.97 1122.44 348.43V347.26H1130.9C1131.08 342.79 1129.07 340.42 1124.36 340.42C1120.19 340.42 1116.65 342.7 1116.65 347.89ZM1122.47 346.66V345.19C1122.47 342.01 1123.04 340.99 1124.09 340.99C1125.32 340.99 1125.56 342.04 1125.56 345.19V346.66H1122.47ZM1133.46 350.71C1133.46 354.43 1135.59 355.3 1138.56 355.3C1142.22 355.3 1143.21 353.14 1143.48 350.8L1142.97 350.74C1142.7 352.78 1141.8 354.1 1140.36 354.1C1139.31 354.1 1139.04 353.14 1139.04 351.37V341.26H1142.94V340.72H1139.04V335.47L1133.46 336.85V340.72H1131.81V341.26H1133.46V350.71ZM1143.77 332.5V333.04H1145.42V354.46H1143.77V355H1152.29V354.46H1151V346.18C1151 343.75 1152.17 341.86 1153.43 341.86C1154.18 341.86 1154.54 342.16 1154.54 344.71V354.46H1153.31V355H1161.8V354.46H1160.12V345.43C1160.12 341.8 1158.26 340.42 1155.47 340.42C1152.5 340.42 1151.51 341.98 1151 343.48V332.5H1143.77ZM1162.41 347.89C1162.41 352.24 1164.81 355.3 1170.15 355.3C1174.41 355.3 1175.97 353.32 1176.66 350.74L1176.12 350.65C1175.46 352.96 1173.96 354.37 1171.74 354.37C1168.83 354.37 1168.2 351.97 1168.2 348.43V347.26H1176.66C1176.84 342.79 1174.83 340.42 1170.12 340.42C1165.95 340.42 1162.41 342.7 1162.41 347.89ZM1168.23 346.66V345.19C1168.23 342.01 1168.8 340.99 1169.85 340.99C1171.08 340.99 1171.32 342.04 1171.32 345.19V346.66H1168.23ZM1187.3 341.71C1188.32 341.71 1188.68 342.7 1188.68 346.93V348.49C1188.68 352.66 1188.38 354.43 1186.91 354.43C1185.59 354.43 1184.96 352.96 1184.96 351.34V345.85C1184.96 343.24 1186.07 341.71 1187.3 341.71ZM1184.9 340.72H1177.79V341.26H1179.38V361.6H1177.73V362.14H1188.83V361.6H1184.96V353.83C1185.5 354.76 1186.25 355.3 1188.29 355.3C1192.37 355.3 1194.47 353.02 1194.47 347.89C1194.47 342.79 1192.4 340.42 1189.04 340.42C1186.7 340.42 1185.56 341.59 1184.9 343.09V340.72ZM1205.05 349.09C1205.05 352.99 1204.96 354.76 1203.25 354.76C1201.42 354.76 1201.36 352.51 1201.36 349.03V346.69C1201.36 343.3 1201.45 340.96 1203.28 340.96C1204.96 340.96 1205.05 343.3 1205.05 346.54V349.09ZM1195.6 347.92C1195.6 352.6 1198.15 355.3 1203.19 355.3C1208.53 355.3 1210.81 352.57 1210.81 347.65C1210.81 342.79 1208.41 340.42 1203.37 340.42C1198.54 340.42 1195.6 343 1195.6 347.92ZM1213.15 350.71C1213.15 354.43 1215.28 355.3 1218.25 355.3C1221.91 355.3 1222.9 353.14 1223.17 350.8L1222.66 350.74C1222.39 352.78 1221.49 354.1 1220.05 354.1C1219 354.1 1218.73 353.14 1218.73 351.37V341.26H1222.63V340.72H1218.73V335.47L1213.15 336.85V340.72H1211.5V341.26H1213.15V350.71ZM1233.15 349.09C1233.15 352.99 1233.06 354.76 1231.35 354.76C1229.52 354.76 1229.46 352.51 1229.46 349.03V346.69C1229.46 343.3 1229.55 340.96 1231.38 340.96C1233.06 340.96 1233.15 343.3 1233.15 346.54V349.09ZM1223.7 347.92C1223.7 352.6 1226.25 355.3 1231.29 355.3C1236.63 355.3 1238.91 352.57 1238.91 347.65C1238.91 342.79 1236.51 340.42 1231.47 340.42C1226.64 340.42 1223.7 343 1223.7 347.92ZM1240.44 355.3H1240.8C1241.28 354.46 1241.7 354.19 1242.09 354.19C1242.21 354.19 1242.48 354.31 1242.66 354.43C1243.8 355 1244.82 355.3 1246.26 355.3C1249.65 355.3 1251.87 353.59 1251.87 350.17C1251.87 346.63 1249.23 345.67 1246.86 345.04C1244.88 344.5 1243.08 344.17 1243.08 342.79C1243.08 341.86 1243.89 341.05 1245.87 341.05C1248 341.05 1249.53 342.19 1250.61 344.95H1250.97V340.36H1250.64C1250.25 341.11 1250.04 341.35 1249.59 341.35C1249.23 341.35 1249.11 341.26 1248.75 341.11C1247.94 340.75 1247.04 340.42 1245.72 340.42C1242.54 340.42 1240.44 342.43 1240.44 345.49C1240.44 348.82 1243.11 349.75 1245.51 350.41C1247.79 351.04 1249.26 351.34 1249.26 352.69C1249.26 353.83 1248.42 354.64 1246.2 354.64C1243.74 354.64 1241.91 353.59 1240.8 349.93H1240.44V355.3Z" fill="white"/>
<path d="M971 358H1252.47V359.5H971V358Z" fill="white"/>
<a href="https://www.instagram.com/wherearethepotos/">
<rect fill="black" fill-opacity="0" y="34.2" width="281.467" height="33.6"/>
</a>
</g>
<defs>
<clipPath id="clip0">
<rect width="1440" height="1021" fill="white"/>
</clipPath>
</defs>
</svg>
