<svg width="1440" height="1021" viewBox="0 0 1440 1021" fill="none" xmlns="http://www.w3.org/2000/svg">
<g clip-path="url(#clip0)">
<rect width="1440" height="1021" fill="#DB3C1D"/>
<path d="M609.074 530.91L612.615 529.852V499.557L609.197 498.746L609.025 498.402L609.369 496.311H634.844L634.008 503.787C633.402 503.902 632.721 503.861 631.967 503.664L630.541 499.189H617.262V512.811H627.27L628.5 509.32C628.959 509.205 629.59 509.205 630.393 509.32V519.205C629.689 519.32 629.057 519.32 628.5 519.205L627.27 515.738H617.262V530.123H631.598L633.689 524.148C634.246 523.984 634.885 523.984 635.607 524.148L635.828 533H608.975L608.852 532.779L609.074 530.91ZM644.459 511.066L641.631 510.352L641.434 510.057L641.754 508.09H652.107L652.279 508.336L652.033 510.131L649.328 511.066L655.697 528.303L662.164 510.992L658.77 510.352L658.648 510.057L658.943 508.09H668.213L668.385 508.336L668.016 510.352L665.164 511.066L656.213 532.557C655.951 533.082 655.123 533.418 653.73 533.566L644.459 511.066ZM691.033 527.418C691.885 527.762 692.352 528.369 692.434 529.238C689.926 531.615 687.402 533.098 684.861 533.689C684.303 533.82 683.738 533.885 683.164 533.885C679.721 533.885 676.926 532.672 674.779 530.246C672.648 527.869 671.582 524.902 671.582 521.344C671.582 517.475 672.852 514.148 675.393 511.361C676.557 510.082 677.902 509.074 679.426 508.336C680.951 507.598 682.492 507.23 684.049 507.23C685.623 507.23 686.951 507.508 688.033 508.066C689.131 508.607 690.041 509.344 690.762 510.279C692.205 512.115 692.926 514.459 692.926 517.311C692.926 518.115 692.852 518.811 692.705 519.402C692.525 519.811 689.156 520.016 682.598 520.016C680.418 520.016 678.115 519.984 675.689 519.918C675.721 523.049 676.73 525.574 678.713 527.492C680.484 529.197 682.484 530.049 684.713 530.049C686.943 530.049 689.049 529.172 691.033 527.418ZM677.73 517.656C682.648 517.656 686.238 517.5 688.5 517.189C688.5 515.434 687.975 513.82 686.926 512.344C685.779 510.754 684.41 509.959 682.82 509.959C681.082 509.959 679.582 510.607 678.32 511.902C676.959 513.262 676.123 515.18 675.811 517.656H677.73ZM713.016 510.943C710.738 510.943 708.213 511.574 705.443 512.836V529.852L709.377 530.689L709.475 531.033L709.205 533H698.189L698.016 532.779L698.262 530.91L701.508 529.852V513.426L698.09 511.926L697.844 511.631L698.09 510.303L704.557 507.697L704.975 507.918V510.943C708.746 508.467 711.828 507.23 714.221 507.23C716.68 507.23 718.598 507.984 719.975 509.492C721.336 510.967 722.016 513.016 722.016 515.639V529.852L726.27 530.689L726.393 531.033L726.098 533H714.393L714.295 532.779L714.516 530.91L718.057 529.852V516.795C718.057 512.893 716.377 510.943 713.016 510.943ZM740.729 530.123C742.533 530.123 744.41 529.738 746.361 528.967C746.951 529.328 747.279 529.902 747.344 530.689C744.459 532.82 742.066 533.885 740.164 533.885C737.934 533.885 736.238 533.148 735.074 531.672C734.057 530.377 733.549 528.623 733.549 526.41V510.943H730.328C730.197 510.664 730.131 510.385 730.131 510.107C730.131 509.762 730.254 509.434 730.5 509.123L734.09 507.869L735.885 501.23H737.557V508.287C739.377 508.287 742.229 508.205 746.115 508.041C746.115 508.123 746.123 508.205 746.139 508.287L746.164 508.902C746.164 509.803 745.967 510.484 745.574 510.943H737.557V526.213C737.557 527.311 737.77 528.131 738.197 528.672C738.934 529.639 739.779 530.123 740.729 530.123ZM769.648 530.516C775.648 526.484 779.73 523.254 781.893 520.828C783.762 518.713 784.697 516.713 784.697 514.828C784.697 513.369 784.221 512.164 783.27 511.213C782.238 510.18 781.008 509.664 779.582 509.664C776.467 509.664 773.738 510.631 771.393 512.566C770.311 511.877 769.77 511.123 769.77 510.303C772.426 508.156 775.352 506.803 778.549 506.246C779.287 506.131 780.156 506.074 781.156 506.074C782.156 506.074 783.197 506.246 784.279 506.59C785.377 506.934 786.336 507.426 787.156 508.066C788.91 509.475 789.787 511.361 789.787 513.721C789.787 516.311 788.672 518.77 786.443 521.098C784.967 522.639 783.115 524.23 780.885 525.869L774.738 530.344C783.787 530.344 788.418 529.959 788.631 529.189L789.615 525.205C790.221 525.025 790.893 524.975 791.631 525.057L792.443 533H770.508C769.803 532.426 769.516 531.598 769.648 530.516ZM799.992 532.902C799.549 532.492 799.238 532.115 799.057 531.77C798.877 531.426 798.787 531.074 798.787 530.713C798.787 530.352 798.861 529.992 799.008 529.631C799.156 529.27 799.361 528.951 799.623 528.672C800.213 528.016 800.787 527.689 801.344 527.689C801.902 527.689 802.369 527.762 802.746 527.91C803.123 528.057 803.467 528.262 803.779 528.525C804.467 529.098 804.811 529.656 804.811 530.197C804.811 530.721 804.73 531.164 804.566 531.525C804.402 531.885 804.172 532.213 803.877 532.508C803.238 533.18 802.516 533.516 801.713 533.516C801.025 533.516 800.451 533.311 799.992 532.902ZM812.582 532.902C812.139 532.492 811.828 532.115 811.648 531.77C811.467 531.426 811.377 531.074 811.377 530.713C811.377 530.352 811.451 529.992 811.598 529.631C811.746 529.27 811.951 528.951 812.213 528.672C812.803 528.016 813.377 527.689 813.934 527.689C814.492 527.689 814.959 527.762 815.336 527.91C815.713 528.057 816.057 528.262 816.369 528.525C817.057 529.098 817.402 529.656 817.402 530.197C817.402 530.721 817.32 531.164 817.156 531.525C816.992 531.885 816.762 532.213 816.467 532.508C815.828 533.18 815.107 533.516 814.303 533.516C813.615 533.516 813.041 533.311 812.582 532.902ZM825.172 532.902C824.73 532.492 824.418 532.115 824.238 531.77C824.057 531.426 823.967 531.074 823.967 530.713C823.967 530.352 824.041 529.992 824.189 529.631C824.336 529.27 824.541 528.951 824.803 528.672C825.393 528.016 825.967 527.689 826.525 527.689C827.082 527.689 827.549 527.762 827.926 527.91C828.303 528.057 828.648 528.262 828.959 528.525C829.648 529.098 829.992 529.656 829.992 530.197C829.992 530.721 829.91 531.164 829.746 531.525C829.582 531.885 829.352 532.213 829.057 532.508C828.418 533.18 827.697 533.516 826.893 533.516C826.205 533.516 825.631 533.311 825.172 532.902Z" fill="black"/>
<rect width="1440" height="1024" fill="white"/>
<rect width="1440" height="1024" fill="white"/>
<rect y="-3" width="1440" height="1024" fill="#DB3C1D"/>
<path d="M-82.8093 784.131H322.959C260.321 904.701 145.981 993.131 -20.1156 996.352C-99.6565 994.865 -167.211 973.687 -223 938.884C-162.24 901.048 -115.454 846.986 -82.8093 784.131Z" fill="white"/>
<path d="M-64.8871 745.457C-50.9652 748.984 -36.0489 751.026 -20.0829 751.336C226.147 746.633 226.092 336.373 -20.0829 331.732C-36.0489 332.042 -50.9652 334.084 -64.8871 337.611C-97.3163 258.467 -150.076 189.781 -223 144.424C-167.202 109.648 -99.6366 88.5468 -20.0829 86.9999C347.245 93.9922 461.659 517.68 323.048 784.132H-82.7867C-76.2677 771.508 -70.2459 758.638 -64.8871 745.457Z" fill="white"/>
<path d="M1032.77 623.872C1024.99 623.872 1021.68 627.184 1021.68 631.216C1021.68 633.568 1022.98 635.68 1025.95 635.68C1028.35 635.68 1030.18 634.192 1030.18 631.936C1030.18 631.024 1030.03 630.4 1029.79 629.776H1028.35C1028.16 629.248 1028.06 628.768 1028.06 628.384C1028.06 626.848 1028.88 624.784 1031.71 624.784C1035.02 624.784 1035.94 626.848 1035.94 631.6C1035.94 638.32 1033.06 642.304 1026.86 647.968L1022.02 652.432V658H1044.58L1045.06 644.704H1044.24C1043.52 648.4 1042.27 650.656 1037.57 650.656H1026.05L1028.98 648.544C1040.69 640.096 1044.38 637.696 1044.38 632.128C1044.38 626.512 1040.11 623.872 1032.77 623.872ZM1074.8 625.312H1077.44V624.4H1070.87V625.312H1073.51V648.496L1060.93 624.4H1047.68V625.312H1050.32V657.088H1047.68V658H1054.26V657.088H1051.62V626.944L1068.08 658H1074.8V625.312ZM1112.91 640.624C1112.91 628.672 1106.34 624.4 1094.48 624.4H1079.65V625.312H1082.82V657.088H1079.65V658H1093.23C1104.7 658 1112.91 654.16 1112.91 640.624ZM1092.18 657.088V625.312H1093.33C1100.05 625.312 1103.02 627.712 1103.02 639.376V642.16C1103.02 652.912 1100.48 657.088 1094 657.088H1092.18ZM1029.35 678.4V679.312H1032.47V711.088H1029.35V712H1047.83V711.088H1041.83V698.224H1042.21C1051.52 698.224 1057.81 696.112 1057.81 687.952C1057.81 680.416 1052.48 678.4 1043.46 678.4H1029.35ZM1041.83 679.312H1043.12C1046.77 679.312 1047.92 681.232 1047.92 686.656V688.96C1047.92 694.528 1046.87 697.312 1042.83 697.312H1041.83V679.312ZM1082.63 697.168C1082.63 706.816 1081.95 711.472 1076.58 711.472C1070.96 711.472 1070.39 706.288 1070.39 697.264V693.808C1070.39 683.968 1070.77 678.88 1076.58 678.88C1082.34 678.88 1082.63 683.776 1082.63 693.616V697.168ZM1060.55 695.728C1060.55 706.288 1065.68 712.48 1076.39 712.48C1087.47 712.48 1092.51 705.808 1092.51 695.104C1092.51 684.208 1087.28 677.872 1076.96 677.872C1066.26 677.872 1060.55 684.688 1060.55 695.728ZM1109.62 711.472C1104.34 711.472 1099.68 705.856 1097.28 701.056H1096.46L1096.94 712.48H1097.62C1098 711.568 1098.29 711.04 1099.06 711.04C1100.4 711.04 1104.43 712.48 1109.09 712.48C1116.14 712.48 1120.85 707.92 1120.85 701.008C1120.85 693.04 1114.94 691.216 1109.62 689.776C1104.77 688.48 1101.5 687.28 1101.5 683.728C1101.5 680.896 1103.9 678.88 1107.36 678.88C1112.3 678.88 1115.57 683.68 1118.02 688.096H1118.78L1118.45 678.4H1117.92C1117.58 679.024 1117.34 679.36 1116.53 679.36C1114.9 679.36 1112.4 677.872 1107.98 677.872C1100.59 677.872 1096.61 682.912 1096.61 688.288C1096.61 695.536 1101.02 697.84 1106.83 699.472C1112.74 701.152 1115.71 702.448 1115.71 706.432C1115.71 709.936 1112.5 711.472 1109.62 711.472ZM1151.17 678.4H1122.85L1122.37 690.448H1123.28C1125.73 683.008 1127.36 679.408 1131.73 679.408H1132.35V710.992H1128.27V712H1145.79V710.992H1141.71V679.408H1142.29C1146.66 679.408 1148.14 682.624 1150.74 690.448H1151.65L1151.17 678.4ZM1154.41 678.4V679.456H1157.25V710.944H1154.41V712H1180.77L1181.15 701.536H1180.19C1178.75 706.768 1174.53 710.944 1168.43 710.944H1166.61V695.536H1167.76C1171.12 695.536 1172.94 697.408 1174.09 702.208H1174.91V688H1174.19C1173.37 691.648 1171.36 694.288 1168.24 694.288H1166.61V679.456H1168.29C1174.09 679.456 1176.35 681.616 1178.99 687.904H1179.85L1179.37 678.4H1154.41ZM1199.1 695.008C1201.7 695.008 1202.37 696.784 1202.37 700.192V703.696C1202.37 710.464 1204.14 712.48 1210.19 712.48C1214.66 712.48 1216 711.088 1216.72 705.616L1215.9 705.52C1215.28 709.264 1214.56 709.648 1213.7 709.648C1212.35 709.648 1212.21 708.544 1212.21 705.424V702.88C1212.21 697.312 1210.43 695.296 1205.25 694.624V694.48C1210.34 694.048 1213.41 692.32 1213.41 686.464C1213.41 679.456 1208.61 678.4 1198.58 678.4H1184.08V679.312H1187.2V711.088H1184.08V712H1199.68V711.088H1196.56V695.008H1199.1ZM1196.56 679.312H1198.14C1201.5 679.312 1203.47 680.176 1203.47 685.552V686.944C1203.47 692.128 1201.65 694.096 1198.1 694.096H1196.56V679.312ZM1029.63 732.4V733.456H1032.47V764.944H1029.63V766H1055.99L1056.37 755.536H1055.41C1053.97 760.768 1049.75 764.944 1043.65 764.944H1041.83V749.536H1042.98C1046.34 749.536 1048.16 751.408 1049.31 756.208H1050.13V742H1049.41C1048.59 745.648 1046.58 748.288 1043.46 748.288H1041.83V733.456H1043.51C1049.31 733.456 1051.57 735.616 1054.21 741.904H1055.07L1054.59 732.4H1029.63ZM1091.24 766V765.088H1088.46L1077.56 746.32L1085.67 733.36H1088.84V732.4H1079V733.36H1083.99L1076.74 744.976L1070.26 733.36H1073.53V732.4H1057.35V733.36H1059.94L1069.98 750.976L1061.58 765.088H1058.36V766H1068.3V765.088H1063.21L1070.84 752.416L1077.99 765.088H1074.82V766H1091.24ZM1092.77 732.4V733.312H1095.61V765.088H1092.77V766H1107.75V765.088H1104.97V749.44H1114.52V765.088H1111.69V766H1126.71V765.088H1123.88V733.312H1126.71V732.4H1111.69V733.312H1114.52V748.192H1104.97V733.312H1107.75V732.4H1092.77ZM1128.92 732.4V733.312H1131.56V765.088H1128.92V766H1143.56V765.088H1140.92V733.312H1143.56V732.4H1128.92ZM1145.79 732.4V733.312H1148.91V765.088H1145.79V766H1159.9C1168.93 766 1175.17 764.032 1175.17 756.592C1175.17 751.552 1171.61 749.008 1165.57 748.24V748.144C1170.61 747.328 1173.49 744.88 1173.49 740.272C1173.49 734.32 1168.59 732.4 1160.14 732.4H1145.79ZM1158.27 749.008H1159.37C1164.03 749.008 1165.28 751.408 1165.28 755.344V757.888C1165.28 762.304 1164.22 765.088 1160.53 765.088H1158.27V749.008ZM1158.27 733.312H1159.81C1163.17 733.312 1163.98 735.088 1163.98 739.696V741.952C1163.98 745.888 1162.97 748.096 1159.52 748.096H1158.27V733.312ZM1177.62 732.4V733.312H1180.26V765.088H1177.62V766H1192.26V765.088H1189.62V733.312H1192.26V732.4H1177.62ZM1224.01 732.4H1195.69L1195.21 744.448H1196.12C1198.57 737.008 1200.2 733.408 1204.57 733.408H1205.2V764.992H1201.12V766H1218.64V764.992H1214.56V733.408H1215.13C1219.5 733.408 1220.99 736.624 1223.58 744.448H1224.49L1224.01 732.4ZM1227.45 732.4V733.312H1230.09V765.088H1227.45V766H1242.09V765.088H1239.45V733.312H1242.09V732.4H1227.45ZM1267.36 751.168C1267.36 760.816 1266.69 765.472 1261.31 765.472C1255.7 765.472 1255.12 760.288 1255.12 751.264V747.808C1255.12 737.968 1255.5 732.88 1261.31 732.88C1267.07 732.88 1267.36 737.776 1267.36 747.616V751.168ZM1245.28 749.728C1245.28 760.288 1250.42 766.48 1261.12 766.48C1272.21 766.48 1277.25 759.808 1277.25 749.104C1277.25 738.208 1272.02 731.872 1261.7 731.872C1250.99 731.872 1245.28 738.688 1245.28 749.728ZM1307.54 733.312H1310.18V732.4H1303.6V733.312H1306.24V756.496L1293.67 732.4H1280.42V733.312H1283.06V765.088H1280.42V766H1286.99V765.088H1284.35V734.944L1300.82 766H1307.54V733.312Z" fill="white"/>
<path d="M1028.99 835.3H1029.35C1029.83 834.46 1030.25 834.19 1030.64 834.19C1030.76 834.19 1031.03 834.31 1031.21 834.43C1032.35 835 1033.37 835.3 1034.81 835.3C1038.2 835.3 1040.42 833.59 1040.42 830.17C1040.42 826.63 1037.78 825.67 1035.41 825.04C1033.43 824.5 1031.63 824.17 1031.63 822.79C1031.63 821.86 1032.44 821.05 1034.42 821.05C1036.55 821.05 1038.08 822.19 1039.16 824.95H1039.52V820.36H1039.19C1038.8 821.11 1038.59 821.35 1038.14 821.35C1037.78 821.35 1037.66 821.26 1037.3 821.11C1036.49 820.75 1035.59 820.42 1034.27 820.42C1031.09 820.42 1028.99 822.43 1028.99 825.49C1028.99 828.82 1031.66 829.75 1034.06 830.41C1036.34 831.04 1037.81 831.34 1037.81 832.69C1037.81 833.83 1036.97 834.64 1034.75 834.64C1032.29 834.64 1030.46 833.59 1029.35 829.93H1028.99V835.3ZM1042.51 830.71C1042.51 834.43 1044.64 835.3 1047.61 835.3C1051.27 835.3 1052.26 833.14 1052.53 830.8L1052.02 830.74C1051.75 832.78 1050.85 834.1 1049.41 834.1C1048.36 834.1 1048.09 833.14 1048.09 831.37V821.26H1051.99V820.72H1048.09V815.47L1042.51 816.85V820.72H1040.86V821.26H1042.51V830.71ZM1052.97 827.89C1052.97 832.24 1055.37 835.3 1060.71 835.3C1064.97 835.3 1066.53 833.32 1067.22 830.74L1066.68 830.65C1066.02 832.96 1064.52 834.37 1062.3 834.37C1059.39 834.37 1058.76 831.97 1058.76 828.43V827.26H1067.22C1067.4 822.79 1065.39 820.42 1060.68 820.42C1056.51 820.42 1052.97 822.7 1052.97 827.89ZM1058.79 826.66V825.19C1058.79 822.01 1059.36 820.99 1060.41 820.99C1061.64 820.99 1061.88 822.04 1061.88 825.19V826.66H1058.79ZM1068.17 812.5V813.04H1069.94V834.46H1068.29V835H1077.2V834.46H1075.52V812.5H1068.17ZM1077.66 812.5V813.04H1079.43V834.46H1077.78V835H1086.69V834.46H1085.01V812.5H1077.66ZM1101.07 820.96C1101.91 820.96 1102.51 821.38 1102.51 822.4C1102.51 822.7 1102.45 823.06 1102.3 823.48H1101.31C1101.19 823.9 1101.16 824.29 1101.16 824.56C1101.16 826.24 1102.27 827.05 1103.83 827.05C1105.33 827.05 1106.32 826.09 1106.32 824.23C1106.32 821.98 1104.49 820.42 1100.83 820.42C1095.88 820.42 1092.82 823 1092.82 828.04C1092.82 832.72 1095.4 835.3 1100.02 835.3C1105.03 835.3 1106.02 832.27 1106.41 830.41L1105.87 830.35C1105.54 831.97 1104.37 834.28 1101.64 834.28C1099.3 834.28 1098.61 832.57 1098.61 828.73V827.17C1098.61 822.7 1099.33 820.96 1101.07 820.96ZM1116.86 829.09C1116.86 832.99 1116.77 834.76 1115.06 834.76C1113.23 834.76 1113.17 832.51 1113.17 829.03V826.69C1113.17 823.3 1113.26 820.96 1115.09 820.96C1116.77 820.96 1116.86 823.3 1116.86 826.54V829.09ZM1107.41 827.92C1107.41 832.6 1109.96 835.3 1115 835.3C1120.34 835.3 1122.62 832.57 1122.62 827.65C1122.62 822.79 1120.22 820.42 1115.18 820.42C1110.35 820.42 1107.41 823 1107.41 827.92ZM1123.34 812.5V813.04H1125.11V834.46H1123.46V835H1132.37V834.46H1130.69V812.5H1123.34ZM1142.64 829.09C1142.64 832.99 1142.55 834.76 1140.84 834.76C1139.01 834.76 1138.95 832.51 1138.95 829.03V826.69C1138.95 823.3 1139.04 820.96 1140.87 820.96C1142.55 820.96 1142.64 823.3 1142.64 826.54V829.09ZM1133.19 827.92C1133.19 832.6 1135.74 835.3 1140.78 835.3C1146.12 835.3 1148.4 832.57 1148.4 827.65C1148.4 822.79 1146 820.42 1140.96 820.42C1136.13 820.42 1133.19 823 1133.19 827.92ZM1166.79 835V834.46H1165.14V820.72H1158.18V821.26H1159.56V830.44C1159.56 832.72 1158.63 833.95 1157.43 833.95C1156.68 833.95 1156.32 833.56 1156.32 831.01V820.72H1149.06V821.26H1150.74V830.29C1150.74 833.92 1152.6 835.3 1155.39 835.3C1158.09 835.3 1159.05 834.22 1159.62 832.81L1159.95 835H1166.79ZM1177.42 821.56C1178.05 821.56 1178.65 821.86 1178.05 823.09H1176.97C1176.34 825.22 1177.3 826.48 1179.31 826.48C1180.93 826.48 1181.83 825.34 1181.83 823.63C1181.83 821.35 1180.42 820.42 1178.65 820.42C1176.85 820.42 1175.17 821.47 1174.63 823.6V820.72H1167.4V821.26H1169.05V834.46H1167.4V835H1176.76V834.46H1174.63V826.42C1174.63 823.72 1175.98 821.56 1177.42 821.56ZM1040.99 857.15C1038.35 857.15 1034.99 859.31 1034.99 864.59C1034.99 866.96 1036.43 869.15 1039.37 869.15C1041.14 869.15 1041.95 868.01 1042.31 867.05C1042.76 868.19 1043.69 869.21 1046.24 869.21C1049.99 869.21 1052.27 866.78 1052.27 861.68C1052.27 855.32 1047.98 851.84 1042.01 851.84C1034.9 851.84 1030.1 856.97 1030.1 863.9C1030.1 871.25 1035.71 874.49 1041.89 874.49C1044.62 874.49 1047.59 873.5 1049.39 871.82L1048.91 871.28C1047.32 872.63 1044.95 873.77 1041.92 873.77C1036.58 873.77 1030.94 871.13 1030.94 863.78C1030.94 856.64 1036.07 852.5 1041.8 852.5C1047.98 852.5 1051.49 856.1 1051.49 861.89C1051.49 866.15 1049.33 868.34 1047.77 868.34C1046.33 868.34 1046.06 867.5 1046.06 866C1046.06 865.1 1046.21 864.08 1046.42 862.82L1047.38 857.36H1044.11L1043.6 858.26C1042.91 857.6 1042.25 857.15 1040.99 857.15ZM1042.43 865.1C1042.13 867.08 1041.17 868.52 1040 868.52C1038.98 868.52 1038.47 867.8 1038.47 866C1038.47 863.75 1038.95 857.78 1041.47 857.78C1042.31 857.78 1042.85 858.05 1043.45 858.68L1042.43 865.1ZM1055.36 869.3H1055.72C1056.2 868.46 1056.62 868.19 1057.01 868.19C1057.13 868.19 1057.4 868.31 1057.58 868.43C1058.72 869 1059.74 869.3 1061.18 869.3C1064.57 869.3 1066.79 867.59 1066.79 864.17C1066.79 860.63 1064.15 859.67 1061.78 859.04C1059.8 858.5 1058 858.17 1058 856.79C1058 855.86 1058.81 855.05 1060.79 855.05C1062.92 855.05 1064.45 856.19 1065.53 858.95H1065.89V854.36H1065.56C1065.17 855.11 1064.96 855.35 1064.51 855.35C1064.15 855.35 1064.03 855.26 1063.67 855.11C1062.86 854.75 1061.96 854.42 1060.64 854.42C1057.46 854.42 1055.36 856.43 1055.36 859.49C1055.36 862.82 1058.03 863.75 1060.43 864.41C1062.71 865.04 1064.18 865.34 1064.18 866.69C1064.18 867.83 1063.34 868.64 1061.12 868.64C1058.66 868.64 1056.83 867.59 1055.72 863.93H1055.36V869.3ZM1068.88 864.71C1068.88 868.43 1071.01 869.3 1073.98 869.3C1077.64 869.3 1078.63 867.14 1078.9 864.8L1078.39 864.74C1078.12 866.78 1077.22 868.1 1075.78 868.1C1074.73 868.1 1074.46 867.14 1074.46 865.37V855.26H1078.36V854.72H1074.46V849.47L1068.88 850.85V854.72H1067.23V855.26H1068.88V864.71ZM1079.34 861.89C1079.34 866.24 1081.74 869.3 1087.08 869.3C1091.34 869.3 1092.9 867.32 1093.59 864.74L1093.05 864.65C1092.39 866.96 1090.89 868.37 1088.67 868.37C1085.76 868.37 1085.13 865.97 1085.13 862.43V861.26H1093.59C1093.77 856.79 1091.76 854.42 1087.05 854.42C1082.88 854.42 1079.34 856.7 1079.34 861.89ZM1085.16 860.66V859.19C1085.16 856.01 1085.73 854.99 1086.78 854.99C1088.01 854.99 1088.25 856.04 1088.25 859.19V860.66H1085.16ZM1094.54 846.5V847.04H1096.31V868.46H1094.66V869H1103.57V868.46H1101.89V846.5H1094.54ZM1104.03 846.5V847.04H1105.8V868.46H1104.15V869H1113.06V868.46H1111.38V846.5H1104.03ZM1128.34 872.18V871.07H1113.34V872.18H1128.34ZM1137.04 854.96C1137.88 854.96 1138.48 855.38 1138.48 856.4C1138.48 856.7 1138.42 857.06 1138.27 857.48H1137.28C1137.16 857.9 1137.13 858.29 1137.13 858.56C1137.13 860.24 1138.24 861.05 1139.8 861.05C1141.3 861.05 1142.29 860.09 1142.29 858.23C1142.29 855.98 1140.46 854.42 1136.8 854.42C1131.85 854.42 1128.79 857 1128.79 862.04C1128.79 866.72 1131.37 869.3 1135.99 869.3C1141 869.3 1141.99 866.27 1142.38 864.41L1141.84 864.35C1141.51 865.97 1140.34 868.28 1137.61 868.28C1135.27 868.28 1134.58 866.57 1134.58 862.73V861.17C1134.58 856.7 1135.3 854.96 1137.04 854.96ZM1152.83 863.09C1152.83 866.99 1152.74 868.76 1151.03 868.76C1149.2 868.76 1149.14 866.51 1149.14 863.03V860.69C1149.14 857.3 1149.23 854.96 1151.06 854.96C1152.74 854.96 1152.83 857.3 1152.83 860.54V863.09ZM1143.38 861.92C1143.38 866.6 1145.93 869.3 1150.97 869.3C1156.31 869.3 1158.59 866.57 1158.59 861.65C1158.59 856.79 1156.19 854.42 1151.15 854.42C1146.32 854.42 1143.38 857 1143.38 861.92ZM1159.31 846.5V847.04H1161.08V868.46H1159.43V869H1168.34V868.46H1166.66V846.5H1159.31ZM1178.62 863.09C1178.62 866.99 1178.53 868.76 1176.82 868.76C1174.99 868.76 1174.93 866.51 1174.93 863.03V860.69C1174.93 857.3 1175.02 854.96 1176.85 854.96C1178.53 854.96 1178.62 857.3 1178.62 860.54V863.09ZM1169.17 861.92C1169.17 866.6 1171.72 869.3 1176.76 869.3C1182.1 869.3 1184.38 866.57 1184.38 861.65C1184.38 856.79 1181.98 854.42 1176.94 854.42C1172.11 854.42 1169.17 857 1169.17 861.92ZM1202.76 869V868.46H1201.11V854.72H1194.15V855.26H1195.53V864.44C1195.53 866.72 1194.6 867.95 1193.4 867.95C1192.65 867.95 1192.29 867.56 1192.29 865.01V854.72H1185.03V855.26H1186.71V864.29C1186.71 867.92 1188.57 869.3 1191.36 869.3C1194.06 869.3 1195.02 868.22 1195.59 866.81L1195.92 869H1202.76ZM1213.4 855.56C1214.03 855.56 1214.63 855.86 1214.03 857.09H1212.95C1212.32 859.22 1213.28 860.48 1215.29 860.48C1216.91 860.48 1217.81 859.34 1217.81 857.63C1217.81 855.35 1216.4 854.42 1214.63 854.42C1212.83 854.42 1211.15 855.47 1210.61 857.6V854.72H1203.38V855.26H1205.03V868.46H1203.38V869H1212.74V868.46H1210.61V860.42C1210.61 857.72 1211.96 855.56 1213.4 855.56Z" fill="white"/>
<path d="M1028 872H1217.93V873.5H1028V872Z" fill="white"/>
<a href="https://www.instagram.com/stell_colour/">
<rect fill="black" fill-opacity="0" y="34.2" width="189.928" height="33.6"/>
</a>
</g>
<defs>
<clipPath id="clip0">
<rect width="1440" height="1021" fill="white"/>
</clipPath>
</defs>
</svg>
