<svg width="582" height="36" viewBox="0 0 582 36" fill="none" xmlns="http://www.w3.org/2000/svg">
<path d="M11.768 0.871999C3.992 0.871999 0.68 4.184 0.68 8.216C0.68 10.568 1.976 12.68 4.952 12.68C7.352 12.68 9.176 11.192 9.176 8.936C9.176 8.024 9.032 7.4 8.792 6.776H7.352C7.16 6.248 7.064 5.768 7.064 5.384C7.064 3.848 7.88 1.784 10.712 1.784C14.024 1.784 14.936 3.848 14.936 8.6C14.936 15.32 12.056 19.304 5.864 24.968L1.016 29.432V35H23.576L24.056 21.704H23.24C22.52 25.4 21.272 27.656 16.568 27.656H5.048L7.976 25.544C19.688 17.096 23.384 14.696 23.384 9.128C23.384 3.512 19.112 0.871999 11.768 0.871999ZM53.8044 2.312H56.4444V1.4H49.8684V2.312H52.5084V25.496L39.9324 1.4H26.6844V2.312H29.3244V34.088H26.6844V35H33.2604V34.088H30.6204V3.944L47.0844 35H53.8044V2.312ZM91.9126 17.624C91.9126 5.672 85.3366 1.4 73.4806 1.4H58.6486V2.312H61.8166V34.088H58.6486V35H72.2326C83.7046 35 91.9126 31.16 91.9126 17.624ZM71.1766 34.088V2.312H72.3286C79.0486 2.312 82.0246 4.712 82.0246 16.376V19.16C82.0246 29.912 79.4806 34.088 73.0006 34.088H71.1766ZM103.22 1.4V2.312H106.34V34.088H103.22V35H121.7V34.088H115.7V21.224H116.084C125.396 21.224 131.684 19.112 131.684 10.952C131.684 3.416 126.356 1.4 117.332 1.4H103.22ZM115.7 2.312H116.996C120.644 2.312 121.796 4.232 121.796 9.656V11.96C121.796 17.528 120.74 20.312 116.708 20.312H115.7V2.312ZM156.501 20.168C156.501 29.816 155.829 34.472 150.453 34.472C144.837 34.472 144.261 29.288 144.261 20.264V16.808C144.261 6.968 144.645 1.88 150.453 1.88C156.213 1.88 156.501 6.776 156.501 16.616V20.168ZM134.421 18.728C134.421 29.288 139.557 35.48 150.261 35.48C161.349 35.48 166.389 28.808 166.389 18.104C166.389 7.208 161.157 0.871999 150.837 0.871999C140.133 0.871999 134.421 7.688 134.421 18.728ZM183.491 34.472C178.211 34.472 173.555 28.856 171.155 24.056H170.339L170.819 35.48H171.491C171.875 34.568 172.163 34.04 172.931 34.04C174.275 34.04 178.307 35.48 182.963 35.48C190.019 35.48 194.723 30.92 194.723 24.008C194.723 16.04 188.819 14.216 183.491 12.776C178.643 11.48 175.379 10.28 175.379 6.728C175.379 3.896 177.779 1.88 181.235 1.88C186.179 1.88 189.443 6.68 191.891 11.096H192.659L192.323 1.4H191.795C191.459 2.024 191.219 2.36 190.403 2.36C188.771 2.36 186.275 0.871999 181.859 0.871999C174.467 0.871999 170.483 5.912 170.483 11.288C170.483 18.536 174.899 20.84 180.707 22.472C186.611 24.152 189.587 25.448 189.587 29.432C189.587 32.936 186.371 34.472 183.491 34.472ZM225.044 1.4H196.724L196.244 13.448H197.156C199.604 6.008 201.236 2.408 205.604 2.408H206.228V33.992H202.148V35H219.668V33.992H215.588V2.408H216.164C220.532 2.408 222.02 5.624 224.612 13.448H225.524L225.044 1.4ZM228.289 1.4V2.456H231.121V33.944H228.289V35H254.641L255.025 24.536H254.065C252.625 29.768 248.401 33.944 242.305 33.944H240.481V18.536H241.633C244.993 18.536 246.817 20.408 247.969 25.208H248.785V11H248.065C247.249 14.648 245.233 17.288 242.113 17.288H240.481V2.456H242.161C247.969 2.456 250.225 4.616 252.865 10.904H253.729L253.249 1.4H228.289ZM272.978 18.008C275.57 18.008 276.242 19.784 276.242 23.192V26.696C276.242 33.464 278.018 35.48 284.066 35.48C288.53 35.48 289.874 34.088 290.594 28.616L289.778 28.52C289.154 32.264 288.434 32.648 287.57 32.648C286.226 32.648 286.082 31.544 286.082 28.424V25.88C286.082 20.312 284.306 18.296 279.122 17.624V17.48C284.21 17.048 287.282 15.32 287.282 9.464C287.282 2.456 282.482 1.4 272.45 1.4H257.954V2.312H261.074V34.088H257.954V35H273.554V34.088H270.434V18.008H272.978ZM270.434 2.312H272.018C275.378 2.312 277.346 3.176 277.346 8.552V9.944C277.346 15.128 275.522 17.096 271.97 17.096H270.434V2.312ZM301.227 1.4V2.456H304.059V33.944H301.227V35H327.579L327.963 24.536H327.003C325.563 29.768 321.339 33.944 315.243 33.944H313.419V18.536H314.571C317.931 18.536 319.755 20.408 320.907 25.208H321.723V11H321.003C320.187 14.648 318.171 17.288 315.051 17.288H313.419V2.456H315.099C320.907 2.456 323.163 4.616 325.803 10.904H326.667L326.187 1.4H301.227ZM362.834 35V34.088H360.05L349.154 15.32L357.266 2.36H360.434V1.4H350.594V2.36H355.586L348.338 13.976L341.858 2.36H345.122V1.4H328.946V2.36H331.538L341.57 19.976L333.17 34.088H329.954V35H339.89V34.088H334.802L342.434 21.416L349.586 34.088H346.418V35H362.834ZM364.367 1.4V2.312H367.199V34.088H364.367V35H379.343V34.088H376.559V18.44H386.111V34.088H383.279V35H398.303V34.088H395.471V2.312H398.303V1.4H383.279V2.312H386.111V17.192H376.559V2.312H379.343V1.4H364.367ZM400.513 1.4V2.312H403.153V34.088H400.513V35H415.153V34.088H412.513V2.312H415.153V1.4H400.513ZM417.383 1.4V2.312H420.503V34.088H417.383V35H431.495C440.519 35 446.759 33.032 446.759 25.592C446.759 20.552 443.207 18.008 437.159 17.24V17.144C442.199 16.328 445.079 13.88 445.079 9.272C445.079 3.32 440.183 1.4 431.735 1.4H417.383ZM429.863 18.008H430.967C435.623 18.008 436.871 20.408 436.871 24.344V26.888C436.871 31.304 435.815 34.088 432.119 34.088H429.863V18.008ZM429.863 2.312H431.399C434.759 2.312 435.575 4.088 435.575 8.696V10.952C435.575 14.888 434.567 17.096 431.111 17.096H429.863V2.312ZM449.216 1.4V2.312H451.856V34.088H449.216V35H463.856V34.088H461.216V2.312H463.856V1.4H449.216ZM495.606 1.4H467.286L466.806 13.448H467.718C470.166 6.008 471.798 2.408 476.166 2.408H476.79V33.992H472.71V35H490.23V33.992H486.15V2.408H486.726C491.094 2.408 492.582 5.624 495.174 13.448H496.086L495.606 1.4ZM499.044 1.4V2.312H501.684V34.088H499.044V35H513.684V34.088H511.044V2.312H513.684V1.4H499.044ZM538.954 20.168C538.954 29.816 538.282 34.472 532.906 34.472C527.29 34.472 526.714 29.288 526.714 20.264V16.808C526.714 6.968 527.098 1.88 532.906 1.88C538.666 1.88 538.954 6.776 538.954 16.616V20.168ZM516.874 18.728C516.874 29.288 522.01 35.48 532.714 35.48C543.802 35.48 548.842 28.808 548.842 18.104C548.842 7.208 543.61 0.871999 533.29 0.871999C522.586 0.871999 516.874 7.688 516.874 18.728ZM579.133 2.312H581.773V1.4H575.197V2.312H577.837V25.496L565.261 1.4H552.013V2.312H554.653V34.088H552.013V35H558.589V34.088H555.949V3.944L572.413 35H579.133V2.312Z" fill="black"/>
</svg>
