<svg width="1440" height="1021" viewBox="0 0 1440 1021" fill="none" xmlns="http://www.w3.org/2000/svg">
<g clip-path="url(#clip0)">
<rect width="1440" height="1021" fill="white"/>
<path d="M609.074 530.91L612.615 529.852V499.557L609.197 498.746L609.025 498.402L609.369 496.311H634.844L634.008 503.787C633.402 503.902 632.721 503.861 631.967 503.664L630.541 499.189H617.262V512.811H627.27L628.5 509.32C628.959 509.205 629.59 509.205 630.393 509.32V519.205C629.689 519.32 629.057 519.32 628.5 519.205L627.27 515.738H617.262V530.123H631.598L633.689 524.148C634.246 523.984 634.885 523.984 635.607 524.148L635.828 533H608.975L608.852 532.779L609.074 530.91ZM644.459 511.066L641.631 510.352L641.434 510.057L641.754 508.09H652.107L652.279 508.336L652.033 510.131L649.328 511.066L655.697 528.303L662.164 510.992L658.77 510.352L658.648 510.057L658.943 508.09H668.213L668.385 508.336L668.016 510.352L665.164 511.066L656.213 532.557C655.951 533.082 655.123 533.418 653.73 533.566L644.459 511.066ZM691.033 527.418C691.885 527.762 692.352 528.369 692.434 529.238C689.926 531.615 687.402 533.098 684.861 533.689C684.303 533.82 683.738 533.885 683.164 533.885C679.721 533.885 676.926 532.672 674.779 530.246C672.648 527.869 671.582 524.902 671.582 521.344C671.582 517.475 672.852 514.148 675.393 511.361C676.557 510.082 677.902 509.074 679.426 508.336C680.951 507.598 682.492 507.23 684.049 507.23C685.623 507.23 686.951 507.508 688.033 508.066C689.131 508.607 690.041 509.344 690.762 510.279C692.205 512.115 692.926 514.459 692.926 517.311C692.926 518.115 692.852 518.811 692.705 519.402C692.525 519.811 689.156 520.016 682.598 520.016C680.418 520.016 678.115 519.984 675.689 519.918C675.721 523.049 676.73 525.574 678.713 527.492C680.484 529.197 682.484 530.049 684.713 530.049C686.943 530.049 689.049 529.172 691.033 527.418ZM677.73 517.656C682.648 517.656 686.238 517.5 688.5 517.189C688.5 515.434 687.975 513.82 686.926 512.344C685.779 510.754 684.41 509.959 682.82 509.959C681.082 509.959 679.582 510.607 678.32 511.902C676.959 513.262 676.123 515.18 675.811 517.656H677.73ZM713.016 510.943C710.738 510.943 708.213 511.574 705.443 512.836V529.852L709.377 530.689L709.475 531.033L709.205 533H698.189L698.016 532.779L698.262 530.91L701.508 529.852V513.426L698.09 511.926L697.844 511.631L698.09 510.303L704.557 507.697L704.975 507.918V510.943C708.746 508.467 711.828 507.23 714.221 507.23C716.68 507.23 718.598 507.984 719.975 509.492C721.336 510.967 722.016 513.016 722.016 515.639V529.852L726.27 530.689L726.393 531.033L726.098 533H714.393L714.295 532.779L714.516 530.91L718.057 529.852V516.795C718.057 512.893 716.377 510.943 713.016 510.943ZM740.729 530.123C742.533 530.123 744.41 529.738 746.361 528.967C746.951 529.328 747.279 529.902 747.344 530.689C744.459 532.82 742.066 533.885 740.164 533.885C737.934 533.885 736.238 533.148 735.074 531.672C734.057 530.377 733.549 528.623 733.549 526.41V510.943H730.328C730.197 510.664 730.131 510.385 730.131 510.107C730.131 509.762 730.254 509.434 730.5 509.123L734.09 507.869L735.885 501.23H737.557V508.287C739.377 508.287 742.229 508.205 746.115 508.041C746.115 508.123 746.123 508.205 746.139 508.287L746.164 508.902C746.164 509.803 745.967 510.484 745.574 510.943H737.557V526.213C737.557 527.311 737.77 528.131 738.197 528.672C738.934 529.639 739.779 530.123 740.729 530.123ZM769.648 530.516C775.648 526.484 779.73 523.254 781.893 520.828C783.762 518.713 784.697 516.713 784.697 514.828C784.697 513.369 784.221 512.164 783.27 511.213C782.238 510.18 781.008 509.664 779.582 509.664C776.467 509.664 773.738 510.631 771.393 512.566C770.311 511.877 769.77 511.123 769.77 510.303C772.426 508.156 775.352 506.803 778.549 506.246C779.287 506.131 780.156 506.074 781.156 506.074C782.156 506.074 783.197 506.246 784.279 506.59C785.377 506.934 786.336 507.426 787.156 508.066C788.91 509.475 789.787 511.361 789.787 513.721C789.787 516.311 788.672 518.77 786.443 521.098C784.967 522.639 783.115 524.23 780.885 525.869L774.738 530.344C783.787 530.344 788.418 529.959 788.631 529.189L789.615 525.205C790.221 525.025 790.893 524.975 791.631 525.057L792.443 533H770.508C769.803 532.426 769.516 531.598 769.648 530.516ZM799.992 532.902C799.549 532.492 799.238 532.115 799.057 531.77C798.877 531.426 798.787 531.074 798.787 530.713C798.787 530.352 798.861 529.992 799.008 529.631C799.156 529.27 799.361 528.951 799.623 528.672C800.213 528.016 800.787 527.689 801.344 527.689C801.902 527.689 802.369 527.762 802.746 527.91C803.123 528.057 803.467 528.262 803.779 528.525C804.467 529.098 804.811 529.656 804.811 530.197C804.811 530.721 804.73 531.164 804.566 531.525C804.402 531.885 804.172 532.213 803.877 532.508C803.238 533.18 802.516 533.516 801.713 533.516C801.025 533.516 800.451 533.311 799.992 532.902ZM812.582 532.902C812.139 532.492 811.828 532.115 811.648 531.77C811.467 531.426 811.377 531.074 811.377 530.713C811.377 530.352 811.451 529.992 811.598 529.631C811.746 529.27 811.951 528.951 812.213 528.672C812.803 528.016 813.377 527.689 813.934 527.689C814.492 527.689 814.959 527.762 815.336 527.91C815.713 528.057 816.057 528.262 816.369 528.525C817.057 529.098 817.402 529.656 817.402 530.197C817.402 530.721 817.32 531.164 817.156 531.525C816.992 531.885 816.762 532.213 816.467 532.508C815.828 533.18 815.107 533.516 814.303 533.516C813.615 533.516 813.041 533.311 812.582 532.902ZM825.172 532.902C824.73 532.492 824.418 532.115 824.238 531.77C824.057 531.426 823.967 531.074 823.967 530.713C823.967 530.352 824.041 529.992 824.189 529.631C824.336 529.27 824.541 528.951 824.803 528.672C825.393 528.016 825.967 527.689 826.525 527.689C827.082 527.689 827.549 527.762 827.926 527.91C828.303 528.057 828.648 528.262 828.959 528.525C829.648 529.098 829.992 529.656 829.992 530.197C829.992 530.721 829.91 531.164 829.746 531.525C829.582 531.885 829.352 532.213 829.057 532.508C828.418 533.18 827.697 533.516 826.893 533.516C826.205 533.516 825.631 533.311 825.172 532.902Z" fill="black"/>
<rect width="1440" height="1024" fill="white"/>
<rect width="1440" height="1024" fill="white"/>
<path d="M639.047 377.8V378.592H641.171V402.208H639.047V403H658.127L658.811 394.576H658.055C655.931 398.968 653.951 402.208 649.487 402.208H648.191V378.592H652.007V377.8H639.047ZM671.724 395.908C671.724 400.588 671.616 402.712 669.564 402.712C667.368 402.712 667.296 400.012 667.296 395.836V393.028C667.296 388.96 667.404 386.152 669.6 386.152C671.616 386.152 671.724 388.96 671.724 392.848V395.908ZM660.384 394.504C660.384 400.12 663.444 403.36 669.492 403.36C675.9 403.36 678.636 400.084 678.636 394.18C678.636 388.348 675.756 385.504 669.708 385.504C663.912 385.504 660.384 388.6 660.384 394.504ZM689.723 386.152C690.731 386.152 691.451 386.656 691.451 387.88C691.451 388.24 691.379 388.672 691.199 389.176H690.011C689.867 389.68 689.831 390.148 689.831 390.472C689.831 392.488 691.163 393.46 693.035 393.46C694.835 393.46 696.023 392.308 696.023 390.076C696.023 387.376 693.827 385.504 689.435 385.504C683.495 385.504 679.823 388.6 679.823 394.648C679.823 400.264 682.919 403.36 688.463 403.36C694.475 403.36 695.663 399.724 696.131 397.492L695.483 397.42C695.087 399.364 693.683 402.136 690.407 402.136C687.599 402.136 686.771 400.084 686.771 395.476V393.604C686.771 388.24 687.635 386.152 689.723 386.152ZM705.686 394.54C700.538 394.54 697.406 395.368 697.406 399.004C697.406 402.604 700.214 403.36 702.734 403.36C705.254 403.36 706.298 402.424 706.874 400.696C707.306 402.46 708.926 403.36 711.842 403.36C714.938 403.36 716.27 402.136 716.45 397.816L715.91 397.78C715.73 400.804 715.118 401.488 714.47 401.488C713.858 401.488 713.426 401.092 713.426 399.616V392.308C713.426 387.088 711.518 385.504 705.866 385.504C700.97 385.504 698.342 386.908 698.342 389.932C698.342 391.696 699.206 392.92 701.438 392.92C703.238 392.92 704.606 391.804 704.606 390.112C704.606 389.428 704.498 388.96 704.318 388.492H703.418C703.274 388.096 703.202 387.736 703.202 387.448C703.202 386.296 704.246 386.008 704.894 386.008C706.334 386.008 706.73 387.196 706.73 391.768V394.54H705.686ZM705.182 401.92C704.498 401.92 704.246 401.56 704.246 398.968V398.392C704.246 396.196 704.966 395.116 706.478 395.116H706.73V398.464C706.73 400.768 705.866 401.92 705.182 401.92ZM718.076 397.852C718.076 402.316 720.632 403.36 724.196 403.36C728.588 403.36 729.776 400.768 730.1 397.96L729.488 397.888C729.164 400.336 728.084 401.92 726.356 401.92C725.096 401.92 724.772 400.768 724.772 398.644V386.512H729.452V385.864H724.772V379.564L718.076 381.22V385.864H716.096V386.512H718.076V397.852ZM732.208 380.032C732.208 381.544 732.892 383.38 735.808 383.38C738.4 383.38 739.444 381.904 739.444 379.996C739.444 377.8 738.112 376.684 735.88 376.684C733.18 376.684 732.208 378.268 732.208 380.032ZM730.3 385.864V386.512H732.424V402.352H730.444V403H741.136V402.352H739.12V385.864H730.3ZM753.498 395.908C753.498 400.588 753.39 402.712 751.338 402.712C749.142 402.712 749.07 400.012 749.07 395.836V393.028C749.07 388.96 749.178 386.152 751.374 386.152C753.39 386.152 753.498 388.96 753.498 392.848V395.908ZM742.158 394.504C742.158 400.12 745.218 403.36 751.266 403.36C757.674 403.36 760.41 400.084 760.41 394.18C760.41 388.348 757.53 385.504 751.482 385.504C745.686 385.504 742.158 388.6 742.158 394.504ZM761.489 385.864V386.512H763.469V402.352H761.489V403H771.713V402.352H770.165V392.416C770.165 389.5 771.569 387.232 773.081 387.232C773.981 387.232 774.413 387.592 774.413 390.652V402.352H772.937V403H783.125V402.352H781.109V391.516C781.109 387.16 778.877 385.504 775.529 385.504C771.965 385.504 770.777 387.376 770.165 389.176V385.864H761.489ZM326.445 483H337.497V481.956H335.013V476.556H338.289V479.22H339.261V472.56H338.289V475.368H335.013V457.8H330.261L319.857 475.548V476.556H329.829V481.956H326.445V483ZM321.369 475.368L329.829 460.824V475.368H321.369ZM348.629 469.752V469.86C343.661 470.256 341.105 472.632 341.105 476.484C341.105 480.912 344.345 483.36 350.465 483.36C356.513 483.36 359.717 480.984 359.717 476.448C359.717 472.776 357.413 470.364 352.409 469.86V469.752C356.657 469.32 358.997 467.088 358.997 463.74C358.997 459.78 355.829 457.404 350.465 457.404C344.957 457.404 341.897 459.924 341.897 463.848C341.897 467.088 344.309 469.284 348.629 469.752ZM350.465 470.436C353.201 470.436 354.389 472.344 354.389 476.376C354.389 480.408 353.309 482.244 350.465 482.244C347.585 482.244 346.505 480.444 346.505 476.484C346.505 472.38 347.657 470.436 350.465 470.436ZM347.189 463.74C347.189 460.356 347.981 458.52 350.465 458.52C352.949 458.52 353.741 460.356 353.741 463.74C353.741 467.448 352.985 469.176 350.537 469.176C348.089 469.176 347.189 467.448 347.189 463.74ZM362.424 474H371.172V471.912H362.424V474ZM372.857 483H388.877L389.165 474.648H388.373C387.833 477.42 387.041 478.752 383.621 478.752H375.953C386.969 469.32 388.733 467.304 388.733 463.524C388.733 459.744 386.105 457.404 380.741 457.404C375.845 457.404 372.785 459.6 372.785 463.056C372.785 464.748 373.685 466.044 375.485 466.044C376.997 466.044 378.149 465.144 378.149 463.704C378.149 463.056 378.041 462.516 377.861 462.012H376.817C376.673 461.652 376.601 461.256 376.601 460.932C376.601 459.528 377.897 458.52 379.877 458.52C382.577 458.52 383.477 459.852 383.477 463.272C383.477 467.592 382.037 470.436 377.429 475.26L372.857 480.12V483ZM399.797 457.404C395.333 457.404 392.273 459.312 392.273 462.516C392.273 464.1 393.101 465.36 394.829 465.36C396.305 465.36 397.349 464.46 397.349 463.056C397.349 462.516 397.241 461.976 397.097 461.508H396.089C396.017 461.22 395.945 460.896 395.945 460.608C395.945 459.456 397.025 458.484 398.969 458.484C401.165 458.484 402.209 459.924 402.209 463.2C402.209 467.916 400.229 468.888 396.233 469.284L396.377 470.364C397.817 470.22 398.537 470.112 399.689 469.824C401.669 470.724 403.217 472.164 403.217 475.98C403.217 480.12 401.921 482.244 398.681 482.244C396.629 482.244 395.297 481.488 395.297 480.264C395.297 479.94 395.369 479.616 395.477 479.256H396.521C396.665 478.716 396.809 478.176 396.809 477.564C396.809 476.16 395.729 475.188 394.217 475.188C392.381 475.188 391.481 476.52 391.481 478.248C391.481 482.064 395.225 483.36 398.753 483.36C404.837 483.36 408.725 480.408 408.725 475.872C408.725 472.38 406.421 469.824 400.913 469.248C405.089 468.168 407.465 466.116 407.465 463.056C407.465 459.564 404.981 457.404 399.797 457.404ZM413.119 488.616C416.215 486.24 417.511 484.188 417.511 481.56C417.511 479.436 416.467 477.672 414.235 477.672C412.687 477.672 411.499 478.716 411.499 480.372C411.499 481.776 412.579 482.676 413.443 482.964L414.847 481.668C415.351 481.74 415.711 482.172 415.711 483C415.711 484.152 415.207 485.52 412.543 487.932L413.119 488.616ZM439.687 469.68L434.575 458.844H437.347V457.8H426.547V458.844H428.707L435.007 471.228V481.956H432.379V483H443.035V481.956H440.407V470.868L446.347 458.844H448.831V457.8H441.559V458.844H445.015L439.687 469.68ZM446.254 474.54C446.254 479.76 448.954 483.36 454.894 483.36C459.754 483.36 461.59 480.912 462.31 477.888L461.338 477.744C460.618 480.444 458.998 482.064 456.262 482.064C452.59 482.064 451.618 479.364 451.618 474.684V473.712H462.274C462.49 468.312 460.114 465.504 455.146 465.504C450.142 465.504 446.254 468.276 446.254 474.54ZM451.618 472.74C451.726 468.024 452.734 466.368 454.75 466.368C456.91 466.368 457.378 468.168 457.306 472.74H451.618ZM476.278 474.288C476.278 479.904 475.774 482.496 473.002 482.496C470.086 482.496 469.582 479.364 469.582 474.36C469.582 469.392 470.05 466.368 473.002 466.368C475.774 466.368 476.278 469.428 476.278 474.288ZM464.218 474.504C464.218 480.12 467.242 483.36 472.93 483.36C478.69 483.36 481.642 480.012 481.642 474.252C481.642 468.312 478.618 465.504 473.074 465.504C467.566 465.504 464.218 468.672 464.218 474.504ZM483.161 465.864V466.8H485.501V482.064H483.161V483H492.701V482.064H490.577V472.704C490.577 469.572 492.557 467.196 494.717 467.196C496.265 467.196 496.805 468.132 496.805 470.976V482.064H494.717V483H504.257V482.064H501.881V471.516C501.881 467.16 499.757 465.504 496.445 465.504C492.881 465.504 491.369 467.304 490.577 469.104V465.864H483.161ZM505.274 456V456.936H507.614V482.064H505.274V483H514.814V482.064H512.69V472.56C512.69 469.464 514.634 467.088 516.902 467.088C518.342 467.088 518.918 467.952 518.918 470.976V482.064H516.83V483H526.37V482.064H523.994V471.516C523.994 467.16 521.87 465.504 518.522 465.504C514.994 465.504 513.446 467.304 512.69 469.068V456H505.274ZM547.101 483V482.064H544.725V465.864H537.453V466.8H539.649V476.844C539.649 479.58 537.921 481.776 535.905 481.776C534.213 481.776 533.745 480.732 533.745 477.888V465.864H526.293V466.8H528.669V477.348C528.669 481.704 530.829 483.36 534.177 483.36C537.489 483.36 539.001 481.74 539.757 480.084L540.045 483H547.101ZM550.034 459.996C550.034 461.292 550.646 462.768 552.95 462.768C554.93 462.768 555.83 461.58 555.83 459.996C555.83 458.124 554.714 457.26 552.986 457.26C550.934 457.26 550.034 458.556 550.034 459.996ZM548.27 465.864V466.8H550.682V482.064H548.342V483H558.134V482.064H555.758V465.864H548.27ZM560.318 474H569.066V471.912H560.318V474ZM582.42 466.98C582.888 466.98 583.392 467.124 583.392 467.808C583.392 468.024 583.356 468.276 583.212 468.6H582.096C582.024 468.96 581.988 469.32 581.988 469.644C581.988 471.516 583.068 472.308 584.508 472.308C586.056 472.308 587.1 471.3 587.1 469.248C587.1 466.908 585.588 465.504 583.392 465.504C581.304 465.504 579.54 466.656 578.784 469.212V465.864H571.368V466.8H573.708V482.064H571.368V483H581.988V482.064H578.784V473.172C578.784 469.932 580.476 466.98 582.42 466.98ZM600.169 474.288C600.169 479.904 599.665 482.496 596.893 482.496C593.977 482.496 593.473 479.364 593.473 474.36C593.473 469.392 593.941 466.368 596.893 466.368C599.665 466.368 600.169 469.428 600.169 474.288ZM588.109 474.504C588.109 480.12 591.133 483.36 596.821 483.36C602.581 483.36 605.533 480.012 605.533 474.252C605.533 468.312 602.509 465.504 596.965 465.504C591.457 465.504 588.109 468.672 588.109 474.504ZM618.794 459.06V481.956H614.834V483H627.398V481.956H624.158V457.404H622.106L614.402 458.448L614.546 459.456L618.794 459.06ZM633.49 459.06V481.956H629.53V483H642.094V481.956H638.854V457.404H636.802L629.098 458.448L629.242 459.456L633.49 459.06ZM658.733 471.372C658.733 469.284 657.833 467.88 656.465 466.872C656.429 466.548 656.429 466.26 656.429 465.936C656.429 463.488 657.293 462.552 658.121 462.552C658.733 462.552 659.057 462.876 659.129 463.452L658.265 464.46C658.481 464.964 659.165 465.576 660.137 465.576C661.325 465.576 662.117 464.568 662.117 463.488C662.117 461.976 660.965 461.004 659.417 461.004C656.573 461.004 655.313 463.632 655.493 466.332C654.413 465.756 653.189 465.504 651.893 465.504C646.817 465.504 644.585 468.312 644.585 471.588C644.585 474.288 645.665 476.088 648.149 476.952C645.809 478.608 644.657 479.652 644.657 481.308C644.657 482.82 645.773 484.188 649.193 484.188H653.261C656.969 484.188 658.157 484.944 658.157 486.96C658.157 489.372 655.961 491.064 651.785 491.064C647.933 491.064 646.817 489.552 646.817 487.86C646.817 487.284 646.889 486.636 647.177 485.952L645.593 485.088C644.369 485.412 642.893 486.096 642.893 487.968C642.893 490.488 645.449 492 651.065 492C658.373 492 661.037 489.12 661.037 485.196C661.037 480.516 657.473 479.616 653.333 479.616H649.049C647.609 479.616 647.249 479.436 647.249 479.076C647.249 478.716 647.861 478.104 649.157 477.24C649.913 477.384 650.885 477.528 651.857 477.528C656.033 477.528 658.733 475.26 658.733 471.372ZM649.337 471.588C649.337 467.268 650.273 466.368 651.785 466.368C653.297 466.368 654.053 467.34 654.053 471.552C654.053 475.728 653.225 476.556 651.749 476.556C650.165 476.556 649.337 475.62 649.337 471.588ZM669.51 474.396C664.65 474.396 661.518 475.368 661.518 479.076C661.518 482.46 664.038 483.36 666.666 483.36C668.97 483.36 670.482 482.496 671.274 480.804C671.634 482.496 672.966 483.36 675.378 483.36C678.186 483.36 679.374 481.992 679.554 478.032L678.726 477.96C678.474 480.84 678.006 481.416 677.286 481.416C676.602 481.416 676.17 480.912 676.17 479.4V472.308C676.17 467.088 674.19 465.504 669.186 465.504C665.082 465.504 662.31 466.98 662.31 469.788C662.31 471.372 663.102 472.416 664.83 472.416C666.306 472.416 667.422 471.516 667.422 470.004C667.422 469.428 667.314 468.96 667.134 468.492H666.162C666.09 468.24 666.054 467.988 666.054 467.772C666.054 466.8 667.062 466.368 668.322 466.368C670.518 466.368 671.13 467.844 671.13 471.768V474.396H669.51ZM668.502 481.812C667.314 481.812 666.774 481.092 666.774 478.968C666.774 476.556 667.71 475.296 670.302 475.296H671.13V478.284C671.13 480.516 669.798 481.812 668.502 481.812ZM681.22 474H689.968V471.912H681.22V474ZM707.354 471.372C707.354 469.284 706.454 467.88 705.086 466.872C705.05 466.548 705.05 466.26 705.05 465.936C705.05 463.488 705.914 462.552 706.742 462.552C707.354 462.552 707.678 462.876 707.75 463.452L706.886 464.46C707.102 464.964 707.786 465.576 708.758 465.576C709.946 465.576 710.738 464.568 710.738 463.488C710.738 461.976 709.586 461.004 708.038 461.004C705.194 461.004 703.934 463.632 704.114 466.332C703.034 465.756 701.81 465.504 700.514 465.504C695.438 465.504 693.206 468.312 693.206 471.588C693.206 474.288 694.286 476.088 696.77 476.952C694.43 478.608 693.278 479.652 693.278 481.308C693.278 482.82 694.394 484.188 697.814 484.188H701.882C705.59 484.188 706.778 484.944 706.778 486.96C706.778 489.372 704.582 491.064 700.406 491.064C696.554 491.064 695.438 489.552 695.438 487.86C695.438 487.284 695.51 486.636 695.798 485.952L694.214 485.088C692.99 485.412 691.514 486.096 691.514 487.968C691.514 490.488 694.07 492 699.686 492C706.994 492 709.658 489.12 709.658 485.196C709.658 480.516 706.094 479.616 701.954 479.616H697.67C696.23 479.616 695.87 479.436 695.87 479.076C695.87 478.716 696.482 478.104 697.778 477.24C698.534 477.384 699.506 477.528 700.478 477.528C704.654 477.528 707.354 475.26 707.354 471.372ZM697.958 471.588C697.958 467.268 698.894 466.368 700.406 466.368C701.918 466.368 702.674 467.34 702.674 471.552C702.674 475.728 701.846 476.556 700.37 476.556C698.786 476.556 697.958 475.62 697.958 471.588ZM712.386 459.996C712.386 461.292 712.998 462.768 715.302 462.768C717.282 462.768 718.182 461.58 718.182 459.996C718.182 458.124 717.066 457.26 715.338 457.26C713.286 457.26 712.386 458.556 712.386 459.996ZM710.622 465.864V466.8H713.034V482.064H710.694V483H720.486V482.064H718.11V465.864H710.622ZM721.59 456V456.936H724.002V482.064H721.662V483H731.418V482.064H729.042V456H721.59ZM735.186 488.616C738.282 486.24 739.578 484.188 739.578 481.56C739.578 479.436 738.534 477.672 736.302 477.672C734.754 477.672 733.566 478.716 733.566 480.372C733.566 481.776 734.646 482.676 735.51 482.964L736.914 481.668C737.418 481.74 737.778 482.172 737.778 483C737.778 484.152 737.274 485.52 734.61 487.932L735.186 488.616ZM759.45 482.244C755.202 482.244 752.646 479.04 751.242 474.972H750.45L750.81 483.36H751.494C751.782 482.676 751.962 482.28 752.43 482.28C753.474 482.28 755.886 483.36 759.306 483.36C764.598 483.36 767.838 479.94 767.838 475.044C767.838 469.284 763.626 468.06 759.702 467.016C756.282 466.08 753.69 465.18 753.69 462.408C753.69 460.176 755.49 458.52 758.442 458.52C762.402 458.52 764.238 461.184 765.678 465.072H766.47L766.218 457.8H765.606C765.39 458.268 765.246 458.52 764.706 458.52C763.59 458.52 761.79 457.404 758.766 457.404C753.438 457.404 750.738 461.148 750.738 465C750.738 470.004 753.618 471.444 757.902 472.596C762.402 473.856 764.886 474.612 764.886 477.888C764.886 480.624 762.438 482.244 759.45 482.244ZM770.359 474.54C770.359 479.76 773.059 483.36 778.999 483.36C783.859 483.36 785.695 480.912 786.415 477.888L785.443 477.744C784.723 480.444 783.103 482.064 780.367 482.064C776.695 482.064 775.723 479.364 775.723 474.684V473.712H786.379C786.595 468.312 784.219 465.504 779.251 465.504C774.247 465.504 770.359 468.276 770.359 474.54ZM775.723 472.74C775.831 468.024 776.839 466.368 778.855 466.368C781.015 466.368 781.483 468.168 781.411 472.74H775.723ZM800.384 474.288C800.384 479.904 799.88 482.496 797.108 482.496C794.192 482.496 793.688 479.364 793.688 474.36C793.688 469.392 794.156 466.368 797.108 466.368C799.88 466.368 800.384 469.428 800.384 474.288ZM788.324 474.504C788.324 480.12 791.348 483.36 797.036 483.36C802.796 483.36 805.748 480.012 805.748 474.252C805.748 468.312 802.724 465.504 797.18 465.504C791.672 465.504 788.324 468.672 788.324 474.504ZM816.086 481.776C813.71 481.776 813.098 479.832 813.098 474.504C813.098 469.032 813.926 466.728 816.374 466.728C818.498 466.728 819.794 468.924 819.794 470.868V477.384C819.794 480.228 817.85 481.776 816.086 481.776ZM820.118 483H827.174V482.064H824.834V456H816.914V456.936H819.686V467.628C818.894 466.332 817.454 465.504 815.078 465.504C810.47 465.504 807.734 468.528 807.734 474.54C807.734 480.48 810.326 483.36 814.466 483.36C817.274 483.36 818.822 482.244 819.794 480.408L820.118 483ZM836.643 474.396C831.783 474.396 828.651 475.368 828.651 479.076C828.651 482.46 831.171 483.36 833.799 483.36C836.103 483.36 837.615 482.496 838.407 480.804C838.767 482.496 840.099 483.36 842.511 483.36C845.319 483.36 846.507 481.992 846.687 478.032L845.859 477.96C845.607 480.84 845.139 481.416 844.419 481.416C843.735 481.416 843.303 480.912 843.303 479.4V472.308C843.303 467.088 841.323 465.504 836.319 465.504C832.215 465.504 829.443 466.98 829.443 469.788C829.443 471.372 830.235 472.416 831.963 472.416C833.439 472.416 834.555 471.516 834.555 470.004C834.555 469.428 834.447 468.96 834.267 468.492H833.295C833.223 468.24 833.187 467.988 833.187 467.772C833.187 466.8 834.195 466.368 835.455 466.368C837.651 466.368 838.263 467.844 838.263 471.768V474.396H836.643ZM835.635 481.812C834.447 481.812 833.907 481.092 833.907 478.968C833.907 476.556 834.843 475.296 837.435 475.296H838.263V478.284C838.263 480.516 836.931 481.812 835.635 481.812ZM847.738 474.54C847.738 479.76 850.438 483.36 856.378 483.36C861.238 483.36 863.074 480.912 863.794 477.888L862.822 477.744C862.102 480.444 860.482 482.064 857.746 482.064C854.074 482.064 853.102 479.364 853.102 474.684V473.712H863.758C863.974 468.312 861.598 465.504 856.63 465.504C851.626 465.504 847.738 468.276 847.738 474.54ZM853.102 472.74C853.21 468.024 854.218 466.368 856.234 466.368C858.394 466.368 858.862 468.168 858.79 472.74H853.102ZM865.415 465.864V466.8H867.755V482.064H865.415V483H874.847V482.064H872.831V472.632C872.831 469.5 874.559 467.124 876.611 467.124C877.943 467.124 878.447 467.88 878.447 470.832V482.064H876.467V483H885.539V482.064H883.523V472.488C883.523 469.32 885.251 467.124 887.267 467.124C888.635 467.124 889.139 467.88 889.139 470.76V482.064H887.159V483H896.591V482.064H894.215V471.516C894.215 467.088 892.055 465.504 888.995 465.504C885.647 465.504 884.063 467.556 883.307 469.392C882.695 466.62 880.895 465.504 878.267 465.504C874.883 465.504 873.551 467.376 872.831 469.104V465.864H865.415ZM917.297 483V482.064H914.921V465.864H907.649V466.8H909.845V476.844C909.845 479.58 908.117 481.776 906.101 481.776C904.409 481.776 903.941 480.732 903.941 477.888V465.864H896.489V466.8H898.865V477.348C898.865 481.704 901.025 483.36 904.373 483.36C907.685 483.36 909.197 481.74 909.953 480.084L910.241 483H917.297ZM918.466 465.864V466.8H920.806V482.064H918.466V483H928.006V482.064H925.882V472.704C925.882 469.572 927.862 467.196 930.022 467.196C931.57 467.196 932.11 468.132 932.11 470.976V482.064H930.022V483H939.562V482.064H937.186V471.516C937.186 467.16 935.062 465.504 931.75 465.504C928.186 465.504 926.674 467.304 925.882 469.104V465.864H918.466ZM941.517 474H950.265V471.912H941.517V474ZM967.651 471.372C967.651 469.284 966.751 467.88 965.383 466.872C965.347 466.548 965.347 466.26 965.347 465.936C965.347 463.488 966.211 462.552 967.039 462.552C967.651 462.552 967.975 462.876 968.047 463.452L967.183 464.46C967.399 464.964 968.083 465.576 969.055 465.576C970.243 465.576 971.035 464.568 971.035 463.488C971.035 461.976 969.883 461.004 968.335 461.004C965.491 461.004 964.231 463.632 964.411 466.332C963.331 465.756 962.107 465.504 960.811 465.504C955.735 465.504 953.503 468.312 953.503 471.588C953.503 474.288 954.583 476.088 957.067 476.952C954.727 478.608 953.575 479.652 953.575 481.308C953.575 482.82 954.691 484.188 958.111 484.188H962.179C965.887 484.188 967.075 484.944 967.075 486.96C967.075 489.372 964.879 491.064 960.703 491.064C956.851 491.064 955.735 489.552 955.735 487.86C955.735 487.284 955.807 486.636 956.095 485.952L954.511 485.088C953.287 485.412 951.811 486.096 951.811 487.968C951.811 490.488 954.367 492 959.983 492C967.291 492 969.955 489.12 969.955 485.196C969.955 480.516 966.391 479.616 962.251 479.616H957.967C956.527 479.616 956.167 479.436 956.167 479.076C956.167 478.716 956.779 478.104 958.075 477.24C958.831 477.384 959.803 477.528 960.775 477.528C964.951 477.528 967.651 475.26 967.651 471.372ZM958.255 471.588C958.255 467.268 959.191 466.368 960.703 466.368C962.215 466.368 962.971 467.34 962.971 471.552C962.971 475.728 962.143 476.556 960.667 476.556C959.083 476.556 958.255 475.62 958.255 471.588ZM991.441 483V482.064H989.065V465.864H981.793V466.8H983.989V476.844C983.989 479.58 982.261 481.776 980.245 481.776C978.553 481.776 978.085 480.732 978.085 477.888V465.864H970.633V466.8H973.009V477.348C973.009 481.704 975.169 483.36 978.517 483.36C981.829 483.36 983.341 481.74 984.097 480.084L984.385 483H991.441ZM995.166 488.616C998.262 486.24 999.558 484.188 999.558 481.56C999.558 479.436 998.514 477.672 996.282 477.672C994.734 477.672 993.546 478.716 993.546 480.372C993.546 481.776 994.626 482.676 995.49 482.964L996.894 481.668C997.398 481.74 997.758 482.172 997.758 483C997.758 484.152 997.254 485.52 994.59 487.932L995.166 488.616ZM1019.43 482.244C1015.18 482.244 1012.63 479.04 1011.22 474.972H1010.43L1010.79 483.36H1011.47C1011.76 482.676 1011.94 482.28 1012.41 482.28C1013.45 482.28 1015.87 483.36 1019.29 483.36C1024.58 483.36 1027.82 479.94 1027.82 475.044C1027.82 469.284 1023.61 468.06 1019.68 467.016C1016.26 466.08 1013.67 465.18 1013.67 462.408C1013.67 460.176 1015.47 458.52 1018.42 458.52C1022.38 458.52 1024.22 461.184 1025.66 465.072H1026.45L1026.2 457.8H1025.59C1025.37 458.268 1025.23 458.52 1024.69 458.52C1023.57 458.52 1021.77 457.404 1018.75 457.404C1013.42 457.404 1010.72 461.148 1010.72 465C1010.72 470.004 1013.6 471.444 1017.88 472.596C1022.38 473.856 1024.87 474.612 1024.87 477.888C1024.87 480.624 1022.42 482.244 1019.43 482.244ZM1030.34 474.54C1030.34 479.76 1033.04 483.36 1038.98 483.36C1043.84 483.36 1045.68 480.912 1046.4 477.888L1045.42 477.744C1044.7 480.444 1043.08 482.064 1040.35 482.064C1036.68 482.064 1035.7 479.364 1035.7 474.684V473.712H1046.36C1046.58 468.312 1044.2 465.504 1039.23 465.504C1034.23 465.504 1030.34 468.276 1030.34 474.54ZM1035.7 472.74C1035.81 468.024 1036.82 466.368 1038.84 466.368C1041 466.368 1041.46 468.168 1041.39 472.74H1035.7ZM1060.36 474.288C1060.36 479.904 1059.86 482.496 1057.09 482.496C1054.17 482.496 1053.67 479.364 1053.67 474.36C1053.67 469.392 1054.14 466.368 1057.09 466.368C1059.86 466.368 1060.36 469.428 1060.36 474.288ZM1048.3 474.504C1048.3 480.12 1051.33 483.36 1057.02 483.36C1062.78 483.36 1065.73 480.012 1065.73 474.252C1065.73 468.312 1062.7 465.504 1057.16 465.504C1051.65 465.504 1048.3 468.672 1048.3 474.504ZM1087.77 483V482.064H1085.39V465.864H1078.12V466.8H1080.32V476.844C1080.32 479.58 1078.59 481.776 1076.57 481.776C1074.88 481.776 1074.41 480.732 1074.41 477.888V465.864H1066.96V466.8H1069.34V477.348C1069.34 481.704 1071.5 483.36 1074.85 483.36C1078.16 483.36 1079.67 481.74 1080.43 480.084L1080.71 483H1087.77ZM1088.9 456V456.936H1091.31V482.064H1088.97V483H1098.73V482.064H1096.35V456H1088.9ZM1102.5 488.616C1105.59 486.24 1106.89 484.188 1106.89 481.56C1106.89 479.436 1105.85 477.672 1103.61 477.672C1102.07 477.672 1100.88 478.716 1100.88 480.372C1100.88 481.776 1101.96 482.676 1102.82 482.964L1104.23 481.668C1104.73 481.74 1105.09 482.172 1105.09 483C1105.09 484.152 1104.59 485.52 1101.92 487.932L1102.5 488.616ZM581.072 510.544C583.736 510.544 584.636 511.84 584.636 514.18V517.888C584.636 521.884 585.752 523.36 589.604 523.36C593.096 523.36 593.636 521.308 594.104 518.284L593.276 518.104C592.772 520.66 592.52 521.344 591.548 521.344C590.36 521.344 590.252 520.444 590.252 518.608V516.16C590.252 511.984 588.596 510.508 584.456 510.004V509.896C588.488 509.572 591.08 508.168 591.08 503.812C591.08 498.592 587.048 497.8 580.532 497.8H570.812V498.844H573.512V521.956H570.812V523H581.972V521.956H578.912V510.544H581.072ZM578.912 498.844H579.992C583.52 498.844 585.284 499.636 585.284 503.812C585.284 507.988 583.592 509.5 579.884 509.5H578.912V498.844ZM595.421 514.54C595.421 519.76 598.121 523.36 604.061 523.36C608.921 523.36 610.757 520.912 611.477 517.888L610.505 517.744C609.785 520.444 608.165 522.064 605.429 522.064C601.757 522.064 600.785 519.364 600.785 514.684V513.712H611.441C611.657 508.312 609.281 505.504 604.313 505.504C599.309 505.504 595.421 508.276 595.421 514.54ZM600.785 512.74C600.893 508.024 601.901 506.368 603.917 506.368C606.077 506.368 606.545 508.168 606.473 512.74H600.785ZM624.116 507.052C626.456 507.052 627.032 509.032 627.032 514.432C627.032 520.084 626.348 522.172 623.9 522.172C621.56 522.172 620.3 519.976 620.3 517.888V512.128C620.3 509.032 622.244 507.052 624.116 507.052ZM620.3 505.864H612.884V506.8H615.296V530.632H612.74V531.568H624.98V530.632H620.336V521.308C621.164 522.568 622.496 523.36 624.98 523.36C629.732 523.36 632.36 520.408 632.36 514.36C632.36 508.384 629.84 505.504 625.7 505.504C622.892 505.504 621.308 506.8 620.3 508.6V505.864ZM654.574 523V522.064H652.198V505.864H644.926V506.8H647.122V516.844C647.122 519.58 645.394 521.776 643.378 521.776C641.686 521.776 641.218 520.732 641.218 517.888V505.864H633.766V506.8H636.142V517.348C636.142 521.704 638.302 523.36 641.65 523.36C644.962 523.36 646.474 521.74 647.23 520.084L647.518 523H654.574ZM666.233 507.052C668.429 507.052 669.005 509.104 669.005 514.36C669.005 520.048 668.249 522.172 665.873 522.172C663.533 522.172 662.273 520.192 662.273 517.888V512.128C662.273 509.032 664.181 507.052 666.233 507.052ZM662.309 496H654.857V496.936H657.269V523.216H659.357L661.625 520.876C662.705 522.64 664.217 523.36 666.701 523.36C671.705 523.36 674.369 520.48 674.369 514.396C674.369 508.384 671.849 505.504 667.709 505.504C664.901 505.504 663.317 506.8 662.309 508.6V496ZM676.027 496V496.936H678.439V522.064H676.099V523H685.855V522.064H683.479V496H676.027ZM688.831 499.996C688.831 501.292 689.443 502.768 691.747 502.768C693.727 502.768 694.627 501.58 694.627 499.996C694.627 498.124 693.511 497.26 691.783 497.26C689.731 497.26 688.831 498.556 688.831 499.996ZM687.067 505.864V506.8H689.479V522.064H687.139V523H696.931V522.064H694.555V505.864H687.067ZM707.719 506.368C709.267 506.368 709.987 507.124 709.987 508.132C709.987 508.456 709.915 508.816 709.807 509.176H708.691C708.547 509.68 708.511 510.148 708.511 510.472C708.511 512.2 709.627 513.1 711.175 513.1C712.723 513.1 713.767 512.092 713.767 510.076C713.767 507.304 711.571 505.504 707.467 505.504C701.959 505.504 698.359 508.6 698.359 514.72C698.359 520.264 701.311 523.36 706.603 523.36C712.291 523.36 713.443 519.724 713.875 517.492L712.867 517.348C712.471 519.4 711.319 521.992 708.007 521.992C704.911 521.992 703.723 519.832 703.723 514.432C703.723 508.456 704.947 506.368 707.719 506.368ZM734.853 514.288C734.853 519.904 734.349 522.496 731.577 522.496C728.661 522.496 728.157 519.364 728.157 514.36C728.157 509.392 728.625 506.368 731.577 506.368C734.349 506.368 734.853 509.428 734.853 514.288ZM722.793 514.504C722.793 520.12 725.817 523.36 731.505 523.36C737.265 523.36 740.217 520.012 740.217 514.252C740.217 508.312 737.193 505.504 731.649 505.504C726.141 505.504 722.793 508.672 722.793 514.504ZM751.815 496.036C752.859 496.036 753.507 496.468 753.507 497.332C753.507 497.584 753.471 497.872 753.363 498.232H752.211C752.067 498.664 751.995 499.168 751.995 499.636C751.995 501.004 752.859 501.868 754.443 501.868C755.955 501.868 756.999 500.932 756.999 499.096C756.999 497.008 755.307 495.172 751.779 495.172C746.163 495.172 744.111 498.844 744.111 504.748V505.864H741.663V506.8H744.111V522.064H741.771V523H753.543V522.064H749.151V506.8H753.759V505.864H749.151V500.572C749.151 497.908 749.511 496.036 751.815 496.036ZM762.387 497.8V498.844H764.727V521.956H762.387V523H772.467V521.956H770.127V511.264L771.099 511.048L777.687 521.956H775.563V523H786.003V521.956H783.915L775.059 506.98L781.863 498.844H784.203V497.8H777.399V498.844H780.171L770.955 509.68L770.127 509.896V498.844H772.467V497.8H762.387ZM798.204 514.288C798.204 519.904 797.7 522.496 794.928 522.496C792.012 522.496 791.508 519.364 791.508 514.36C791.508 509.392 791.976 506.368 794.928 506.368C797.7 506.368 798.204 509.428 798.204 514.288ZM786.144 514.504C786.144 520.12 789.168 523.36 794.856 523.36C800.616 523.36 803.568 520.012 803.568 514.252C803.568 508.312 800.544 505.504 795 505.504C789.492 505.504 786.144 508.672 786.144 514.504ZM816.139 506.98C816.607 506.98 817.111 507.124 817.111 507.808C817.111 508.024 817.075 508.276 816.931 508.6H815.815C815.743 508.96 815.707 509.32 815.707 509.644C815.707 511.516 816.787 512.308 818.227 512.308C819.775 512.308 820.819 511.3 820.819 509.248C820.819 506.908 819.307 505.504 817.111 505.504C815.023 505.504 813.259 506.656 812.503 509.212V505.864H805.087V506.8H807.427V522.064H805.087V523H815.707V522.064H812.503V513.172C812.503 509.932 814.195 506.98 816.139 506.98ZM821.828 514.54C821.828 519.76 824.528 523.36 830.468 523.36C835.328 523.36 837.164 520.912 837.884 517.888L836.912 517.744C836.192 520.444 834.572 522.064 831.836 522.064C828.164 522.064 827.192 519.364 827.192 514.684V513.712H837.848C838.064 508.312 835.688 505.504 830.72 505.504C825.716 505.504 821.828 508.276 821.828 514.54ZM827.192 512.74C827.3 508.024 828.308 506.368 830.324 506.368C832.484 506.368 832.952 508.168 832.88 512.74H827.192ZM847.893 514.396C843.033 514.396 839.901 515.368 839.901 519.076C839.901 522.46 842.421 523.36 845.049 523.36C847.353 523.36 848.865 522.496 849.657 520.804C850.017 522.496 851.349 523.36 853.761 523.36C856.569 523.36 857.757 521.992 857.937 518.032L857.109 517.96C856.857 520.84 856.389 521.416 855.669 521.416C854.985 521.416 854.553 520.912 854.553 519.4V512.308C854.553 507.088 852.573 505.504 847.569 505.504C843.465 505.504 840.693 506.98 840.693 509.788C840.693 511.372 841.485 512.416 843.213 512.416C844.689 512.416 845.805 511.516 845.805 510.004C845.805 509.428 845.697 508.96 845.517 508.492H844.545C844.473 508.24 844.437 507.988 844.437 507.772C844.437 506.8 845.445 506.368 846.705 506.368C848.901 506.368 849.513 507.844 849.513 511.768V514.396H847.893ZM846.885 521.812C845.697 521.812 845.157 521.092 845.157 518.968C845.157 516.556 846.093 515.296 848.685 515.296H849.513V518.284C849.513 520.516 848.181 521.812 846.885 521.812ZM707.977 566.492H709.453L720.037 534.38H718.597L707.977 566.492ZM325.766 603H341.786L342.074 594.648H341.282C340.742 597.42 339.95 598.752 336.53 598.752H328.862C339.878 589.32 341.642 587.304 341.642 583.524C341.642 579.744 339.014 577.404 333.65 577.404C328.754 577.404 325.694 579.6 325.694 583.056C325.694 584.748 326.594 586.044 328.394 586.044C329.906 586.044 331.058 585.144 331.058 583.704C331.058 583.056 330.95 582.516 330.77 582.012H329.726C329.582 581.652 329.51 581.256 329.51 580.932C329.51 579.528 330.806 578.52 332.786 578.52C335.486 578.52 336.386 579.852 336.386 583.272C336.386 587.592 334.946 590.436 330.338 595.26L325.766 600.12V603ZM350.333 603H361.385V601.956H358.901V596.556H362.177V599.22H363.149V592.56H362.177V595.368H358.901V577.8H354.149L343.745 595.548V596.556H353.717V601.956H350.333V603ZM345.257 595.368L353.717 580.824V595.368H345.257ZM366.858 599.364C366.858 602.028 368.91 603.648 372.222 603.252L372.87 602.424C372.294 601.488 371.898 600.624 371.898 599.148C371.898 597.06 372.294 594.036 377.226 585.216L379.962 580.32V577.8H364.05L363.726 585.576H364.554C365.166 582.408 365.67 581.94 369.054 581.94H377.622L373.878 586.62C367.686 594.36 366.858 596.916 366.858 599.364ZM380.055 608.616C383.151 606.24 384.447 604.188 384.447 601.56C384.447 599.436 383.403 597.672 381.171 597.672C379.623 597.672 378.435 598.716 378.435 600.372C378.435 601.776 379.515 602.676 380.379 602.964L381.783 601.668C382.287 601.74 382.647 602.172 382.647 603C382.647 604.152 382.143 605.52 379.479 607.932L380.055 608.616ZM394.491 577.8V578.844H396.975V601.956H394.491V603H404.859V601.956H402.375V590.796H411.555V601.956H409.071V603H419.439V601.956H416.955V578.844H419.439V577.8H409.071V578.844H411.555V589.5H402.375V578.844H404.859V577.8H394.491ZM429.48 594.396C424.62 594.396 421.488 595.368 421.488 599.076C421.488 602.46 424.008 603.36 426.636 603.36C428.94 603.36 430.452 602.496 431.244 600.804C431.604 602.496 432.936 603.36 435.348 603.36C438.156 603.36 439.344 601.992 439.524 598.032L438.696 597.96C438.444 600.84 437.976 601.416 437.256 601.416C436.572 601.416 436.14 600.912 436.14 599.4V592.308C436.14 587.088 434.16 585.504 429.156 585.504C425.052 585.504 422.28 586.98 422.28 589.788C422.28 591.372 423.072 592.416 424.8 592.416C426.276 592.416 427.392 591.516 427.392 590.004C427.392 589.428 427.284 588.96 427.104 588.492H426.132C426.06 588.24 426.024 587.988 426.024 587.772C426.024 586.8 427.032 586.368 428.292 586.368C430.488 586.368 431.1 587.844 431.1 591.768V594.396H429.48ZM428.472 601.812C427.284 601.812 426.744 601.092 426.744 598.968C426.744 596.556 427.68 595.296 430.272 595.296H431.1V598.284C431.1 600.516 429.768 601.812 428.472 601.812ZM440.576 594.54C440.576 599.76 443.276 603.36 449.216 603.36C454.076 603.36 455.912 600.912 456.632 597.888L455.66 597.744C454.94 600.444 453.32 602.064 450.584 602.064C446.912 602.064 445.94 599.364 445.94 594.684V593.712H456.596C456.812 588.312 454.436 585.504 449.468 585.504C444.464 585.504 440.576 588.276 440.576 594.54ZM445.94 592.74C446.048 588.024 447.056 586.368 449.072 586.368C451.232 586.368 451.7 588.168 451.628 592.74H445.94ZM457.222 586.8H458.806L465.214 603H466.654L465.898 605.232C464.602 608.94 463.594 610.956 461.686 610.956C460.822 610.956 460.39 610.596 460.39 610.056C460.39 609.804 460.462 609.516 460.606 609.228H461.794C461.938 608.724 462.01 608.292 462.01 607.932C462.01 606.456 461.038 605.808 459.634 605.808C458.158 605.808 457.114 606.816 457.114 608.616C457.114 610.452 458.446 612 461.146 612C463.99 612 465.214 610.56 466.942 605.916L473.998 586.8H475.762V585.864H470.182V586.8H472.666L468.418 598.68L464.17 586.8H466.582V585.864H457.222V586.8ZM483.938 594.396C479.078 594.396 475.946 595.368 475.946 599.076C475.946 602.46 478.466 603.36 481.094 603.36C483.398 603.36 484.91 602.496 485.702 600.804C486.062 602.496 487.394 603.36 489.806 603.36C492.614 603.36 493.802 601.992 493.982 598.032L493.154 597.96C492.902 600.84 492.434 601.416 491.714 601.416C491.03 601.416 490.598 600.912 490.598 599.4V592.308C490.598 587.088 488.618 585.504 483.614 585.504C479.51 585.504 476.738 586.98 476.738 589.788C476.738 591.372 477.53 592.416 479.258 592.416C480.734 592.416 481.85 591.516 481.85 590.004C481.85 589.428 481.742 588.96 481.562 588.492H480.59C480.518 588.24 480.482 587.988 480.482 587.772C480.482 586.8 481.49 586.368 482.75 586.368C484.946 586.368 485.558 587.844 485.558 591.768V594.396H483.938ZM482.93 601.812C481.742 601.812 481.202 601.092 481.202 598.968C481.202 596.556 482.138 595.296 484.73 595.296H485.558V598.284C485.558 600.516 484.226 601.812 482.93 601.812ZM494.745 585.864V586.8H497.085V602.064H494.745V603H504.285V602.064H502.161V592.704C502.161 589.572 504.141 587.196 506.301 587.196C507.849 587.196 508.389 588.132 508.389 590.976V602.064H506.301V603H515.841V602.064H513.465V591.516C513.465 587.16 511.341 585.504 508.029 585.504C504.465 585.504 502.953 587.304 502.161 589.104V585.864H494.745ZM531.942 591.372C531.942 589.284 531.042 587.88 529.674 586.872C529.638 586.548 529.638 586.26 529.638 585.936C529.638 583.488 530.502 582.552 531.33 582.552C531.942 582.552 532.266 582.876 532.338 583.452L531.474 584.46C531.69 584.964 532.374 585.576 533.346 585.576C534.534 585.576 535.326 584.568 535.326 583.488C535.326 581.976 534.174 581.004 532.626 581.004C529.782 581.004 528.522 583.632 528.702 586.332C527.622 585.756 526.398 585.504 525.102 585.504C520.026 585.504 517.794 588.312 517.794 591.588C517.794 594.288 518.874 596.088 521.358 596.952C519.018 598.608 517.866 599.652 517.866 601.308C517.866 602.82 518.982 604.188 522.402 604.188H526.47C530.178 604.188 531.366 604.944 531.366 606.96C531.366 609.372 529.17 611.064 524.994 611.064C521.142 611.064 520.026 609.552 520.026 607.86C520.026 607.284 520.098 606.636 520.386 605.952L518.802 605.088C517.578 605.412 516.102 606.096 516.102 607.968C516.102 610.488 518.658 612 524.274 612C531.582 612 534.246 609.12 534.246 605.196C534.246 600.516 530.682 599.616 526.542 599.616H522.258C520.818 599.616 520.458 599.436 520.458 599.076C520.458 598.716 521.07 598.104 522.366 597.24C523.122 597.384 524.094 597.528 525.066 597.528C529.242 597.528 531.942 595.26 531.942 591.372ZM522.546 591.588C522.546 587.268 523.482 586.368 524.994 586.368C526.506 586.368 527.262 587.34 527.262 591.552C527.262 595.728 526.434 596.556 524.958 596.556C523.374 596.556 522.546 595.62 522.546 591.588ZM535.797 594H544.545V591.912H535.797V594ZM557.898 586.98C558.366 586.98 558.87 587.124 558.87 587.808C558.87 588.024 558.834 588.276 558.69 588.6H557.574C557.502 588.96 557.466 589.32 557.466 589.644C557.466 591.516 558.546 592.308 559.986 592.308C561.534 592.308 562.578 591.3 562.578 589.248C562.578 586.908 561.066 585.504 558.87 585.504C556.782 585.504 555.018 586.656 554.262 589.212V585.864H546.846V586.8H549.186V602.064H546.846V603H557.466V602.064H554.262V593.172C554.262 589.932 555.954 586.98 557.898 586.98ZM575.648 594.288C575.648 599.904 575.144 602.496 572.372 602.496C569.456 602.496 568.952 599.364 568.952 594.36C568.952 589.392 569.42 586.368 572.372 586.368C575.144 586.368 575.648 589.428 575.648 594.288ZM563.588 594.504C563.588 600.12 566.612 603.36 572.3 603.36C578.06 603.36 581.012 600.012 581.012 594.252C581.012 588.312 577.988 585.504 572.444 585.504C566.936 585.504 563.588 588.672 563.588 594.504ZM584.488 608.616C587.584 606.24 588.88 604.188 588.88 601.56C588.88 599.436 587.836 597.672 585.604 597.672C584.056 597.672 582.868 598.716 582.868 600.372C582.868 601.776 583.948 602.676 584.812 602.964L586.216 601.668C586.72 601.74 587.08 602.172 587.08 603C587.08 604.152 586.576 605.52 583.912 607.932L584.488 608.616ZM611.057 589.68L605.945 578.844H608.717V577.8H597.917V578.844H600.077L606.377 591.228V601.956H603.749V603H614.405V601.956H611.777V590.868L617.717 578.844H620.201V577.8H612.929V578.844H616.385L611.057 589.68ZM617.623 594.54C617.623 599.76 620.323 603.36 626.263 603.36C631.123 603.36 632.959 600.912 633.679 597.888L632.707 597.744C631.987 600.444 630.367 602.064 627.631 602.064C623.959 602.064 622.987 599.364 622.987 594.684V593.712H633.643C633.859 588.312 631.483 585.504 626.515 585.504C621.511 585.504 617.623 588.276 617.623 594.54ZM622.987 592.74C623.095 588.024 624.103 586.368 626.119 586.368C628.279 586.368 628.747 588.168 628.675 592.74H622.987ZM647.648 594.288C647.648 599.904 647.144 602.496 644.372 602.496C641.456 602.496 640.952 599.364 640.952 594.36C640.952 589.392 641.42 586.368 644.372 586.368C647.144 586.368 647.648 589.428 647.648 594.288ZM635.588 594.504C635.588 600.12 638.612 603.36 644.3 603.36C650.06 603.36 653.012 600.012 653.012 594.252C653.012 588.312 649.988 585.504 644.444 585.504C638.936 585.504 635.588 588.672 635.588 594.504ZM654.53 585.864V586.8H656.87V602.064H654.53V603H664.07V602.064H661.946V592.704C661.946 589.572 663.926 587.196 666.086 587.196C667.634 587.196 668.174 588.132 668.174 590.976V602.064H666.086V603H675.626V602.064H673.25V591.516C673.25 587.16 671.126 585.504 667.814 585.504C664.25 585.504 662.738 587.304 661.946 589.104V585.864H654.53ZM691.727 591.372C691.727 589.284 690.827 587.88 689.459 586.872C689.423 586.548 689.423 586.26 689.423 585.936C689.423 583.488 690.287 582.552 691.115 582.552C691.727 582.552 692.051 582.876 692.123 583.452L691.259 584.46C691.475 584.964 692.159 585.576 693.131 585.576C694.319 585.576 695.111 584.568 695.111 583.488C695.111 581.976 693.959 581.004 692.411 581.004C689.567 581.004 688.307 583.632 688.487 586.332C687.407 585.756 686.183 585.504 684.887 585.504C679.811 585.504 677.579 588.312 677.579 591.588C677.579 594.288 678.659 596.088 681.143 596.952C678.803 598.608 677.651 599.652 677.651 601.308C677.651 602.82 678.767 604.188 682.187 604.188H686.255C689.963 604.188 691.151 604.944 691.151 606.96C691.151 609.372 688.955 611.064 684.779 611.064C680.927 611.064 679.811 609.552 679.811 607.86C679.811 607.284 679.883 606.636 680.171 605.952L678.587 605.088C677.363 605.412 675.887 606.096 675.887 607.968C675.887 610.488 678.443 612 684.059 612C691.367 612 694.031 609.12 694.031 605.196C694.031 600.516 690.467 599.616 686.327 599.616H682.043C680.603 599.616 680.243 599.436 680.243 599.076C680.243 598.716 680.855 598.104 682.151 597.24C682.907 597.384 683.879 597.528 684.851 597.528C689.027 597.528 691.727 595.26 691.727 591.372ZM682.331 591.588C682.331 587.268 683.267 586.368 684.779 586.368C686.291 586.368 687.047 587.34 687.047 591.552C687.047 595.728 686.219 596.556 684.743 596.556C683.159 596.556 682.331 595.62 682.331 591.588ZM702.83 601.776C700.454 601.776 699.842 599.832 699.842 594.504C699.842 589.032 700.67 586.728 703.118 586.728C705.242 586.728 706.538 588.924 706.538 590.868V597.384C706.538 600.228 704.594 601.776 702.83 601.776ZM706.862 603H713.918V602.064H711.578V576H703.658V576.936H706.43V587.628C705.638 586.332 704.198 585.504 701.822 585.504C697.214 585.504 694.478 588.528 694.478 594.54C694.478 600.48 697.07 603.36 701.21 603.36C704.018 603.36 705.566 602.244 706.538 600.408L706.862 603ZM727.101 594.288C727.101 599.904 726.597 602.496 723.825 602.496C720.909 602.496 720.405 599.364 720.405 594.36C720.405 589.392 720.873 586.368 723.825 586.368C726.597 586.368 727.101 589.428 727.101 594.288ZM715.041 594.504C715.041 600.12 718.065 603.36 723.753 603.36C729.513 603.36 732.465 600.012 732.465 594.252C732.465 588.312 729.441 585.504 723.897 585.504C718.389 585.504 715.041 588.672 715.041 594.504ZM735.027 594H743.775V591.912H735.027V594ZM761.161 591.372C761.161 589.284 760.261 587.88 758.893 586.872C758.857 586.548 758.857 586.26 758.857 585.936C758.857 583.488 759.721 582.552 760.549 582.552C761.161 582.552 761.485 582.876 761.557 583.452L760.693 584.46C760.909 584.964 761.593 585.576 762.565 585.576C763.753 585.576 764.545 584.568 764.545 583.488C764.545 581.976 763.393 581.004 761.845 581.004C759.001 581.004 757.741 583.632 757.921 586.332C756.841 585.756 755.617 585.504 754.321 585.504C749.245 585.504 747.013 588.312 747.013 591.588C747.013 594.288 748.093 596.088 750.577 596.952C748.237 598.608 747.085 599.652 747.085 601.308C747.085 602.82 748.201 604.188 751.621 604.188H755.689C759.397 604.188 760.585 604.944 760.585 606.96C760.585 609.372 758.389 611.064 754.213 611.064C750.361 611.064 749.245 609.552 749.245 607.86C749.245 607.284 749.317 606.636 749.605 605.952L748.021 605.088C746.797 605.412 745.321 606.096 745.321 607.968C745.321 610.488 747.877 612 753.493 612C760.801 612 763.465 609.12 763.465 605.196C763.465 600.516 759.901 599.616 755.761 599.616H751.477C750.037 599.616 749.677 599.436 749.677 599.076C749.677 598.716 750.289 598.104 751.585 597.24C752.341 597.384 753.313 597.528 754.285 597.528C758.461 597.528 761.161 595.26 761.161 591.372ZM751.765 591.588C751.765 587.268 752.701 586.368 754.213 586.368C755.725 586.368 756.481 587.34 756.481 591.552C756.481 595.728 755.653 596.556 754.177 596.556C752.593 596.556 751.765 595.62 751.765 591.588ZM784.951 603V602.064H782.575V585.864H775.303V586.8H777.499V596.844C777.499 599.58 775.771 601.776 773.755 601.776C772.063 601.776 771.595 600.732 771.595 597.888V585.864H764.143V586.8H766.519V597.348C766.519 601.704 768.679 603.36 772.027 603.36C775.339 603.36 776.851 601.74 777.607 600.084L777.895 603H784.951ZM788.676 608.616C791.772 606.24 793.068 604.188 793.068 601.56C793.068 599.436 792.024 597.672 789.792 597.672C788.244 597.672 787.056 598.716 787.056 600.372C787.056 601.776 788.136 602.676 789 602.964L790.404 601.668C790.908 601.74 791.268 602.172 791.268 603C791.268 604.152 790.764 605.52 788.1 607.932L788.676 608.616ZM803.004 577.8V578.844H805.704V601.956H803.004V603H812.328C818.952 603 823.704 601.56 823.704 595.908C823.704 592.308 821.076 590.256 816.756 589.68V589.608C820.428 588.996 822.444 587.124 822.444 583.776C822.444 579.24 818.664 577.8 812.508 577.8H803.004ZM811.104 590.436H812.472C816.648 590.436 817.908 592.128 817.908 596.016C817.908 600.156 816.72 601.956 812.796 601.956H811.104V590.436ZM811.104 578.844H812.256C815.784 578.844 816.936 580.068 816.936 583.848C816.936 587.7 815.82 589.356 812.04 589.356H811.104V578.844ZM845.631 603V602.064H843.255V585.864H835.983V586.8H838.179V596.844C838.179 599.58 836.451 601.776 834.435 601.776C832.743 601.776 832.275 600.732 832.275 597.888V585.864H824.823V586.8H827.199V597.348C827.199 601.704 829.359 603.36 832.707 603.36C836.019 603.36 837.531 601.74 838.287 600.084L838.575 603H845.631ZM847.628 603.36H848.384C848.708 602.244 848.924 601.956 849.32 601.956C849.464 601.956 849.716 602.1 849.932 602.244C851.228 602.928 852.596 603.36 854.468 603.36C858.536 603.36 860.984 601.164 860.984 597.492C860.984 593.244 857.816 592.344 854.972 591.66C852.56 591.12 850.472 590.724 850.472 588.816C850.472 587.376 851.768 586.512 854 586.512C856.52 586.512 858.212 587.88 859.184 590.868H859.976V585.432H859.256C859.112 586.26 858.968 586.62 858.536 586.62C858.176 586.62 857.852 586.476 857.528 586.332C856.484 585.864 855.476 585.504 853.928 585.504C850.22 585.504 847.772 587.916 847.772 591.264C847.772 595.152 850.976 595.98 853.856 596.628C856.448 597.24 858.356 597.6 858.356 599.58C858.356 601.128 857.24 602.208 854.468 602.208C851.552 602.208 849.248 600.876 848.456 597.132H847.628V603.36ZM870.867 594.396C866.007 594.396 862.875 595.368 862.875 599.076C862.875 602.46 865.395 603.36 868.023 603.36C870.327 603.36 871.839 602.496 872.631 600.804C872.991 602.496 874.323 603.36 876.735 603.36C879.543 603.36 880.731 601.992 880.911 598.032L880.083 597.96C879.831 600.84 879.363 601.416 878.643 601.416C877.959 601.416 877.527 600.912 877.527 599.4V592.308C877.527 587.088 875.547 585.504 870.543 585.504C866.439 585.504 863.667 586.98 863.667 589.788C863.667 591.372 864.459 592.416 866.187 592.416C867.663 592.416 868.779 591.516 868.779 590.004C868.779 589.428 868.671 588.96 868.491 588.492H867.519C867.447 588.24 867.411 587.988 867.411 587.772C867.411 586.8 868.419 586.368 869.679 586.368C871.875 586.368 872.487 587.844 872.487 591.768V594.396H870.867ZM869.859 601.812C868.671 601.812 868.131 601.092 868.131 598.968C868.131 596.556 869.067 595.296 871.659 595.296H872.487V598.284C872.487 600.516 871.155 601.812 869.859 601.812ZM881.675 585.864V586.8H884.015V602.064H881.675V603H891.215V602.064H889.091V592.704C889.091 589.572 891.071 587.196 893.231 587.196C894.779 587.196 895.319 588.132 895.319 590.976V602.064H893.231V603H902.771V602.064H900.395V591.516C900.395 587.16 898.271 585.504 894.959 585.504C891.395 585.504 889.883 587.304 889.091 589.104V585.864H881.675ZM906.238 608.616C909.334 606.24 910.63 604.188 910.63 601.56C910.63 599.436 909.586 597.672 907.354 597.672C905.806 597.672 904.618 598.716 904.618 600.372C904.618 601.776 905.698 602.676 906.562 602.964L907.966 601.668C908.47 601.74 908.83 602.172 908.83 603C908.83 604.152 908.326 605.52 905.662 607.932L906.238 608.616ZM930.719 590.544C933.383 590.544 934.283 591.84 934.283 594.18V597.888C934.283 601.884 935.399 603.36 939.251 603.36C942.743 603.36 943.283 601.308 943.751 598.284L942.923 598.104C942.419 600.66 942.167 601.344 941.195 601.344C940.007 601.344 939.899 600.444 939.899 598.608V596.16C939.899 591.984 938.243 590.508 934.103 590.004V589.896C938.135 589.572 940.727 588.168 940.727 583.812C940.727 578.592 936.695 577.8 930.179 577.8H920.459V578.844H923.159V601.956H920.459V603H931.619V601.956H928.559V590.544H930.719ZM928.559 578.844H929.639C933.167 578.844 934.931 579.636 934.931 583.812C934.931 587.988 933.239 589.5 929.531 589.5H928.559V578.844ZM945.068 594.54C945.068 599.76 947.768 603.36 953.708 603.36C958.568 603.36 960.404 600.912 961.124 597.888L960.152 597.744C959.432 600.444 957.812 602.064 955.076 602.064C951.404 602.064 950.432 599.364 950.432 594.684V593.712H961.088C961.304 588.312 958.928 585.504 953.96 585.504C948.956 585.504 945.068 588.276 945.068 594.54ZM950.432 592.74C950.54 588.024 951.548 586.368 953.564 586.368C955.724 586.368 956.192 588.168 956.12 592.74H950.432ZM973.763 587.052C976.103 587.052 976.679 589.032 976.679 594.432C976.679 600.084 975.995 602.172 973.547 602.172C971.207 602.172 969.947 599.976 969.947 597.888V592.128C969.947 589.032 971.891 587.052 973.763 587.052ZM969.947 585.864H962.531V586.8H964.943V610.632H962.387V611.568H974.627V610.632H969.983V601.308C970.811 602.568 972.143 603.36 974.627 603.36C979.379 603.36 982.007 600.408 982.007 594.36C982.007 588.384 979.487 585.504 975.347 585.504C972.539 585.504 970.955 586.8 969.947 588.6V585.864ZM1004.22 603V602.064H1001.84V585.864H994.572V586.8H996.768V596.844C996.768 599.58 995.04 601.776 993.024 601.776C991.332 601.776 990.864 600.732 990.864 597.888V585.864H983.412V586.8H985.788V597.348C985.788 601.704 987.948 603.36 991.296 603.36C994.608 603.36 996.12 601.74 996.876 600.084L997.164 603H1004.22ZM1015.88 587.052C1018.08 587.052 1018.65 589.104 1018.65 594.36C1018.65 600.048 1017.9 602.172 1015.52 602.172C1013.18 602.172 1011.92 600.192 1011.92 597.888V592.128C1011.92 589.032 1013.83 587.052 1015.88 587.052ZM1011.96 576H1004.5V576.936H1006.92V603.216H1009L1011.27 600.876C1012.35 602.64 1013.86 603.36 1016.35 603.36C1021.35 603.36 1024.02 600.48 1024.02 594.396C1024.02 588.384 1021.5 585.504 1017.36 585.504C1014.55 585.504 1012.96 586.8 1011.96 588.6V576ZM1025.67 576V576.936H1028.09V602.064H1025.75V603H1035.5V602.064H1033.13V576H1025.67ZM1038.48 579.996C1038.48 581.292 1039.09 582.768 1041.39 582.768C1043.37 582.768 1044.27 581.58 1044.27 579.996C1044.27 578.124 1043.16 577.26 1041.43 577.26C1039.38 577.26 1038.48 578.556 1038.48 579.996ZM1036.71 585.864V586.8H1039.13V602.064H1036.79V603H1046.58V602.064H1044.2V585.864H1036.71ZM1057.37 586.368C1058.91 586.368 1059.63 587.124 1059.63 588.132C1059.63 588.456 1059.56 588.816 1059.45 589.176H1058.34C1058.19 589.68 1058.16 590.148 1058.16 590.472C1058.16 592.2 1059.27 593.1 1060.82 593.1C1062.37 593.1 1063.41 592.092 1063.41 590.076C1063.41 587.304 1061.22 585.504 1057.11 585.504C1051.61 585.504 1048.01 588.6 1048.01 594.72C1048.01 600.264 1050.96 603.36 1056.25 603.36C1061.94 603.36 1063.09 599.724 1063.52 597.492L1062.51 597.348C1062.12 599.4 1060.97 601.992 1057.65 601.992C1054.56 601.992 1053.37 599.832 1053.37 594.432C1053.37 588.456 1054.59 586.368 1057.37 586.368ZM1084.5 594.288C1084.5 599.904 1084 602.496 1081.22 602.496C1078.31 602.496 1077.8 599.364 1077.8 594.36C1077.8 589.392 1078.27 586.368 1081.22 586.368C1084 586.368 1084.5 589.428 1084.5 594.288ZM1072.44 594.504C1072.44 600.12 1075.46 603.36 1081.15 603.36C1086.91 603.36 1089.86 600.012 1089.86 594.252C1089.86 588.312 1086.84 585.504 1081.3 585.504C1075.79 585.504 1072.44 588.672 1072.44 594.504ZM1101.46 576.036C1102.51 576.036 1103.15 576.468 1103.15 577.332C1103.15 577.584 1103.12 577.872 1103.01 578.232H1101.86C1101.71 578.664 1101.64 579.168 1101.64 579.636C1101.64 581.004 1102.51 581.868 1104.09 581.868C1105.6 581.868 1106.65 580.932 1106.65 579.096C1106.65 577.008 1104.95 575.172 1101.43 575.172C1095.81 575.172 1093.76 578.844 1093.76 584.748V585.864H1091.31V586.8H1093.76V602.064H1091.42V603H1103.19V602.064H1098.8V586.8H1103.41V585.864H1098.8V580.572C1098.8 577.908 1099.16 576.036 1101.46 576.036ZM666.78 617.8V618.844H669.12V641.956H666.78V643H676.86V641.956H674.52V631.264L675.492 631.048L682.08 641.956H679.956V643H690.396V641.956H688.308L679.452 626.98L686.256 618.844H688.596V617.8H681.792V618.844H684.564L675.348 629.68L674.52 629.896V618.844H676.86V617.8H666.78ZM702.597 634.288C702.597 639.904 702.093 642.496 699.321 642.496C696.405 642.496 695.901 639.364 695.901 634.36C695.901 629.392 696.369 626.368 699.321 626.368C702.093 626.368 702.597 629.428 702.597 634.288ZM690.537 634.504C690.537 640.12 693.561 643.36 699.249 643.36C705.009 643.36 707.961 640.012 707.961 634.252C707.961 628.312 704.937 625.504 699.393 625.504C693.885 625.504 690.537 628.672 690.537 634.504ZM720.531 626.98C720.999 626.98 721.503 627.124 721.503 627.808C721.503 628.024 721.467 628.276 721.323 628.6H720.207C720.135 628.96 720.099 629.32 720.099 629.644C720.099 631.516 721.179 632.308 722.619 632.308C724.167 632.308 725.211 631.3 725.211 629.248C725.211 626.908 723.699 625.504 721.503 625.504C719.415 625.504 717.651 626.656 716.895 629.212V625.864H709.479V626.8H711.819V642.064H709.479V643H720.099V642.064H716.895V633.172C716.895 629.932 718.587 626.98 720.531 626.98ZM726.22 634.54C726.22 639.76 728.92 643.36 734.86 643.36C739.72 643.36 741.556 640.912 742.276 637.888L741.304 637.744C740.584 640.444 738.964 642.064 736.228 642.064C732.556 642.064 731.584 639.364 731.584 634.684V633.712H742.24C742.456 628.312 740.08 625.504 735.112 625.504C730.108 625.504 726.22 628.276 726.22 634.54ZM731.584 632.74C731.692 628.024 732.7 626.368 734.716 626.368C736.876 626.368 737.344 628.168 737.272 632.74H731.584ZM752.285 634.396C747.425 634.396 744.293 635.368 744.293 639.076C744.293 642.46 746.813 643.36 749.441 643.36C751.745 643.36 753.257 642.496 754.049 640.804C754.409 642.496 755.741 643.36 758.153 643.36C760.961 643.36 762.149 641.992 762.329 638.032L761.501 637.96C761.249 640.84 760.781 641.416 760.061 641.416C759.377 641.416 758.945 640.912 758.945 639.4V632.308C758.945 627.088 756.965 625.504 751.961 625.504C747.857 625.504 745.085 626.98 745.085 629.788C745.085 631.372 745.877 632.416 747.605 632.416C749.081 632.416 750.197 631.516 750.197 630.004C750.197 629.428 750.089 628.96 749.909 628.492H748.937C748.865 628.24 748.829 627.988 748.829 627.772C748.829 626.8 749.837 626.368 751.097 626.368C753.293 626.368 753.905 627.844 753.905 631.768V634.396H752.285ZM751.277 641.812C750.089 641.812 749.549 641.092 749.549 638.968C749.549 636.556 750.485 635.296 753.077 635.296H753.905V638.284C753.905 640.516 752.573 641.812 751.277 641.812Z" fill="#DB3C1D"/>
<path d="M1369.42 868.81C1370.09 816.06 1402.08 784.429 1440.25 774L1440.51 832.118C1430.35 839.625 1423.27 851.766 1423.05 868.556C1423.42 885.343 1430.61 897.421 1440.84 904.837L1441.09 962.955C1402.83 952.897 1370.56 921.553 1369.42 868.81Z" fill="#DB3C1D"/>
</g>
<defs>
<clipPath id="clip0">
<rect width="1440" height="1021" fill="white"/>
</clipPath>
</defs>
</svg>
