<svg width="1440" height="1021" viewBox="0 0 1440 1021" fill="none" xmlns="http://www.w3.org/2000/svg">
<g clip-path="url(#clip0)">
<rect width="1440" height="1021" fill="white"/>
<path d="M609.074 530.91L612.615 529.852V499.557L609.197 498.746L609.025 498.402L609.369 496.311H634.844L634.008 503.787C633.402 503.902 632.721 503.861 631.967 503.664L630.541 499.189H617.262V512.811H627.27L628.5 509.32C628.959 509.205 629.59 509.205 630.393 509.32V519.205C629.689 519.32 629.057 519.32 628.5 519.205L627.27 515.738H617.262V530.123H631.598L633.689 524.148C634.246 523.984 634.885 523.984 635.607 524.148L635.828 533H608.975L608.852 532.779L609.074 530.91ZM644.459 511.066L641.631 510.352L641.434 510.057L641.754 508.09H652.107L652.279 508.336L652.033 510.131L649.328 511.066L655.697 528.303L662.164 510.992L658.77 510.352L658.648 510.057L658.943 508.09H668.213L668.385 508.336L668.016 510.352L665.164 511.066L656.213 532.557C655.951 533.082 655.123 533.418 653.73 533.566L644.459 511.066ZM691.033 527.418C691.885 527.762 692.352 528.369 692.434 529.238C689.926 531.615 687.402 533.098 684.861 533.689C684.303 533.82 683.738 533.885 683.164 533.885C679.721 533.885 676.926 532.672 674.779 530.246C672.648 527.869 671.582 524.902 671.582 521.344C671.582 517.475 672.852 514.148 675.393 511.361C676.557 510.082 677.902 509.074 679.426 508.336C680.951 507.598 682.492 507.23 684.049 507.23C685.623 507.23 686.951 507.508 688.033 508.066C689.131 508.607 690.041 509.344 690.762 510.279C692.205 512.115 692.926 514.459 692.926 517.311C692.926 518.115 692.852 518.811 692.705 519.402C692.525 519.811 689.156 520.016 682.598 520.016C680.418 520.016 678.115 519.984 675.689 519.918C675.721 523.049 676.73 525.574 678.713 527.492C680.484 529.197 682.484 530.049 684.713 530.049C686.943 530.049 689.049 529.172 691.033 527.418ZM677.73 517.656C682.648 517.656 686.238 517.5 688.5 517.189C688.5 515.434 687.975 513.82 686.926 512.344C685.779 510.754 684.41 509.959 682.82 509.959C681.082 509.959 679.582 510.607 678.32 511.902C676.959 513.262 676.123 515.18 675.811 517.656H677.73ZM713.016 510.943C710.738 510.943 708.213 511.574 705.443 512.836V529.852L709.377 530.689L709.475 531.033L709.205 533H698.189L698.016 532.779L698.262 530.91L701.508 529.852V513.426L698.09 511.926L697.844 511.631L698.09 510.303L704.557 507.697L704.975 507.918V510.943C708.746 508.467 711.828 507.23 714.221 507.23C716.68 507.23 718.598 507.984 719.975 509.492C721.336 510.967 722.016 513.016 722.016 515.639V529.852L726.27 530.689L726.393 531.033L726.098 533H714.393L714.295 532.779L714.516 530.91L718.057 529.852V516.795C718.057 512.893 716.377 510.943 713.016 510.943ZM740.729 530.123C742.533 530.123 744.41 529.738 746.361 528.967C746.951 529.328 747.279 529.902 747.344 530.689C744.459 532.82 742.066 533.885 740.164 533.885C737.934 533.885 736.238 533.148 735.074 531.672C734.057 530.377 733.549 528.623 733.549 526.41V510.943H730.328C730.197 510.664 730.131 510.385 730.131 510.107C730.131 509.762 730.254 509.434 730.5 509.123L734.09 507.869L735.885 501.23H737.557V508.287C739.377 508.287 742.229 508.205 746.115 508.041C746.115 508.123 746.123 508.205 746.139 508.287L746.164 508.902C746.164 509.803 745.967 510.484 745.574 510.943H737.557V526.213C737.557 527.311 737.77 528.131 738.197 528.672C738.934 529.639 739.779 530.123 740.729 530.123ZM769.648 530.516C775.648 526.484 779.73 523.254 781.893 520.828C783.762 518.713 784.697 516.713 784.697 514.828C784.697 513.369 784.221 512.164 783.27 511.213C782.238 510.18 781.008 509.664 779.582 509.664C776.467 509.664 773.738 510.631 771.393 512.566C770.311 511.877 769.77 511.123 769.77 510.303C772.426 508.156 775.352 506.803 778.549 506.246C779.287 506.131 780.156 506.074 781.156 506.074C782.156 506.074 783.197 506.246 784.279 506.59C785.377 506.934 786.336 507.426 787.156 508.066C788.91 509.475 789.787 511.361 789.787 513.721C789.787 516.311 788.672 518.77 786.443 521.098C784.967 522.639 783.115 524.23 780.885 525.869L774.738 530.344C783.787 530.344 788.418 529.959 788.631 529.189L789.615 525.205C790.221 525.025 790.893 524.975 791.631 525.057L792.443 533H770.508C769.803 532.426 769.516 531.598 769.648 530.516ZM799.992 532.902C799.549 532.492 799.238 532.115 799.057 531.77C798.877 531.426 798.787 531.074 798.787 530.713C798.787 530.352 798.861 529.992 799.008 529.631C799.156 529.27 799.361 528.951 799.623 528.672C800.213 528.016 800.787 527.689 801.344 527.689C801.902 527.689 802.369 527.762 802.746 527.91C803.123 528.057 803.467 528.262 803.779 528.525C804.467 529.098 804.811 529.656 804.811 530.197C804.811 530.721 804.73 531.164 804.566 531.525C804.402 531.885 804.172 532.213 803.877 532.508C803.238 533.18 802.516 533.516 801.713 533.516C801.025 533.516 800.451 533.311 799.992 532.902ZM812.582 532.902C812.139 532.492 811.828 532.115 811.648 531.77C811.467 531.426 811.377 531.074 811.377 530.713C811.377 530.352 811.451 529.992 811.598 529.631C811.746 529.27 811.951 528.951 812.213 528.672C812.803 528.016 813.377 527.689 813.934 527.689C814.492 527.689 814.959 527.762 815.336 527.91C815.713 528.057 816.057 528.262 816.369 528.525C817.057 529.098 817.402 529.656 817.402 530.197C817.402 530.721 817.32 531.164 817.156 531.525C816.992 531.885 816.762 532.213 816.467 532.508C815.828 533.18 815.107 533.516 814.303 533.516C813.615 533.516 813.041 533.311 812.582 532.902ZM825.172 532.902C824.73 532.492 824.418 532.115 824.238 531.77C824.057 531.426 823.967 531.074 823.967 530.713C823.967 530.352 824.041 529.992 824.189 529.631C824.336 529.27 824.541 528.951 824.803 528.672C825.393 528.016 825.967 527.689 826.525 527.689C827.082 527.689 827.549 527.762 827.926 527.91C828.303 528.057 828.648 528.262 828.959 528.525C829.648 529.098 829.992 529.656 829.992 530.197C829.992 530.721 829.91 531.164 829.746 531.525C829.582 531.885 829.352 532.213 829.057 532.508C828.418 533.18 827.697 533.516 826.893 533.516C826.205 533.516 825.631 533.311 825.172 532.902Z" fill="black"/>
<rect width="1440" height="1024" fill="white"/>
<rect width="1440" height="1024" fill="white"/>
<rect y="-3" width="1440" height="1024" fill="white"/>
<path d="M1098.12 522.54H1553.14C1482.9 643.111 1354.68 731.542 1168.42 734.762C1079.23 733.275 1003.47 712.097 940.908 677.294C1009.04 639.457 1061.51 585.395 1098.12 522.54Z" fill="#B7AEAC"/>
<path d="M940.971 -117.654V522.541H1098.18C1061.57 585.396 1009.11 639.396 940.971 677.295C646.374 513.562 646.312 46.0791 940.971 -117.654Z" fill="#B7AEAC"/>
<path d="M1118.19 483.958C1133.8 487.488 1150.52 489.531 1168.42 489.841C1444.5 485.135 1444.44 74.5629 1168.42 69.9184C1150.52 70.228 1133.8 72.2716 1118.19 75.8014C1081.83 -3.40246 1022.67 -72.1407 940.908 -117.533C1003.47 -152.335 1079.23 -173.452 1168.42 -175C1580.27 -168.003 1708.56 256.007 1553.14 522.662H1098.12C1105.43 510.029 1112.18 497.148 1118.19 483.958Z" fill="#B7AEAC"/>
<path d="M1118.25 75.7407C909.196 122.681 909.258 437.019 1118.25 483.959C1112.18 497.15 1105.49 510.031 1098.18 522.602H940.972V-117.594C1022.67 -72.2015 1081.83 -3.5251 1118.25 75.7407Z" fill="#B7AEAC"/>
<path d="M427.104 139.872C419.712 139.872 416.016 143.184 416.016 147.216C416.016 149.568 417.312 151.68 420.288 151.68C422.688 151.68 424.512 150.192 424.512 147.936C424.512 147.024 424.368 146.4 424.128 145.776H422.736C422.544 145.248 422.448 144.768 422.448 144.384C422.448 142.848 423.216 140.736 425.808 140.736C428.592 140.736 429.36 143.424 429.36 147.6C429.36 153.984 428.112 155.376 422.496 155.952L422.64 157.008C424.56 156.816 425.28 156.72 426.816 156.384C429.168 157.536 430.704 159.504 430.704 164.64C430.704 170.208 429.84 173.52 425.808 173.52C422.256 173.52 421.776 171.408 421.776 170.112C421.776 169.536 421.872 169.056 422.064 168.528H423.552C423.792 167.904 423.936 167.28 423.936 166.368C423.936 164.112 422.208 162.624 419.808 162.624C416.832 162.624 415.44 164.736 415.44 167.232C415.44 172.944 421.392 174.48 426 174.48C434.928 174.48 440.064 170.544 440.064 164.496C440.064 159.744 436.752 156.192 428.448 155.616V155.52C434.832 154.464 438.384 151.68 438.384 147.504C438.384 142.8 435.456 139.872 427.104 139.872ZM457.26 157.008C459.852 157.008 460.524 158.784 460.524 162.192V165.696C460.524 172.464 462.3 174.48 468.348 174.48C472.812 174.48 474.156 173.088 474.876 167.616L474.06 167.52C473.436 171.264 472.716 171.648 471.852 171.648C470.508 171.648 470.364 170.544 470.364 167.424V164.88C470.364 159.312 468.588 157.296 463.404 156.624V156.48C468.492 156.048 471.564 154.32 471.564 148.464C471.564 141.456 466.764 140.4 456.732 140.4H442.236V141.312H445.356V173.088H442.236V174H457.836V173.088H454.716V157.008H457.26ZM454.716 141.312H456.3C459.66 141.312 461.628 142.176 461.628 147.552V148.944C461.628 154.128 459.804 156.096 456.252 156.096H454.716V141.312ZM510.147 156.624C510.147 144.672 503.571 140.4 491.715 140.4H476.883V141.312H480.051V173.088H476.883V174H490.467C501.939 174 510.147 170.16 510.147 156.624ZM489.411 173.088V141.312H490.563C497.283 141.312 500.259 143.712 500.259 155.376V158.16C500.259 168.912 497.715 173.088 491.235 173.088H489.411ZM521.454 140.4V141.312H524.574V173.088H521.454V174H539.934V173.088H533.934V160.224H534.318C543.63 160.224 549.918 158.112 549.918 149.952C549.918 142.416 544.59 140.4 535.566 140.4H521.454ZM533.934 141.312H535.23C538.878 141.312 540.03 143.232 540.03 148.656V150.96C540.03 156.528 538.974 159.312 534.942 159.312H533.934V141.312ZM574.736 159.168C574.736 168.816 574.064 173.472 568.688 173.472C563.072 173.472 562.496 168.288 562.496 159.264V155.808C562.496 145.968 562.88 140.88 568.688 140.88C574.448 140.88 574.736 145.776 574.736 155.616V159.168ZM552.656 157.728C552.656 168.288 557.792 174.48 568.496 174.48C579.584 174.48 584.624 167.808 584.624 157.104C584.624 146.208 579.392 139.872 569.072 139.872C558.368 139.872 552.656 146.688 552.656 157.728ZM601.725 173.472C596.445 173.472 591.789 167.856 589.389 163.056H588.573L589.053 174.48H589.725C590.109 173.568 590.397 173.04 591.165 173.04C592.509 173.04 596.541 174.48 601.197 174.48C608.253 174.48 612.957 169.92 612.957 163.008C612.957 155.04 607.053 153.216 601.725 151.776C596.877 150.48 593.613 149.28 593.613 145.728C593.613 142.896 596.013 140.88 599.469 140.88C604.413 140.88 607.677 145.68 610.125 150.096H610.893L610.557 140.4H610.029C609.693 141.024 609.453 141.36 608.637 141.36C607.005 141.36 604.509 139.872 600.093 139.872C592.701 139.872 588.717 144.912 588.717 150.288C588.717 157.536 593.133 159.84 598.941 161.472C604.845 163.152 607.821 164.448 607.821 168.432C607.821 171.936 604.605 173.472 601.725 173.472ZM643.278 140.4H614.958L614.478 152.448H615.39C617.838 145.008 619.47 141.408 623.838 141.408H624.462V172.992H620.382V174H637.902V172.992H633.822V141.408H634.398C638.766 141.408 640.254 144.624 642.846 152.448H643.758L643.278 140.4ZM646.524 140.4V141.456H649.356V172.944H646.524V174H672.876L673.26 163.536H672.3C670.86 168.768 666.636 172.944 660.54 172.944H658.716V157.536H659.868C663.228 157.536 665.052 159.408 666.204 164.208H667.02V150H666.3C665.484 153.648 663.468 156.288 660.348 156.288H658.716V141.456H660.396C666.204 141.456 668.46 143.616 671.1 149.904H671.964L671.484 140.4H646.524ZM691.213 157.008C693.805 157.008 694.477 158.784 694.477 162.192V165.696C694.477 172.464 696.253 174.48 702.301 174.48C706.765 174.48 708.109 173.088 708.829 167.616L708.013 167.52C707.389 171.264 706.669 171.648 705.805 171.648C704.461 171.648 704.317 170.544 704.317 167.424V164.88C704.317 159.312 702.541 157.296 697.357 156.624V156.48C702.445 156.048 705.517 154.32 705.517 148.464C705.517 141.456 700.717 140.4 690.685 140.4H676.189V141.312H679.309V173.088H676.189V174H691.789V173.088H688.669V157.008H691.213ZM688.669 141.312H690.253C693.613 141.312 695.581 142.176 695.581 147.552V148.944C695.581 154.128 693.757 156.096 690.205 156.096H688.669V141.312ZM719.461 140.4V141.456H722.293V172.944H719.461V174H745.813L746.197 163.536H745.237C743.797 168.768 739.573 172.944 733.477 172.944H731.653V157.536H732.805C736.165 157.536 737.989 159.408 739.141 164.208H739.957V150H739.237C738.421 153.648 736.405 156.288 733.285 156.288H731.653V141.456H733.333C739.141 141.456 741.397 143.616 744.037 149.904H744.901L744.421 140.4H719.461ZM781.069 174V173.088H778.285L767.389 154.32L775.501 141.36H778.669V140.4H768.829V141.36H773.821L766.573 152.976L760.093 141.36H763.357V140.4H747.181V141.36H749.773L759.805 158.976L751.405 173.088H748.189V174H758.125V173.088H753.037L760.669 160.416L767.821 173.088H764.653V174H781.069ZM782.602 140.4V141.312H785.434V173.088H782.602V174H797.578V173.088H794.794V157.44H804.346V173.088H801.514V174H816.538V173.088H813.706V141.312H816.538V140.4H801.514V141.312H804.346V156.192H794.794V141.312H797.578V140.4H782.602ZM818.747 140.4V141.312H821.387V173.088H818.747V174H833.387V173.088H830.747V141.312H833.387V140.4H818.747ZM835.617 140.4V141.312H838.737V173.088H835.617V174H849.729C858.753 174 864.993 172.032 864.993 164.592C864.993 159.552 861.441 157.008 855.393 156.24V156.144C860.433 155.328 863.313 152.88 863.313 148.272C863.313 142.32 858.417 140.4 849.969 140.4H835.617ZM848.097 157.008H849.201C853.857 157.008 855.105 159.408 855.105 163.344V165.888C855.105 170.304 854.049 173.088 850.353 173.088H848.097V157.008ZM848.097 141.312H849.633C852.993 141.312 853.809 143.088 853.809 147.696V149.952C853.809 153.888 852.801 156.096 849.345 156.096H848.097V141.312ZM867.45 140.4V141.312H870.09V173.088H867.45V174H882.09V173.088H879.45V141.312H882.09V140.4H867.45ZM913.841 140.4H885.521L885.041 152.448H885.953C888.401 145.008 890.033 141.408 894.401 141.408H895.025V172.992H890.945V174H908.465V172.992H904.385V141.408H904.961C909.329 141.408 910.817 144.624 913.409 152.448H914.321L913.841 140.4ZM917.278 140.4V141.312H919.918V173.088H917.278V174H931.918V173.088H929.278V141.312H931.918V140.4H917.278ZM957.189 159.168C957.189 168.816 956.517 173.472 951.141 173.472C945.525 173.472 944.949 168.288 944.949 159.264V155.808C944.949 145.968 945.333 140.88 951.141 140.88C956.901 140.88 957.189 145.776 957.189 155.616V159.168ZM935.109 157.728C935.109 168.288 940.245 174.48 950.949 174.48C962.037 174.48 967.077 167.808 967.077 157.104C967.077 146.208 961.845 139.872 951.525 139.872C940.821 139.872 935.109 146.688 935.109 157.728ZM997.367 141.312H1000.01V140.4H993.431V141.312H996.071V164.496L983.495 140.4H970.247V141.312H972.887V173.088H970.247V174H976.823V173.088H974.183V142.944L990.647 174H997.367V141.312Z" fill="black"/>
</g>
<defs>
<clipPath id="clip0">
<rect width="1440" height="1021" fill="white"/>
</clipPath>
</defs>
</svg>
