<svg width="1440" height="1021" viewBox="0 0 1440 1021" fill="none" xmlns="http://www.w3.org/2000/svg">
<g clip-path="url(#clip0)">
<rect width="1440" height="1021" fill="white"/>
<path d="M609.074 530.91L612.615 529.852V499.557L609.197 498.746L609.025 498.402L609.369 496.311H634.844L634.008 503.787C633.402 503.902 632.721 503.861 631.967 503.664L630.541 499.189H617.262V512.811H627.27L628.5 509.32C628.959 509.205 629.59 509.205 630.393 509.32V519.205C629.689 519.32 629.057 519.32 628.5 519.205L627.27 515.738H617.262V530.123H631.598L633.689 524.148C634.246 523.984 634.885 523.984 635.607 524.148L635.828 533H608.975L608.852 532.779L609.074 530.91ZM644.459 511.066L641.631 510.352L641.434 510.057L641.754 508.09H652.107L652.279 508.336L652.033 510.131L649.328 511.066L655.697 528.303L662.164 510.992L658.77 510.352L658.648 510.057L658.943 508.09H668.213L668.385 508.336L668.016 510.352L665.164 511.066L656.213 532.557C655.951 533.082 655.123 533.418 653.73 533.566L644.459 511.066ZM691.033 527.418C691.885 527.762 692.352 528.369 692.434 529.238C689.926 531.615 687.402 533.098 684.861 533.689C684.303 533.82 683.738 533.885 683.164 533.885C679.721 533.885 676.926 532.672 674.779 530.246C672.648 527.869 671.582 524.902 671.582 521.344C671.582 517.475 672.852 514.148 675.393 511.361C676.557 510.082 677.902 509.074 679.426 508.336C680.951 507.598 682.492 507.23 684.049 507.23C685.623 507.23 686.951 507.508 688.033 508.066C689.131 508.607 690.041 509.344 690.762 510.279C692.205 512.115 692.926 514.459 692.926 517.311C692.926 518.115 692.852 518.811 692.705 519.402C692.525 519.811 689.156 520.016 682.598 520.016C680.418 520.016 678.115 519.984 675.689 519.918C675.721 523.049 676.73 525.574 678.713 527.492C680.484 529.197 682.484 530.049 684.713 530.049C686.943 530.049 689.049 529.172 691.033 527.418ZM677.73 517.656C682.648 517.656 686.238 517.5 688.5 517.189C688.5 515.434 687.975 513.82 686.926 512.344C685.779 510.754 684.41 509.959 682.82 509.959C681.082 509.959 679.582 510.607 678.32 511.902C676.959 513.262 676.123 515.18 675.811 517.656H677.73ZM713.016 510.943C710.738 510.943 708.213 511.574 705.443 512.836V529.852L709.377 530.689L709.475 531.033L709.205 533H698.189L698.016 532.779L698.262 530.91L701.508 529.852V513.426L698.09 511.926L697.844 511.631L698.09 510.303L704.557 507.697L704.975 507.918V510.943C708.746 508.467 711.828 507.23 714.221 507.23C716.68 507.23 718.598 507.984 719.975 509.492C721.336 510.967 722.016 513.016 722.016 515.639V529.852L726.27 530.689L726.393 531.033L726.098 533H714.393L714.295 532.779L714.516 530.91L718.057 529.852V516.795C718.057 512.893 716.377 510.943 713.016 510.943ZM740.729 530.123C742.533 530.123 744.41 529.738 746.361 528.967C746.951 529.328 747.279 529.902 747.344 530.689C744.459 532.82 742.066 533.885 740.164 533.885C737.934 533.885 736.238 533.148 735.074 531.672C734.057 530.377 733.549 528.623 733.549 526.41V510.943H730.328C730.197 510.664 730.131 510.385 730.131 510.107C730.131 509.762 730.254 509.434 730.5 509.123L734.09 507.869L735.885 501.23H737.557V508.287C739.377 508.287 742.229 508.205 746.115 508.041C746.115 508.123 746.123 508.205 746.139 508.287L746.164 508.902C746.164 509.803 745.967 510.484 745.574 510.943H737.557V526.213C737.557 527.311 737.77 528.131 738.197 528.672C738.934 529.639 739.779 530.123 740.729 530.123ZM769.648 530.516C775.648 526.484 779.73 523.254 781.893 520.828C783.762 518.713 784.697 516.713 784.697 514.828C784.697 513.369 784.221 512.164 783.27 511.213C782.238 510.18 781.008 509.664 779.582 509.664C776.467 509.664 773.738 510.631 771.393 512.566C770.311 511.877 769.77 511.123 769.77 510.303C772.426 508.156 775.352 506.803 778.549 506.246C779.287 506.131 780.156 506.074 781.156 506.074C782.156 506.074 783.197 506.246 784.279 506.59C785.377 506.934 786.336 507.426 787.156 508.066C788.91 509.475 789.787 511.361 789.787 513.721C789.787 516.311 788.672 518.77 786.443 521.098C784.967 522.639 783.115 524.23 780.885 525.869L774.738 530.344C783.787 530.344 788.418 529.959 788.631 529.189L789.615 525.205C790.221 525.025 790.893 524.975 791.631 525.057L792.443 533H770.508C769.803 532.426 769.516 531.598 769.648 530.516ZM799.992 532.902C799.549 532.492 799.238 532.115 799.057 531.77C798.877 531.426 798.787 531.074 798.787 530.713C798.787 530.352 798.861 529.992 799.008 529.631C799.156 529.27 799.361 528.951 799.623 528.672C800.213 528.016 800.787 527.689 801.344 527.689C801.902 527.689 802.369 527.762 802.746 527.91C803.123 528.057 803.467 528.262 803.779 528.525C804.467 529.098 804.811 529.656 804.811 530.197C804.811 530.721 804.73 531.164 804.566 531.525C804.402 531.885 804.172 532.213 803.877 532.508C803.238 533.18 802.516 533.516 801.713 533.516C801.025 533.516 800.451 533.311 799.992 532.902ZM812.582 532.902C812.139 532.492 811.828 532.115 811.648 531.77C811.467 531.426 811.377 531.074 811.377 530.713C811.377 530.352 811.451 529.992 811.598 529.631C811.746 529.27 811.951 528.951 812.213 528.672C812.803 528.016 813.377 527.689 813.934 527.689C814.492 527.689 814.959 527.762 815.336 527.91C815.713 528.057 816.057 528.262 816.369 528.525C817.057 529.098 817.402 529.656 817.402 530.197C817.402 530.721 817.32 531.164 817.156 531.525C816.992 531.885 816.762 532.213 816.467 532.508C815.828 533.18 815.107 533.516 814.303 533.516C813.615 533.516 813.041 533.311 812.582 532.902ZM825.172 532.902C824.73 532.492 824.418 532.115 824.238 531.77C824.057 531.426 823.967 531.074 823.967 530.713C823.967 530.352 824.041 529.992 824.189 529.631C824.336 529.27 824.541 528.951 824.803 528.672C825.393 528.016 825.967 527.689 826.525 527.689C827.082 527.689 827.549 527.762 827.926 527.91C828.303 528.057 828.648 528.262 828.959 528.525C829.648 529.098 829.992 529.656 829.992 530.197C829.992 530.721 829.91 531.164 829.746 531.525C829.582 531.885 829.352 532.213 829.057 532.508C828.418 533.18 827.697 533.516 826.893 533.516C826.205 533.516 825.631 533.311 825.172 532.902Z" fill="black"/>
<rect width="1440" height="1024" fill="white"/>
<rect width="1440" height="1024" fill="white"/>
<rect y="-3" width="1440" height="1024" fill="white"/>
<path d="M848.35 517.34V517.97H850.275V533.37H848.35V534H858.045V533.37H856.785V523.71C856.785 520.875 858.045 518.67 859.34 518.67C859.97 518.67 860.355 519.02 860.355 521.995V533.37H859.13V534H868.125V533.37H866.865V523.5C866.865 520.56 868.16 518.67 869.42 518.67C870.05 518.67 870.435 519.02 870.435 521.995V533.37H869.21V534H878.905V533.37H876.945V522.835C876.945 518.6 874.845 516.99 871.8 516.99C868.65 516.99 867.215 519.02 866.655 520.77C866.06 518.075 864.205 516.99 861.72 516.99C858.5 516.99 857.345 518.81 856.785 520.56V517.34H848.35ZM881.134 511.67C881.134 513.14 881.799 514.925 884.634 514.925C887.154 514.925 888.169 513.49 888.169 511.635C888.169 509.5 886.874 508.415 884.704 508.415C882.079 508.415 881.134 509.955 881.134 511.67ZM879.279 517.34V517.97H881.344V533.37H879.419V534H889.814V533.37H887.854V517.34H879.279ZM890.598 517.34V517.97H892.523V533.37H890.598V534H900.538V533.37H899.033V523.71C899.033 520.875 900.398 518.67 901.868 518.67C902.743 518.67 903.163 519.02 903.163 521.995V533.37H901.728V534H911.633V533.37H909.673V522.835C909.673 518.6 907.503 516.99 904.248 516.99C900.783 516.99 899.628 518.81 899.033 520.56V517.34H890.598ZM926.13 515.52C926.2 516.71 927.11 517.34 928.16 517.34C929.315 517.34 930.365 516.64 930.365 515.03C930.365 513.35 929.175 512.44 927.53 512.44C926.095 512.44 924.1 513.28 924.1 516.15C924.1 516.675 924.17 517.235 924.31 517.865C923.155 517.235 922.14 516.99 920.425 516.99C915.14 516.99 912.865 519.545 912.865 522.835C912.865 525.74 914.195 527.385 916.925 528.155C914.195 529.8 912.935 530.78 912.935 532.775C912.935 534.315 914.055 536.03 918.22 536.03H921.615C925.29 536.03 926.06 536.695 926.06 538.375C926.06 540.58 924.1 542.085 920.39 542.085C916.645 542.085 915.91 540.545 915.91 539.075C915.91 538.515 915.98 537.92 916.19 537.15L914.09 536.205C912.865 536.555 911.395 537.255 911.395 539.005C911.395 541.28 913.95 542.75 920.04 542.75C927.11 542.75 929.91 539.95 929.91 536.065C929.91 531.305 925.92 530.36 921.965 530.36H918.395C916.54 530.36 916.155 530.185 916.155 529.87C916.155 529.555 916.47 529.17 917.695 528.4C918.43 528.54 919.515 528.68 920.53 528.68C924.8 528.68 927.67 526.685 927.67 522.695C927.67 520.385 926.375 519.16 925.01 518.25C924.835 517.41 924.765 516.71 924.765 516.15C924.765 513.98 925.815 513.84 926.27 513.84C927.005 513.84 927.215 514.365 927.11 514.925L926.13 515.52ZM918.71 522.065C918.71 518.25 919.41 517.62 920.39 517.62C921.335 517.62 921.895 518.145 921.895 522.065V523.78C921.895 527.42 921.3 527.98 920.355 527.98C919.305 527.98 918.71 527.245 918.71 523.955V522.065ZM930.206 517.97H931.641L937.626 534H940.706L939.936 536.17C938.606 539.95 937.206 541.91 935.246 541.91C934.231 541.91 934.021 541.105 934.371 540.055H935.596C935.736 539.565 935.806 539.145 935.806 538.795C935.806 537.15 934.686 536.38 932.901 536.38C931.221 536.38 930.101 537.465 930.101 539.215C930.101 541.42 931.851 542.75 934.476 542.75C937.241 542.75 939.061 541.35 940.636 536.835L947.181 517.97H948.931V517.34H943.996V517.97H946.341L942.281 529.59L938.466 517.97H940.356V517.34H930.206V517.97ZM948.296 525.705C948.296 530.78 951.096 534.35 957.326 534.35C962.296 534.35 964.116 532.04 964.921 529.03L964.291 528.925C963.521 531.62 961.771 533.265 959.181 533.265C955.786 533.265 955.051 530.465 955.051 526.335V524.97H964.921C965.131 519.755 962.786 516.99 957.291 516.99C952.426 516.99 948.296 519.65 948.296 525.705ZM955.086 524.27V522.555C955.086 518.845 955.751 517.655 956.976 517.655C958.411 517.655 958.691 518.88 958.691 522.555V524.27H955.086ZM966.631 534.35H967.051C967.611 533.37 968.101 533.055 968.556 533.055C968.696 533.055 969.011 533.195 969.221 533.335C970.551 534 971.741 534.35 973.421 534.35C977.376 534.35 979.966 532.355 979.966 528.365C979.966 524.235 976.886 523.115 974.121 522.38C971.811 521.75 969.711 521.365 969.711 519.755C969.711 518.67 970.656 517.725 972.966 517.725C975.451 517.725 977.236 519.055 978.496 522.275H978.916V516.92H978.531C978.076 517.795 977.831 518.075 977.306 518.075C976.886 518.075 976.746 517.97 976.326 517.795C975.381 517.375 974.331 516.99 972.791 516.99C969.081 516.99 966.631 519.335 966.631 522.905C966.631 526.79 969.746 527.875 972.546 528.645C975.206 529.38 976.921 529.73 976.921 531.305C976.921 532.635 975.941 533.58 973.351 533.58C970.481 533.58 968.346 532.355 967.051 528.085H966.631V534.35ZM1064.99 520.175C1061.91 520.175 1057.99 522.695 1057.99 528.855C1057.99 531.62 1059.67 534.175 1063.1 534.175C1065.16 534.175 1066.11 532.845 1066.53 531.725C1067.05 533.055 1068.14 534.245 1071.11 534.245C1075.49 534.245 1078.15 531.41 1078.15 525.46C1078.15 518.04 1073.14 513.98 1066.18 513.98C1057.88 513.98 1052.28 519.965 1052.28 528.05C1052.28 536.625 1058.83 540.405 1066.04 540.405C1069.22 540.405 1072.69 539.25 1074.79 537.29L1074.23 536.66C1072.37 538.235 1069.61 539.565 1066.07 539.565C1059.84 539.565 1053.26 536.485 1053.26 527.91C1053.26 519.58 1059.25 514.75 1065.93 514.75C1073.14 514.75 1077.24 518.95 1077.24 525.705C1077.24 530.675 1074.72 533.23 1072.9 533.23C1071.22 533.23 1070.9 532.25 1070.9 530.5C1070.9 529.45 1071.08 528.26 1071.32 526.79L1072.44 520.42H1068.63L1068.03 521.47C1067.23 520.7 1066.46 520.175 1064.99 520.175ZM1066.67 529.45C1066.32 531.76 1065.2 533.44 1063.83 533.44C1062.64 533.44 1062.05 532.6 1062.05 530.5C1062.05 527.875 1062.61 520.91 1065.55 520.91C1066.53 520.91 1067.16 521.225 1067.86 521.96L1066.67 529.45ZM1080.94 517.34V517.97H1082.87V533.37H1080.94V534H1090.64V533.37H1089.38V523.71C1089.38 520.875 1090.64 518.67 1091.93 518.67C1092.56 518.67 1092.95 519.02 1092.95 521.995V533.37H1091.72V534H1100.72V533.37H1099.46V523.5C1099.46 520.56 1100.75 518.67 1102.01 518.67C1102.64 518.67 1103.03 519.02 1103.03 521.995V533.37H1101.8V534H1111.5V533.37H1109.54V522.835C1109.54 518.6 1107.44 516.99 1104.39 516.99C1101.24 516.99 1099.81 519.02 1099.25 520.77C1098.65 518.075 1096.8 516.99 1094.31 516.99C1091.09 516.99 1089.94 518.81 1089.38 520.56V517.34H1080.94ZM1113.73 511.67C1113.73 513.14 1114.39 514.925 1117.23 514.925C1119.75 514.925 1120.76 513.49 1120.76 511.635C1120.76 509.5 1119.47 508.415 1117.3 508.415C1114.67 508.415 1113.73 509.955 1113.73 511.67ZM1111.87 517.34V517.97H1113.94V533.37H1112.01V534H1122.41V533.37H1120.45V517.34H1111.87ZM1123.19 517.34V517.97H1125.12V533.37H1123.19V534H1133.13V533.37H1131.63V523.71C1131.63 520.875 1132.99 518.67 1134.46 518.67C1135.34 518.67 1135.76 519.02 1135.76 521.995V533.37H1134.32V534H1144.23V533.37H1142.27V522.835C1142.27 518.6 1140.1 516.99 1136.84 516.99C1133.38 516.99 1132.22 518.81 1131.63 520.56V517.34H1123.19ZM1158.72 515.52C1158.79 516.71 1159.7 517.34 1160.75 517.34C1161.91 517.34 1162.96 516.64 1162.96 515.03C1162.96 513.35 1161.77 512.44 1160.12 512.44C1158.69 512.44 1156.69 513.28 1156.69 516.15C1156.69 516.675 1156.76 517.235 1156.9 517.865C1155.75 517.235 1154.73 516.99 1153.02 516.99C1147.73 516.99 1145.46 519.545 1145.46 522.835C1145.46 525.74 1146.79 527.385 1149.52 528.155C1146.79 529.8 1145.53 530.78 1145.53 532.775C1145.53 534.315 1146.65 536.03 1150.81 536.03H1154.21C1157.88 536.03 1158.65 536.695 1158.65 538.375C1158.65 540.58 1156.69 542.085 1152.98 542.085C1149.24 542.085 1148.5 540.545 1148.5 539.075C1148.5 538.515 1148.57 537.92 1148.78 537.15L1146.68 536.205C1145.46 536.555 1143.99 537.255 1143.99 539.005C1143.99 541.28 1146.54 542.75 1152.63 542.75C1159.7 542.75 1162.5 539.95 1162.5 536.065C1162.5 531.305 1158.51 530.36 1154.56 530.36H1150.99C1149.13 530.36 1148.75 530.185 1148.75 529.87C1148.75 529.555 1149.06 529.17 1150.29 528.4C1151.02 528.54 1152.11 528.68 1153.12 528.68C1157.39 528.68 1160.26 526.685 1160.26 522.695C1160.26 520.385 1158.97 519.16 1157.6 518.25C1157.43 517.41 1157.36 516.71 1157.36 516.15C1157.36 513.98 1158.41 513.84 1158.86 513.84C1159.6 513.84 1159.81 514.365 1159.7 514.925L1158.72 515.52ZM1151.3 522.065C1151.3 518.25 1152 517.62 1152.98 517.62C1153.93 517.62 1154.49 518.145 1154.49 522.065V523.78C1154.49 527.42 1153.89 527.98 1152.95 527.98C1151.9 527.98 1151.3 527.245 1151.3 523.955V522.065ZM1162.8 517.97H1164.23L1170.22 534H1173.3L1172.53 536.17C1171.2 539.95 1169.8 541.91 1167.84 541.91C1166.82 541.91 1166.61 541.105 1166.96 540.055H1168.19C1168.33 539.565 1168.4 539.145 1168.4 538.795C1168.4 537.15 1167.28 536.38 1165.49 536.38C1163.81 536.38 1162.69 537.465 1162.69 539.215C1162.69 541.42 1164.44 542.75 1167.07 542.75C1169.83 542.75 1171.65 541.35 1173.23 536.835L1179.77 517.97H1181.52V517.34H1176.59V517.97H1178.93L1174.87 529.59L1171.06 517.97H1172.95V517.34H1162.8V517.97ZM1180.89 525.705C1180.89 530.78 1183.69 534.35 1189.92 534.35C1194.89 534.35 1196.71 532.04 1197.51 529.03L1196.88 528.925C1196.11 531.62 1194.36 533.265 1191.77 533.265C1188.38 533.265 1187.64 530.465 1187.64 526.335V524.97H1197.51C1197.72 519.755 1195.38 516.99 1189.88 516.99C1185.02 516.99 1180.89 519.65 1180.89 525.705ZM1187.68 524.27V522.555C1187.68 518.845 1188.34 517.655 1189.57 517.655C1191 517.655 1191.28 518.88 1191.28 522.555V524.27H1187.68ZM1199.22 534.35H1199.64C1200.2 533.37 1200.69 533.055 1201.15 533.055C1201.29 533.055 1201.6 533.195 1201.81 533.335C1203.14 534 1204.33 534.35 1206.01 534.35C1209.97 534.35 1212.56 532.355 1212.56 528.365C1212.56 524.235 1209.48 523.115 1206.71 522.38C1204.4 521.75 1202.3 521.365 1202.3 519.755C1202.3 518.67 1203.25 517.725 1205.56 517.725C1208.04 517.725 1209.83 519.055 1211.09 522.275H1211.51V516.92H1211.12C1210.67 517.795 1210.42 518.075 1209.9 518.075C1209.48 518.075 1209.34 517.97 1208.92 517.795C1207.97 517.375 1206.92 516.99 1205.38 516.99C1201.67 516.99 1199.22 519.335 1199.22 522.905C1199.22 526.79 1202.34 527.875 1205.14 528.645C1207.8 529.38 1209.51 529.73 1209.51 531.305C1209.51 532.635 1208.53 533.58 1205.94 533.58C1203.07 533.58 1200.94 532.355 1199.64 528.085H1199.22V534.35ZM1230.74 537.71V536.415H1213.24V537.71H1230.74ZM1242.26 518.495C1243.45 518.495 1243.87 519.65 1243.87 524.585V526.405C1243.87 531.27 1243.52 533.335 1241.8 533.335C1240.26 533.335 1239.53 531.62 1239.53 529.73V523.325C1239.53 520.28 1240.82 518.495 1242.26 518.495ZM1239.46 517.34H1231.16V517.97H1233.02V541.7H1231.09V542.33H1244.04V541.7H1239.53V532.635C1240.16 533.72 1241.03 534.35 1243.41 534.35C1248.17 534.35 1250.62 531.69 1250.62 525.705C1250.62 519.755 1248.21 516.99 1244.29 516.99C1241.56 516.99 1240.23 518.355 1239.46 520.105V517.34ZM1263.36 518.32C1264.1 518.32 1264.8 518.67 1264.1 520.105H1262.84C1262.1 522.59 1263.22 524.06 1265.57 524.06C1267.46 524.06 1268.51 522.73 1268.51 520.735C1268.51 518.075 1266.86 516.99 1264.8 516.99C1262.7 516.99 1260.74 518.215 1260.11 520.7V517.34H1251.67V517.97H1253.6V533.37H1251.67V534H1262.59V533.37H1260.11V523.99C1260.11 520.84 1261.68 518.32 1263.36 518.32ZM1280.13 527.105C1280.13 531.655 1280.03 533.72 1278.03 533.72C1275.9 533.72 1275.83 531.095 1275.83 527.035V524.305C1275.83 520.35 1275.93 517.62 1278.07 517.62C1280.03 517.62 1280.13 520.35 1280.13 524.13V527.105ZM1269.11 525.74C1269.11 531.2 1272.08 534.35 1277.96 534.35C1284.19 534.35 1286.85 531.165 1286.85 525.425C1286.85 519.755 1284.05 516.99 1278.17 516.99C1272.54 516.99 1269.11 520 1269.11 525.74ZM1296.27 517.34H1287.48V517.97H1289.76V535.96C1289.76 541 1289.37 542.155 1287.8 542.155C1286.61 542.155 1285.8 541.14 1286.61 539.88H1287.94C1288.04 539.46 1288.15 538.9 1288.15 538.41C1288.15 536.905 1287.31 535.715 1285.45 535.715C1283.7 535.715 1282.23 536.765 1282.23 538.865C1282.23 540.65 1283.6 542.75 1287.83 542.75C1294.03 542.75 1296.27 538.27 1296.27 530.99V517.34ZM1289.51 511.67C1289.51 513.14 1290.18 514.925 1293.01 514.925C1295.53 514.925 1296.55 513.49 1296.55 511.635C1296.55 509.5 1295.25 508.415 1293.08 508.415C1290.46 508.415 1289.51 509.955 1289.51 511.67ZM1298.88 525.705C1298.88 530.78 1301.68 534.35 1307.91 534.35C1312.88 534.35 1314.7 532.04 1315.5 529.03L1314.87 528.925C1314.1 531.62 1312.35 533.265 1309.76 533.265C1306.37 533.265 1305.63 530.465 1305.63 526.335V524.97H1315.5C1315.71 519.755 1313.37 516.99 1307.87 516.99C1303.01 516.99 1298.88 519.65 1298.88 525.705ZM1305.67 524.27V522.555C1305.67 518.845 1306.33 517.655 1307.56 517.655C1308.99 517.655 1309.27 518.88 1309.27 522.555V524.27H1305.67ZM1326.55 517.62C1327.53 517.62 1328.23 518.11 1328.23 519.3C1328.23 519.65 1328.16 520.07 1327.98 520.56H1326.83C1326.69 521.05 1326.65 521.505 1326.65 521.82C1326.65 523.78 1327.95 524.725 1329.77 524.725C1331.52 524.725 1332.67 523.605 1332.67 521.435C1332.67 518.81 1330.54 516.99 1326.27 516.99C1320.49 516.99 1316.92 520 1316.92 525.88C1316.92 531.34 1319.93 534.35 1325.32 534.35C1331.17 534.35 1332.32 530.815 1332.78 528.645L1332.15 528.575C1331.76 530.465 1330.4 533.16 1327.21 533.16C1324.48 533.16 1323.68 531.165 1323.68 526.685V524.865C1323.68 519.65 1324.52 517.62 1326.55 517.62ZM1335.42 528.995C1335.42 533.335 1337.9 534.35 1341.37 534.35C1345.64 534.35 1346.79 531.83 1347.11 529.1L1346.51 529.03C1346.2 531.41 1345.15 532.95 1343.47 532.95C1342.24 532.95 1341.93 531.83 1341.93 529.765V517.97H1346.48V517.34H1341.93V511.215L1335.42 512.825V517.34H1333.49V517.97H1335.42V528.995Z" fill="black"/>
<path d="M1043.54 537.5H1049.84V539.25H1043.54V537.5Z" fill="black"/>
<path d="M1049.83 537.5H1347.11V539.25H1049.83V537.5Z" fill="black"/>
<a href="https://www.instagram.com/mingyes_project/">
<rect fill="black" fill-opacity="0" x="195.542" y="-0.1" width="303.565" height="39.2"/>
</a>
</g>
<defs>
<clipPath id="clip0">
<rect width="1440" height="1021" fill="white"/>
</clipPath>
</defs>
</svg>
