<svg width="586" height="36" viewBox="0 0 586 36" fill="none" xmlns="http://www.w3.org/2000/svg">
<path d="M12.104 0.871999C4.712 0.871999 1.016 4.184 1.016 8.216C1.016 10.568 2.312 12.68 5.288 12.68C7.688 12.68 9.512 11.192 9.512 8.936C9.512 8.024 9.368 7.4 9.128 6.776H7.736C7.544 6.248 7.448 5.768 7.448 5.384C7.448 3.848 8.216 1.736 10.808 1.736C13.592 1.736 14.36 4.424 14.36 8.6C14.36 14.984 13.112 16.376 7.496 16.952L7.64 18.008C9.56 17.816 10.28 17.72 11.816 17.384C14.168 18.536 15.704 20.504 15.704 25.64C15.704 31.208 14.84 34.52 10.808 34.52C7.256 34.52 6.776 32.408 6.776 31.112C6.776 30.536 6.872 30.056 7.064 29.528H8.552C8.792 28.904 8.936 28.28 8.936 27.368C8.936 25.112 7.208 23.624 4.808 23.624C1.832 23.624 0.44 25.736 0.44 28.232C0.44 33.944 6.392 35.48 11 35.48C19.928 35.48 25.064 31.544 25.064 25.496C25.064 20.744 21.752 17.192 13.448 16.616V16.52C19.832 15.464 23.384 12.68 23.384 8.504C23.384 3.8 20.456 0.871999 12.104 0.871999ZM42.2596 18.008C44.8516 18.008 45.5236 19.784 45.5236 23.192V26.696C45.5236 33.464 47.2996 35.48 53.3476 35.48C57.8116 35.48 59.1556 34.088 59.8756 28.616L59.0596 28.52C58.4356 32.264 57.7156 32.648 56.8516 32.648C55.5076 32.648 55.3636 31.544 55.3636 28.424V25.88C55.3636 20.312 53.5876 18.296 48.4036 17.624V17.48C53.4916 17.048 56.5636 15.32 56.5636 9.464C56.5636 2.456 51.7636 1.4 41.7316 1.4H27.2356V2.312H30.3556V34.088H27.2356V35H42.8356V34.088H39.7156V18.008H42.2596ZM39.7156 2.312H41.2996C44.6596 2.312 46.6276 3.176 46.6276 8.552V9.944C46.6276 15.128 44.8036 17.096 41.2516 17.096H39.7156V2.312ZM95.147 17.624C95.147 5.672 88.571 1.4 76.715 1.4H61.883V2.312H65.051V34.088H61.883V35H75.467C86.939 35 95.147 31.16 95.147 17.624ZM74.411 34.088V2.312H75.563C82.283 2.312 85.259 4.712 85.259 16.376V19.16C85.259 29.912 82.715 34.088 76.235 34.088H74.411ZM106.454 1.4V2.312H109.574V34.088H106.454V35H124.934V34.088H118.934V21.224H119.318C128.63 21.224 134.918 19.112 134.918 10.952C134.918 3.416 129.59 1.4 120.566 1.4H106.454ZM118.934 2.312H120.23C123.878 2.312 125.03 4.232 125.03 9.656V11.96C125.03 17.528 123.974 20.312 119.942 20.312H118.934V2.312ZM159.736 20.168C159.736 29.816 159.064 34.472 153.688 34.472C148.072 34.472 147.496 29.288 147.496 20.264V16.808C147.496 6.968 147.88 1.88 153.688 1.88C159.448 1.88 159.736 6.776 159.736 16.616V20.168ZM137.656 18.728C137.656 29.288 142.792 35.48 153.496 35.48C164.584 35.48 169.624 28.808 169.624 18.104C169.624 7.208 164.392 0.871999 154.072 0.871999C143.368 0.871999 137.656 7.688 137.656 18.728ZM186.725 34.472C181.445 34.472 176.789 28.856 174.389 24.056H173.573L174.053 35.48H174.725C175.109 34.568 175.397 34.04 176.165 34.04C177.509 34.04 181.541 35.48 186.197 35.48C193.253 35.48 197.957 30.92 197.957 24.008C197.957 16.04 192.053 14.216 186.725 12.776C181.877 11.48 178.613 10.28 178.613 6.728C178.613 3.896 181.013 1.88 184.469 1.88C189.413 1.88 192.677 6.68 195.125 11.096H195.893L195.557 1.4H195.029C194.693 2.024 194.453 2.36 193.637 2.36C192.005 2.36 189.509 0.871999 185.093 0.871999C177.701 0.871999 173.717 5.912 173.717 11.288C173.717 18.536 178.133 20.84 183.941 22.472C189.845 24.152 192.821 25.448 192.821 29.432C192.821 32.936 189.605 34.472 186.725 34.472ZM228.278 1.4H199.958L199.478 13.448H200.39C202.838 6.008 204.47 2.408 208.838 2.408H209.462V33.992H205.382V35H222.902V33.992H218.822V2.408H219.398C223.766 2.408 225.254 5.624 227.846 13.448H228.758L228.278 1.4ZM231.524 1.4V2.456H234.356V33.944H231.524V35H257.876L258.26 24.536H257.3C255.86 29.768 251.636 33.944 245.54 33.944H243.716V18.536H244.868C248.228 18.536 250.052 20.408 251.204 25.208H252.02V11H251.3C250.484 14.648 248.468 17.288 245.348 17.288H243.716V2.456H245.396C251.204 2.456 253.46 4.616 256.1 10.904H256.964L256.484 1.4H231.524ZM276.213 18.008C278.805 18.008 279.477 19.784 279.477 23.192V26.696C279.477 33.464 281.253 35.48 287.301 35.48C291.765 35.48 293.109 34.088 293.829 28.616L293.013 28.52C292.389 32.264 291.669 32.648 290.805 32.648C289.461 32.648 289.317 31.544 289.317 28.424V25.88C289.317 20.312 287.541 18.296 282.357 17.624V17.48C287.445 17.048 290.517 15.32 290.517 9.464C290.517 2.456 285.717 1.4 275.685 1.4H261.189V2.312H264.309V34.088H261.189V35H276.789V34.088H273.669V18.008H276.213ZM273.669 2.312H275.253C278.613 2.312 280.581 3.176 280.581 8.552V9.944C280.581 15.128 278.757 17.096 275.205 17.096H273.669V2.312ZM304.461 1.4V2.456H307.293V33.944H304.461V35H330.813L331.197 24.536H330.237C328.797 29.768 324.573 33.944 318.477 33.944H316.653V18.536H317.805C321.165 18.536 322.989 20.408 324.141 25.208H324.957V11H324.237C323.421 14.648 321.405 17.288 318.285 17.288H316.653V2.456H318.333C324.141 2.456 326.397 4.616 329.037 10.904H329.901L329.421 1.4H304.461ZM366.069 35V34.088H363.285L352.389 15.32L360.501 2.36H363.669V1.4H353.829V2.36H358.821L351.573 13.976L345.093 2.36H348.357V1.4H332.181V2.36H334.773L344.805 19.976L336.405 34.088H333.189V35H343.125V34.088H338.037L345.669 21.416L352.821 34.088H349.653V35H366.069ZM367.602 1.4V2.312H370.434V34.088H367.602V35H382.578V34.088H379.794V18.44H389.346V34.088H386.514V35H401.538V34.088H398.706V2.312H401.538V1.4H386.514V2.312H389.346V17.192H379.794V2.312H382.578V1.4H367.602ZM403.747 1.4V2.312H406.387V34.088H403.747V35H418.387V34.088H415.747V2.312H418.387V1.4H403.747ZM420.617 1.4V2.312H423.737V34.088H420.617V35H434.729C443.753 35 449.993 33.032 449.993 25.592C449.993 20.552 446.441 18.008 440.393 17.24V17.144C445.433 16.328 448.313 13.88 448.313 9.272C448.313 3.32 443.417 1.4 434.969 1.4H420.617ZM433.097 18.008H434.201C438.857 18.008 440.105 20.408 440.105 24.344V26.888C440.105 31.304 439.049 34.088 435.353 34.088H433.097V18.008ZM433.097 2.312H434.633C437.993 2.312 438.809 4.088 438.809 8.696V10.952C438.809 14.888 437.801 17.096 434.345 17.096H433.097V2.312ZM452.45 1.4V2.312H455.09V34.088H452.45V35H467.09V34.088H464.45V2.312H467.09V1.4H452.45ZM498.841 1.4H470.521L470.041 13.448H470.953C473.401 6.008 475.033 2.408 479.401 2.408H480.025V33.992H475.945V35H493.465V33.992H489.385V2.408H489.961C494.329 2.408 495.817 5.624 498.409 13.448H499.321L498.841 1.4ZM502.278 1.4V2.312H504.918V34.088H502.278V35H516.918V34.088H514.278V2.312H516.918V1.4H502.278ZM542.189 20.168C542.189 29.816 541.517 34.472 536.141 34.472C530.525 34.472 529.949 29.288 529.949 20.264V16.808C529.949 6.968 530.333 1.88 536.141 1.88C541.901 1.88 542.189 6.776 542.189 16.616V20.168ZM520.109 18.728C520.109 29.288 525.245 35.48 535.949 35.48C547.037 35.48 552.077 28.808 552.077 18.104C552.077 7.208 546.845 0.871999 536.525 0.871999C525.821 0.871999 520.109 7.688 520.109 18.728ZM582.367 2.312H585.007V1.4H578.431V2.312H581.071V25.496L568.495 1.4H555.247V2.312H557.887V34.088H555.247V35H561.823V34.088H559.183V3.944L575.647 35H582.367V2.312Z" fill="black"/>
</svg>
