<svg width="406" height="273" viewBox="0 0 406 273" fill="none" xmlns="http://www.w3.org/2000/svg">
<path d="M202.538 255.422C183.803 265.824 161.08 272.142 134.385 272.592C-44.7789 269.554 -44.811 3.07089 134.385 0.0161743C161.08 0.466339 183.803 6.76868 202.554 17.1868C114.235 66.2229 114.251 206.386 202.538 255.422Z" fill="#B7AEAC"/>
<path d="M270.708 272.592C244.012 272.142 221.289 265.84 202.538 255.422C227.046 241.82 244.752 221.193 255.655 197.447C260.335 198.492 265.336 199.103 270.708 199.199C353.415 197.784 353.398 74.7921 270.708 73.3934C265.336 73.4899 260.335 74.1008 255.655 75.1458C244.752 51.3995 227.046 30.7722 202.554 17.1707C221.289 6.76865 244.012 0.450226 270.708 6.10352e-05C449.871 3.05478 449.903 269.538 270.708 272.592Z" fill="#DB3C1D"/>
<path d="M255.655 75.1622C193.034 89.2299 193.05 183.395 255.655 197.463C244.752 221.209 227.046 241.837 202.538 255.438C114.251 206.402 114.235 66.2392 202.538 17.1871C227.046 30.7886 244.752 51.4159 255.655 75.1622Z" fill="#262525"/>
<path d="M255.655 75.1622C260.319 74.1171 265.336 73.5062 270.708 73.4098C353.399 74.8085 353.415 197.801 270.708 199.215C265.336 199.119 260.319 198.508 255.655 197.463C273.136 159.359 273.136 113.249 255.655 75.1622Z" fill="white"/>
<path d="M255.655 75.162C273.152 113.249 273.152 159.376 255.655 197.463C193.034 183.379 193.034 89.2298 255.655 75.162Z" fill="white"/>
</svg>
