<svg width="568" height="382" viewBox="0 0 568 382" fill="none" xmlns="http://www.w3.org/2000/svg">
<path d="M283.829 357.938C257.575 372.515 225.731 381.369 188.322 382C-62.7514 377.742 -62.7964 4.30333 188.322 0.0225859C225.731 0.653432 257.575 9.48526 283.852 24.0849C160.084 92.802 160.107 289.221 283.829 357.938Z" fill="#B7AEAC"/>
<path d="M379.359 382C341.949 381.369 310.106 372.537 283.829 357.938C318.174 338.877 342.986 309.971 358.265 276.694C364.823 278.158 371.832 279.014 379.359 279.15C495.261 277.167 495.239 104.811 379.359 102.851C371.832 102.986 364.823 103.842 358.265 105.306C342.986 72.0291 318.174 43.1228 283.852 24.0623C310.106 9.4852 341.949 0.63084 379.359 -6.74611e-06C630.432 4.28074 630.477 377.719 379.359 382Z" fill="#DB3C1D"/>
<path d="M358.265 105.33C270.51 125.043 270.532 257.003 358.265 276.717C342.986 309.994 318.173 338.9 283.829 357.961C160.106 289.244 160.084 92.8253 283.829 24.0856C318.173 43.1461 342.986 72.0524 358.265 105.33Z" fill="#262525"/>
<path d="M358.266 105.33C364.801 103.865 371.832 103.009 379.359 102.874C495.239 104.834 495.262 277.19 379.359 279.173C371.832 279.038 364.801 278.181 358.266 276.717C382.762 223.32 382.762 158.704 358.266 105.33Z" fill="white"/>
<path d="M358.265 105.33C382.785 158.704 382.785 223.343 358.265 276.717C270.51 256.981 270.51 125.044 358.265 105.33Z" fill="white"/>
</svg>
