<svg width="273" height="405" viewBox="0 0 273 405" fill="none" xmlns="http://www.w3.org/2000/svg">
<path d="M255.486 202.503C265.891 221.233 272.211 243.95 272.661 270.639C269.622 449.757 3.07111 449.789 0.015625 270.639C0.465906 243.95 6.76984 221.233 17.1906 202.487C66.2392 290.784 206.437 290.767 255.486 202.503Z" fill="#B7AEAC"/>
<path d="M272.661 134.351C272.211 161.039 265.907 183.757 255.486 202.503C241.882 178.001 221.249 160.3 197.497 149.399C198.542 144.721 199.153 139.721 199.25 134.351C197.834 51.6649 74.811 51.681 73.4119 134.351C73.5084 139.721 74.1195 144.721 75.1648 149.399C51.4125 160.3 30.7799 178.001 17.175 202.487C6.77029 183.757 0.450281 161.039 0 134.351C3.0394 -44.7673 269.606 -44.7995 272.661 134.351Z" fill="#DB3C1D"/>
<path d="M75.1808 149.399C89.252 212.004 183.441 211.988 197.513 149.399C221.265 160.299 241.897 178 255.502 202.502C206.454 290.767 66.2555 290.783 17.207 202.502C30.7959 178 51.4284 160.299 75.1808 149.399Z" fill="#262525"/>
<path d="M75.1806 149.399C74.1353 144.737 73.5242 139.721 73.4277 134.351C74.8268 51.6811 197.85 51.665 199.265 134.351C199.169 139.721 198.558 144.737 197.512 149.399C159.399 131.923 113.278 131.923 75.1806 149.399Z" fill="white"/>
<path d="M75.1807 149.399C113.278 131.907 159.415 131.907 197.513 149.399C183.425 212.005 89.252 212.005 75.1807 149.399Z" fill="white"/>
</svg>
