<svg width="1440" height="1021" viewBox="0 0 1440 1021" fill="none" xmlns="http://www.w3.org/2000/svg">
<g clip-path="url(#clip0)">
<rect width="1440" height="1021" fill="white"/>
<path d="M1166.01 202.889V186.439C1166.23 189.149 1166.35 191.899 1166.35 194.669C1166.35 197.439 1166.23 200.179 1166.01 202.889Z" fill="#08B710"/>
<rect y="-3" width="1440" height="1024" fill="white"/>
<path d="M1439.54 837.614C1431.05 839.656 1421.93 840.894 1412.15 841.216C1261.37 840.83 1258.13 616.647 1408.84 611.888C1418.64 611.92 1427.79 612.901 1436.32 614.685C1405.45 684.59 1406.65 768.659 1439.54 837.614Z" fill="white"/>
<path d="M1439.54 837.614C1406.65 768.642 1405.45 684.574 1436.32 614.685C1550.83 638.689 1553.32 810.331 1439.54 837.614Z" fill="white"/>
<path d="M598.452 895.725H696.484C681.351 921.701 653.727 940.753 613.599 941.446C594.382 941.126 578.061 936.563 564.583 929.065C579.262 920.914 590.565 909.267 598.452 895.725Z" fill="#DB3C1D"/>
<path d="M564.596 757.801V895.725H598.466C590.579 909.267 579.276 920.9 564.596 929.065C501.128 893.791 501.115 793.076 564.596 757.801Z" fill="#DB3C1D"/>
<path d="M602.776 887.414C606.139 888.174 609.742 888.614 613.599 888.681C673.077 887.667 673.064 799.213 613.599 798.212C609.742 798.279 606.139 798.719 602.776 799.48C594.943 782.416 582.198 767.607 564.583 757.828C578.061 750.33 594.382 745.78 613.599 745.447C702.329 746.954 729.966 838.303 696.484 895.752H598.452C600.027 893.03 601.482 890.255 602.776 887.414Z" fill="#DB3C1D"/>
<path d="M602.79 799.466C557.751 809.579 557.764 877.3 602.79 887.413C601.482 890.255 600.041 893.03 598.466 895.738H564.597V757.814C582.199 767.593 594.943 782.389 602.79 799.466Z" fill="#DB3C1D"/>
<path d="M602.79 799.466C606.153 798.705 609.756 798.265 613.613 798.198C673.078 799.199 673.091 887.653 613.613 888.667C609.756 888.6 606.14 888.16 602.79 887.4C615.361 860.023 615.361 826.856 602.79 799.466Z" fill="white"/>
<path d="M602.79 799.466C615.361 826.856 615.361 860.023 602.79 887.413C557.751 877.287 557.751 809.579 602.79 799.466Z" fill="white"/>
<path d="M948.478 38.0414C979.819 37.4981 988.517 2.91248 974.594 -16.5537H1016.33C1027.24 25.06 1004.63 76.4659 948.49 77.4463C892.352 76.4777 869.744 25.06 880.653 -16.5537H922.387C908.44 2.91248 917.138 37.4981 948.478 38.0414Z" fill="#DB3C1D"/>
<path d="M171 496.54C176.16 496.54 179.76 501.64 183.06 509.02H184.14L183.66 496H183C182.58 496.78 182.34 497.2 181.38 497.2C179.28 497.2 176.4 495.34 170.16 495.34C157.86 495.34 149.46 503.02 149.46 517.54C149.46 531.88 157.26 538.6 169.98 538.6C176.58 538.6 179.88 536.74 181.92 536.74C182.88 536.74 183.12 537.16 183.54 537.94H184.2L184.62 524.56H183.54C180.18 532.36 176.28 537.4 171.42 537.4C164.88 537.4 161.7 530.26 161.7 519.22V514.48C161.7 502.06 164.94 496.54 171 496.54ZM203.426 523.9C194.846 523.9 189.626 525.28 189.626 531.34C189.626 537.34 194.306 538.6 198.506 538.6C202.706 538.6 204.446 537.04 205.406 534.16C206.126 537.1 208.826 538.6 213.686 538.6C218.846 538.6 221.066 536.56 221.366 529.36L220.466 529.3C220.166 534.34 219.146 535.48 218.066 535.48C217.046 535.48 216.326 534.82 216.326 532.36V520.18C216.326 511.48 213.146 508.84 203.726 508.84C195.566 508.84 191.186 511.18 191.186 516.22C191.186 519.16 192.626 521.2 196.346 521.2C199.346 521.2 201.626 519.34 201.626 516.52C201.626 515.38 201.446 514.6 201.146 513.82H199.646C199.406 513.16 199.286 512.56 199.286 512.08C199.286 510.16 201.026 509.68 202.106 509.68C204.506 509.68 205.166 511.66 205.166 519.28V523.9H203.426ZM202.586 536.2C201.446 536.2 201.026 535.6 201.026 531.28V530.32C201.026 526.66 202.226 524.86 204.746 524.86H205.166V530.44C205.166 534.28 203.726 536.2 202.586 536.2ZM241.095 511.42C243.135 511.42 243.855 513.4 243.855 521.86V524.98C243.855 533.32 243.255 536.86 240.315 536.86C237.795 536.86 236.415 533.92 236.415 530.68V519.52C236.415 514.3 238.635 511.42 241.095 511.42ZM236.415 493H221.955V494.08H225.255V536.92H221.955V538H235.635L236.055 534.46C236.895 537.46 238.935 538.6 243.075 538.6C251.235 538.6 255.435 534.04 255.435 523.78C255.435 513.52 251.295 508.84 244.455 508.84C239.895 508.84 237.735 511 236.415 514V493ZM260.169 499.72C260.169 502.24 261.309 505.3 266.169 505.3C270.489 505.3 272.229 502.84 272.229 499.66C272.229 496 270.009 494.14 266.289 494.14C261.789 494.14 260.169 496.78 260.169 499.72ZM256.989 509.44V510.52H260.529V536.92H257.229V538H275.049V536.92H271.689V509.44H256.989ZM276.392 509.44V510.52H279.692V536.92H276.392V538H293.432V536.92H290.852V520.36C290.852 515.5 293.192 511.72 295.712 511.72C297.212 511.72 297.932 512.32 297.932 517.42V536.92H295.472V538H312.452V536.92H309.092V518.86C309.092 511.6 305.372 508.84 299.792 508.84C293.852 508.84 291.872 511.96 290.852 514.96V509.44H276.392ZM313.545 523.78C313.545 532.48 318.345 538.6 329.025 538.6C337.545 538.6 340.665 534.64 342.045 529.48L340.965 529.3C339.645 533.92 336.645 536.74 332.205 536.74C326.385 536.74 325.125 531.94 325.125 524.86V522.52H342.045C342.405 513.58 338.385 508.84 328.965 508.84C320.625 508.84 313.545 513.4 313.545 523.78ZM325.185 521.32V518.38C325.185 512.02 326.325 509.98 328.425 509.98C330.885 509.98 331.365 512.08 331.365 518.38V521.32H325.185ZM347.182 529.42C347.182 536.86 351.442 538.6 357.382 538.6C364.702 538.6 366.682 534.28 367.222 529.6L366.202 529.48C365.662 533.56 363.862 536.2 360.982 536.2C358.882 536.2 358.342 534.28 358.342 530.74V510.52H366.142V509.44H358.342V498.94L347.182 501.7V509.44H343.882V510.52H347.182V529.42ZM401.977 496.54C407.137 496.54 410.737 501.64 414.037 509.02H415.117L414.637 496H413.977C413.557 496.78 413.317 497.2 412.357 497.2C410.257 497.2 407.377 495.34 401.137 495.34C388.837 495.34 380.437 503.02 380.437 517.54C380.437 531.88 388.237 538.6 400.957 538.6C407.557 538.6 410.857 536.74 412.897 536.74C413.857 536.74 414.097 537.16 414.517 537.94H415.177L415.597 524.56H414.517C411.157 532.36 407.257 537.4 402.397 537.4C395.857 537.4 392.677 530.26 392.677 519.22V514.48C392.677 502.06 395.917 496.54 401.977 496.54ZM419.762 493V494.08H423.302V536.92H420.002V538H437.822V536.92H434.462V493H419.762ZM473.794 538V536.92H470.494V509.44H456.574V510.52H459.334V528.88C459.334 533.44 457.474 535.9 455.074 535.9C453.574 535.9 452.854 535.12 452.854 530.02V509.44H438.334V510.52H441.694V528.58C441.694 535.84 445.414 538.6 450.994 538.6C456.394 538.6 458.314 536.44 459.454 533.62L460.114 538H473.794ZM494.162 511.42C496.202 511.42 496.922 513.4 496.922 521.86V524.98C496.922 533.32 496.322 536.86 493.382 536.86C490.862 536.86 489.482 533.92 489.482 530.68V519.52C489.482 514.3 491.702 511.42 494.162 511.42ZM489.482 493H475.022V494.08H478.322V536.92H475.022V538H488.702L489.122 534.46C489.962 537.46 492.002 538.6 496.142 538.6C504.302 538.6 508.502 534.04 508.502 523.78C508.502 513.52 504.362 508.84 497.522 508.84C492.962 508.84 490.802 511 489.482 514V493Z" fill="black"/>
<path d="M1380.41 401C1429.09 401.129 1470.67 412.013 1505.12 430.502C1460.82 455.953 1429.09 494.008 1409.82 537.578C1401.28 535.793 1392.12 534.796 1382.34 534.78C1231.62 539.523 1234.87 763.722 1385.65 764.108C1395.43 763.803 1404.55 762.549 1413.04 760.507C1433.54 803.514 1466.35 840.637 1511.38 864.785C1477.49 884.255 1436.24 896.345 1387.6 897.872C1060.9 897.052 1053.84 411.29 1380.41 401Z" fill="#DB3C1D"/>
<path d="M1413.08 760.491C1526.86 733.192 1524.36 561.566 1409.86 537.562C1429.11 493.992 1460.84 455.937 1505.16 430.487C1533.22 445.551 1556.53 465.648 1575.07 489.073L1579.62 804.206C1561.75 828.145 1539.03 848.917 1511.42 864.785C1466.39 840.621 1433.58 803.498 1413.08 760.491Z" fill="#DB3C1D"/>
</g>
<defs>
<clipPath id="clip0">
<rect width="1440" height="1021" fill="white"/>
</clipPath>
</defs>
</svg>
