<svg width="1440" height="900" viewBox="0 0 1440 900" fill="none" xmlns="http://www.w3.org/2000/svg">
<g clip-path="url(#clip0)">
<rect width="1440" height="900" fill="#F1EEEC"/>
<rect x="-68.5" y="121.5" width="1578" height="657" fill="#17304F" stroke="black"/>
<path d="M411.791 664.037C411.791 664.037 380.51 672.872 388.223 692.646C395.937 712.42 408.792 709.896 408.792 709.896C408.792 709.896 433.645 708.633 433.217 692.646C432.788 676.659 444.787 663.196 411.791 664.037Z" fill="#F1EEEC"/>
<path d="M621.528 776.025C621.528 776.025 600.673 781.979 605.816 795.305C610.958 808.631 619.528 806.93 619.528 806.93C619.528 806.93 636.097 806.079 635.811 795.305C635.526 784.531 643.524 775.458 621.528 776.025Z" fill="#F1EEEC"/>
<path d="M1275.04 181.027C1275.04 181.027 1253.54 187.365 1258.84 201.551C1264.14 215.736 1272.98 213.925 1272.98 213.925C1272.98 213.925 1290.07 213.02 1289.77 201.551C1289.48 190.081 1297.73 180.423 1275.04 181.027Z" fill="#F1EEEC"/>
<path d="M559.956 726.046C559.956 726.046 522.158 736.994 531.478 761.496C540.798 785.999 556.332 782.871 556.332 782.871C556.332 782.871 586.363 781.307 585.845 761.496C585.328 741.686 599.826 725.004 559.956 726.046Z" fill="#F1EEEC"/>
<path d="M1214.97 94.07C1214.97 94.07 1156.97 110.588 1171.27 147.556C1185.57 184.524 1209.41 179.805 1209.41 179.805C1209.41 179.805 1255.49 177.445 1254.69 147.556C1253.9 117.667 1276.15 92.4969 1214.97 94.07Z" fill="#F1EEEC"/>
<path d="M475.066 714.076C475.066 714.076 413.156 731.938 428.421 771.915C443.687 811.892 469.13 806.789 469.13 806.789C469.13 806.789 518.319 804.237 517.471 771.915C516.623 739.593 540.369 712.375 475.066 714.076Z" fill="#F1EEEC"/>
<path d="M435.275 397.037C435.275 397.037 404.645 405.872 412.198 425.646C419.75 445.42 432.338 442.896 432.338 442.896C432.338 442.896 456.674 441.633 456.254 425.646C455.834 409.659 467.583 396.196 435.275 397.037Z" fill="#F1EEEC"/>
</g>
<defs>
<clipPath id="clip0">
<rect width="1440" height="900" fill="white"/>
</clipPath>
</defs>
</svg>
