<svg width="770" height="776" viewBox="0 0 770 776" fill="none" xmlns="http://www.w3.org/2000/svg">
<g opacity="0.1">
<path opacity="0.8" d="M719.197 283.134C719.197 283.134 697.37 279.794 658.083 269.972C618.796 260.151 594.786 280.886 594.786 280.886C594.786 280.886 594.786 280.886 581.691 283.068C568.595 285.251 586.056 228.502 586.056 228.502C586.056 228.502 592.604 226.32 603.517 169.571C614.43 112.823 593.695 41.8868 593.695 41.8868C548.951 -25.775 498.75 10.2385 495.476 4.73828C492.202 -0.761967 455.098 65.8958 442.002 74.6263C428.906 83.3569 415.81 136.832 415.81 136.832L395.075 124.827C380.888 122.644 384.162 85.5395 371.066 63.7132C357.97 41.8868 330.687 28.791 330.687 28.791C297.948 2.59929 277.213 4.78193 277.213 4.78193C176.811 29.8823 175.72 192.489 175.72 192.489C175.72 192.489 174.629 221.954 168.081 205.585C161.533 189.215 92.7798 203.402 92.7798 203.402C-70.918 273.246 73.1361 390.018 73.1361 390.018C73.1361 390.018 73.1361 390.018 102.602 394.383C132.067 398.748 103.693 422.757 103.693 422.757C-31.6306 555.898 -22.9 705.409 63.3142 702.135C149.528 698.861 248.838 582.09 248.838 582.09C223.738 756.701 317.591 798.171 360.153 765.431C402.714 732.692 393.984 696.678 395.075 656.299C396.166 615.921 427.815 659.573 427.815 659.573C578.417 755.609 604.608 681.4 629.709 659.573C654.809 637.747 612.248 570.085 577.325 555.898C542.403 541.711 575.143 525.341 575.143 525.341C580.599 529.706 693.005 476.232 693.005 476.232C693.005 476.232 735.567 442.401 762.85 395.474C790.133 348.547 719.197 283.134 719.197 283.134ZM412.536 387.857C413.628 429.327 350.331 432.601 350.331 432.601C350.331 432.601 317.591 439.149 297.948 387.857C278.304 336.565 357.97 313.647 357.97 313.647C442.002 311.464 411.445 346.387 412.536 387.857Z" fill="#17304F"/>
</g>
</svg>
