<svg width="294" height="502" viewBox="0 0 294 502" fill="none" xmlns="http://www.w3.org/2000/svg">
<g clip-path="url(#clip0)">
<path d="M142.825 10.1148C142.825 10.1148 166.797 12.2924 168.975 26.0959C171.152 39.8993 182.049 32.6376 182.049 32.6376C182.049 32.6376 205.292 56.6092 197.302 67.5063C189.311 78.4033 213.283 44.2635 209.647 14.4789C206.012 -15.3057 224.18 10.1236 224.18 10.1236C224.18 10.1236 242.338 24.6026 237.254 34.7975C232.17 44.9923 248.88 82.0386 206.741 99.4773C206.741 99.4773 253.235 60.2534 260.497 74.048C267.759 87.8515 293.188 88.5803 293.188 88.5803C293.188 88.5803 262.675 118.365 259.048 124.907C255.422 131.448 232.899 137.252 211.825 130.72C211.825 130.72 252.507 141.617 251.049 162.682C249.6 183.747 266.301 192.466 266.301 192.466C266.301 192.466 257.582 196.822 245.236 196.102C232.89 195.373 209.639 193.195 210.367 178.663C210.367 178.663 180.583 151.785 187.844 138.71L211.816 172.85C211.816 172.85 160.238 237.503 150.798 220.073C141.35 202.634 132.64 183.027 158.06 158.327C183.48 133.626 160.958 121.28 141.35 125.635C121.743 129.991 113.023 130.72 113.023 130.72C113.023 130.72 105.761 130.72 97.042 124.178C88.3227 117.636 66.5286 96.5709 71.6127 92.9445C76.6968 89.318 76.6968 89.3092 76.6968 89.3092C76.6968 89.3092 135.537 73.3281 139.901 85.6739C144.256 98.0197 144.256 51.5341 140.63 43.5435C137.004 35.553 142.825 10.1148 142.825 10.1148Z" fill="#17304F"/>
<path d="M185.089 77.9767C185.089 77.9767 183.907 77.7722 182.084 77.5678C175.747 76.8656 161.641 76.1723 162.121 84.1096C162.744 94.3311 163.366 84.1096 162.744 94.3311C162.121 104.553 168.334 101.824 164.61 109.317C160.886 116.809 158.38 117.494 162.113 121.582C165.846 125.671 163.366 120.223 165.846 125.671C168.325 131.12 165.223 127.031 168.325 131.12C171.427 135.208 178.876 136.568 181.365 137.937C183.844 139.297 173.916 135.893 183.844 139.297C193.781 142.701 193.781 142.025 199.363 139.297C204.954 136.568 204.954 136.568 208.056 130.444C211.158 124.32 214.882 119.547 211.78 117.503C208.678 115.458 207.283 114.232 212.945 109.397C218.606 104.561 212.945 99.113 212.945 99.113C212.945 99.113 208.669 101.842 209.914 93.6644C211.158 85.4872 209.914 84.1273 206.812 86.8471C203.71 89.5758 197.266 81.6386 191.915 80.0299C185.089 77.9767 185.089 77.9767 185.089 77.9767Z" fill="#F1EEEC"/>
<path d="M165.846 125.671C165.846 125.671 97.0598 128.524 57.0982 269.457C17.1366 410.389 0.435547 501.92 0.435547 501.92" stroke="#17304F" stroke-miterlimit="10"/>
<path d="M165.846 125.671C165.846 125.671 97.0598 128.524 57.0982 269.456C17.1366 410.389 0.435547 501.92 0.435547 501.92" stroke="#17304F" stroke-miterlimit="10"/>
<path d="M165.846 125.671C165.846 125.671 97.0598 128.524 57.0982 269.456C17.1366 410.389 0.435547 501.92 0.435547 501.92" stroke="#17304F" stroke-miterlimit="10"/>
</g>
<defs>
<clipPath id="clip0">
<rect width="293.197" height="502" fill="white"/>
</clipPath>
</defs>
</svg>
