<svg width="787" height="790" viewBox="0 0 787 790" fill="none" xmlns="http://www.w3.org/2000/svg">
<path d="M735.094 288.259C735.094 288.259 712.785 284.859 672.63 274.859C632.474 264.86 607.934 285.97 607.934 285.97C607.934 285.97 607.934 285.97 594.549 288.192C581.163 290.414 599.01 232.638 599.01 232.638C599.01 232.638 605.703 230.416 616.857 172.64C628.012 114.865 606.819 42.645 606.819 42.645C561.085 -26.2415 509.775 10.4239 506.429 4.82405C503.082 -0.775759 465.157 67.0886 451.772 75.9772C438.387 84.8657 425.001 139.308 425.001 139.308L403.808 127.087C389.307 124.864 392.654 87.0879 379.268 64.8664C365.883 42.645 337.997 29.3121 337.997 29.3121C304.534 2.64634 283.34 4.86849 283.34 4.86849C180.72 30.4232 179.604 195.973 179.604 195.973C179.604 195.973 178.489 225.972 171.796 209.306C165.103 192.64 94.8306 207.084 94.8306 207.084C-72.4856 278.192 74.7527 397.077 74.7527 397.077C74.7527 397.077 74.7527 397.077 104.87 401.522C134.987 405.966 105.985 430.409 105.985 430.409C-32.3297 565.96 -23.4062 718.177 64.7137 714.844C152.834 711.511 254.339 592.626 254.339 592.626C228.684 770.398 324.612 812.618 368.114 779.286C411.616 745.954 402.693 709.289 403.808 668.179C404.923 627.069 437.271 671.512 437.271 671.512C591.202 769.287 617.973 693.734 643.628 671.512C669.283 649.291 625.781 580.404 590.087 565.96C554.393 551.516 587.856 534.85 587.856 534.85C593.433 539.295 708.324 484.852 708.324 484.852C708.324 484.852 751.826 450.409 779.712 402.633C807.598 354.856 735.094 288.259 735.094 288.259ZM421.655 394.877C422.771 437.098 358.075 440.431 358.075 440.431C358.075 440.431 324.612 447.098 304.534 394.877C284.456 342.657 365.883 319.324 365.883 319.324C451.772 317.102 420.54 352.657 421.655 394.877Z" fill="#F1EEEC"/>
</svg>
