<svg width="394" height="397" viewBox="0 0 394 397" fill="none" xmlns="http://www.w3.org/2000/svg">
<path d="M367.547 144.696C367.547 144.696 356.393 142.989 336.315 137.97C316.237 132.951 303.967 143.547 303.967 143.547C303.967 143.547 303.967 143.547 297.274 144.663C290.582 145.778 299.505 116.777 299.505 116.777C299.505 116.777 302.852 115.661 308.429 86.6597C314.006 57.6582 303.409 21.4063 303.409 21.4063C280.543 -13.1724 254.888 5.23242 253.214 2.42151C251.541 -0.389405 232.579 33.6762 225.886 38.138C219.193 42.5997 212.501 69.9281 212.501 69.9281L201.904 63.7931C194.654 62.6777 196.327 43.7152 189.634 32.5608C182.942 21.4063 168.998 14.7137 168.998 14.7137C152.267 1.32838 141.67 2.44382 141.67 2.44382C90.3598 15.2714 89.8021 98.3718 89.8021 98.3718C89.8021 98.3718 89.2444 113.43 85.8981 105.064C82.5517 96.6987 47.4153 103.949 47.4153 103.949C-36.2428 139.643 37.3763 199.319 37.3763 199.319C37.3763 199.319 37.3763 199.319 52.4348 201.55C67.4933 203.781 52.9925 216.051 52.9925 216.051C-16.1649 284.093 -11.7031 360.501 32.3569 358.828C76.4168 357.154 127.169 297.478 127.169 297.478C114.342 386.714 162.306 407.907 184.057 391.175C205.808 374.444 201.346 356.039 201.904 335.403C202.462 314.768 218.636 337.076 218.636 337.076C295.601 386.156 308.986 348.231 321.814 337.076C334.642 325.922 312.891 291.343 295.043 284.093C277.196 276.843 293.928 268.477 293.928 268.477C296.717 270.708 354.162 243.379 354.162 243.379C354.162 243.379 375.913 226.09 389.856 202.108C403.799 178.126 367.547 144.696 367.547 144.696ZM210.828 198.215C211.385 219.408 179.037 221.082 179.037 221.082C179.037 221.082 162.306 224.428 152.267 198.215C142.228 172.002 182.942 160.29 182.942 160.29C225.886 159.175 210.27 177.022 210.828 198.215Z" fill="#F1EEEC"/>
</svg>
