<svg width="157" height="102" viewBox="0 0 157 102" fill="none" xmlns="http://www.w3.org/2000/svg">
<path d="M78.4969 94.7148C71.2359 98.5721 62.4292 100.915 52.083 101.082C-17.3548 99.9553 -17.3672 1.13856 52.083 0.00581483C62.4292 0.172745 71.2359 2.50976 78.5032 6.373C44.2735 24.5565 44.2798 76.5314 78.4969 94.7148Z" fill="#B7AEAC"/>
<path d="M104.917 101.082C94.571 100.915 85.7643 98.5781 78.4971 94.7148C87.9956 89.6712 94.8578 82.0222 99.0835 73.2166C100.897 73.6041 102.836 73.8307 104.917 73.8665C136.972 73.3418 136.965 27.7341 104.917 27.2154C102.836 27.2512 100.897 27.4777 99.0835 27.8653C94.8578 19.0597 87.9956 11.4107 78.5033 6.36703C85.7643 2.50975 94.571 0.166767 104.917 -0.000162891C174.355 1.13258 174.367 99.9493 104.917 101.082Z" fill="#DB3C1D"/>
<path d="M99.0837 27.8711C74.8138 33.0877 74.82 68.0059 99.0837 73.2225C94.8579 82.0281 87.9958 89.677 78.4972 94.7207C44.2801 76.5372 44.2738 24.5623 78.4972 6.37292C87.9958 11.4166 94.8579 19.0656 99.0837 27.8711Z" fill="#262525"/>
</svg>
