<svg width="332" height="693" viewBox="0 0 332 693" fill="none" xmlns="http://www.w3.org/2000/svg">
<path d="M-63.3264 531.271H283.058C229.586 623.155 131.98 690.546 -9.80799 693C-77.7079 691.867 -135.376 675.728 -183 649.205C-131.132 620.371 -91.1937 579.171 -63.3264 531.271Z" fill="black"/>
<path d="M-48.0271 501.798C-36.1427 504.486 -23.4094 506.042 -9.78004 506.278C200.414 502.694 200.367 190.043 -9.78004 186.506C-23.4094 186.742 -36.1427 188.298 -48.0271 190.986C-75.7102 130.673 -120.748 78.3283 -183 43.7622C-135.368 17.26 -77.6909 1.17942 -9.78004 0.000491612C303.789 5.32924 401.458 328.213 283.133 531.271H-63.3071C-57.7421 521.651 -52.6016 511.843 -48.0271 501.798Z" fill="black"/>
</svg>
