<svg width="111" height="113" viewBox="0 0 111 113" fill="none" xmlns="http://www.w3.org/2000/svg">
<path d="M46.7909 86.3185H103.099C94.4064 101.239 78.5397 112.182 55.4908 112.58C44.453 112.396 35.0786 109.775 27.3369 105.469C35.7685 100.787 42.2608 94.0966 46.7909 86.3185Z" fill="#B7AEAC"/>
<path d="M27.3442 7.09707V86.3186H46.7982C42.2681 94.0967 35.7758 100.779 27.3442 105.469C-9.11091 85.2074 -9.11857 27.3584 27.3442 7.09707Z" fill="#B7AEAC"/>
<path d="M49.2744 81.5435C51.206 81.9803 53.2755 82.2332 55.4908 82.2715C89.654 81.6891 89.6464 30.8826 55.4908 30.3078C53.2755 30.3462 51.206 30.599 49.2744 31.0358C44.775 21.2347 37.4548 12.7286 27.3369 7.11154C35.0786 2.80486 44.453 0.19173 55.4908 0.00015198C106.456 0.866086 122.33 53.3356 103.099 86.333H46.7909C47.6954 84.7697 48.5309 83.1758 49.2744 81.5435Z" fill="#B7AEAC"/>
<path d="M49.2822 31.028C23.4125 36.8367 23.4202 75.7347 49.2822 81.5434C48.531 83.1756 47.7032 84.7696 46.7987 86.3252H27.3447V7.10368C37.455 12.7208 44.7751 21.2192 49.2822 31.028Z" fill="#B7AEAC"/>
</svg>
