<svg width="162" height="329" viewBox="0 0 162 329" fill="none" xmlns="http://www.w3.org/2000/svg">
<path d="M-25.4357 251.932H138.906C113.537 295.479 67.2274 327.417 -0.0439677 328.58C-32.2591 328.043 -59.6195 320.394 -82.2148 307.825C-57.6061 294.159 -38.6574 274.633 -25.4357 251.932Z" fill="#DB3C1D"/>
<path d="M-18.1873 237.996C-12.5497 239.271 -6.50936 240.009 -0.0439677 240.121C99.6663 238.421 99.6439 90.1349 -0.0439677 88.4574C-6.50936 88.5693 -12.5497 89.3073 -18.1873 90.5822C-31.3195 61.9762 -52.6843 37.1501 -82.2148 20.7558C-59.6195 8.1862 -32.2591 0.55943 -0.0439677 0.000281908C148.705 2.52763 195.036 155.667 138.906 251.975H-25.4357C-22.7959 247.412 -20.3574 242.76 -18.1873 237.996Z" fill="#DB3C1D"/>
</svg>
