<svg width="170" height="173" viewBox="0 0 170 173" fill="none" xmlns="http://www.w3.org/2000/svg">
<path d="M71.6611 132.198H157.898C144.586 155.049 120.285 171.808 84.9852 172.418C68.0806 172.137 53.7234 168.123 41.8667 161.527C54.7799 154.356 64.7231 144.11 71.6611 132.198Z" fill="white"/>
<path d="M41.8785 10.8681V132.198H71.6729C64.735 144.111 54.7918 154.345 41.8785 161.527C-13.9536 130.496 -13.9654 41.8989 41.8785 10.8681Z" fill="white"/>
<path d="M75.4646 124.886C78.4229 125.555 81.5925 125.942 84.9852 126.001C137.307 125.109 137.296 47.2971 84.9852 46.4169C81.5925 46.4756 78.4229 46.8629 75.4646 47.5319C68.5736 32.5211 57.3626 19.4938 41.8667 10.8911C53.7234 4.29526 68.0806 0.293175 84.9852 -0.000232721C163.04 1.32597 187.352 81.6846 157.898 132.221H71.6611C73.0463 129.827 74.3259 127.386 75.4646 124.886Z" fill="white"/>
<path d="M75.4768 47.5206C35.8566 56.4167 35.8684 115.99 75.4768 124.886C74.3263 127.386 73.0585 129.827 71.6733 132.21H41.8789V10.8798C57.3631 19.4825 68.5741 32.4981 75.4768 47.5206Z" fill="white"/>
</svg>
