<svg width="73" height="407" viewBox="0 0 73 407" fill="none" xmlns="http://www.w3.org/2000/svg">
<path d="M35.7823 52.3926C35.7823 52.3926 22.1623 -9.1774 47.7723 1.1726C73.3823 11.5226 35.7823 52.3926 35.7823 52.3926Z" fill="#17304F"/>
<path d="M35.7822 70.3726C35.7822 70.3726 64.1122 25.1526 68.4722 42.0426C72.8322 58.9326 35.7822 70.3726 35.7822 70.3726Z" fill="#17304F"/>
<path d="M35.7815 52.3926C35.7815 52.3926 23.2515 231.653 39.5915 289.963C55.9315 348.273 39.5915 523.713 39.5915 523.713" stroke="#17304F" stroke-miterlimit="10"/>
<path d="M33.0518 103.043C33.0518 103.043 46.4918 61.1126 52.3018 75.2726C58.1118 89.4326 33.0518 103.043 33.0518 103.043Z" fill="#17304F"/>
<path d="M32.1621 134.673C32.1621 134.673 62.4821 73.6427 65.2021 99.2527C67.9221 124.863 32.1621 134.673 32.1621 134.673Z" fill="#17304F"/>
<path d="M33.0516 76.3726C33.0516 76.3726 -3.99844 68.2026 6.90156 46.9526C17.8016 25.7026 33.0516 76.3726 33.0516 76.3726Z" fill="#17304F"/>
<path d="M32.4118 119.413C32.4118 119.413 4.90176 108.293 8.54176 87.7027C12.1818 67.1127 33.1118 95.9727 32.4118 119.413Z" fill="#17304F"/>
<path d="M31.192 152.653C31.192 152.653 -3.84803 133.063 4.90197 119.413C13.652 105.763 35.322 138.483 31.192 152.653Z" fill="#17304F"/>
<path d="M31.1924 190.793C31.1924 190.793 -12.4176 156.073 3.49236 150.473C19.4024 144.873 30.7324 165.733 31.1924 190.793Z" fill="#17304F"/>
<path d="M30.7324 165.733C30.7324 165.733 37.1624 122.143 65.3524 134.393C93.5424 146.643 30.7324 165.733 30.7324 165.733Z" fill="#17304F"/>
<path d="M32.4321 202.233C32.4321 202.233 47.6621 154.453 56.7021 170.173C65.7421 185.893 32.1621 205.503 32.1621 205.503L32.4321 202.233Z" fill="#17304F"/>
<path d="M30.7318 225.123C30.7318 225.123 -6.74821 219.853 8.20179 183.713C8.21179 183.713 25.3318 176.883 30.7318 225.123Z" fill="#17304F"/>
<path d="M32.4316 242.553C32.4316 242.553 39.9516 184.253 52.3116 209.863C64.6716 235.473 32.4316 242.553 32.4316 242.553Z" fill="#17304F"/>
<path d="M34.5716 261.583C34.5716 261.583 1.69158 249.323 15.5916 232.753C29.4916 216.183 34.5716 261.583 34.5716 261.583Z" fill="#17304F"/>
</svg>
