<svg width="220" height="180" viewBox="0 0 220 180" fill="none" xmlns="http://www.w3.org/2000/svg">
<rect x="60" width="20" height="20" fill="#FFA903"/>
<rect x="60" y="40" width="20" height="20" fill="#FFA903"/>
<rect x="60" y="80" width="20" height="20" fill="#FFA903"/>
<rect x="60" y="20" width="20" height="20" fill="#FFA903"/>
<rect x="60" y="60" width="20" height="20" fill="#FFA903"/>
<g filter="url(#filter0_i)">
<rect x="20" width="20" height="20" fill="#FFA903"/>
</g>
<rect x="20" y="140" width="20" height="20" fill="#FFA903"/>
<g filter="url(#filter1_i)">
<rect x="20" y="120" width="20" height="20" fill="#FFA903"/>
</g>
<rect x="20" y="160" width="20" height="20" fill="#FFA903"/>
<rect x="100" y="40" width="20" height="20" fill="#FFA903"/>
<g filter="url(#filter2_i)">
<rect x="100" y="60" width="20" height="20" fill="#FFA903"/>
</g>
<g filter="url(#filter3_i)">
<rect x="160" width="20" height="20" fill="#FFA903"/>
</g>
<rect x="160" y="40" width="20" height="20" fill="#FFA903"/>
<rect x="160" y="80" width="20" height="20" fill="#FFA903"/>
<rect x="160" y="140" width="20" height="20" fill="#FFA903"/>
<rect x="160" y="20" width="20" height="20" fill="#FFA903"/>
<rect x="160" y="60" width="20" height="20" fill="#FFA903"/>
<rect x="160" y="120" width="20" height="20" fill="#FFA903"/>
<rect x="160" y="100" width="20" height="20" fill="#FFA903"/>
<g filter="url(#filter4_i)">
<rect x="160" y="160" width="20" height="20" fill="#FFA903"/>
</g>
<rect y="20" width="20" height="20" fill="#FFA903"/>
<rect y="160" width="20" height="20" fill="#FFA903"/>
<rect x="80" y="20" width="20" height="20" fill="#FFA903"/>
<rect x="140" width="20" height="20" fill="#FFA903"/>
<rect x="40" width="20" height="20" fill="#FFA903"/>
<rect x="40" y="40" width="20" height="20" fill="#FFA903"/>
<rect x="40" y="80" width="20" height="20" fill="#FFA903"/>
<rect x="40" y="140" width="20" height="20" fill="#FFA903"/>
<g filter="url(#filter5_i)">
<rect x="40" y="20" width="20" height="20" fill="#FFA903"/>
</g>
<rect x="40" y="60" width="20" height="20" fill="#FFA903"/>
<rect x="40" y="120" width="20" height="20" fill="#FFA903"/>
<rect x="40" y="100" width="20" height="20" fill="#FFA903"/>
<rect x="120" y="40" width="20" height="20" fill="#FFA903"/>
<rect x="120" y="20" width="20" height="20" fill="#FFA903"/>
<rect x="180" y="160" width="20" height="20" fill="#FFA903"/>
<rect x="200" y="140" width="20" height="20" fill="#FFA903"/>
<defs>
<filter id="filter0_i" x="20" y="0" width="20" height="24" filterUnits="userSpaceOnUse" color-interpolation-filters="sRGB">
<feFlood flood-opacity="0" result="BackgroundImageFix"/>
<feBlend mode="normal" in="SourceGraphic" in2="BackgroundImageFix" result="shape"/>
<feColorMatrix in="SourceAlpha" type="matrix" values="0 0 0 0 0 0 0 0 0 0 0 0 0 0 0 0 0 0 127 0" result="hardAlpha"/>
<feOffset dy="4"/>
<feGaussianBlur stdDeviation="2"/>
<feComposite in2="hardAlpha" operator="arithmetic" k2="-1" k3="1"/>
<feColorMatrix type="matrix" values="0 0 0 0 0 0 0 0 0 0 0 0 0 0 0 0 0 0 0.25 0"/>
<feBlend mode="normal" in2="shape" result="effect1_innerShadow"/>
</filter>
<filter id="filter1_i" x="20" y="120" width="20" height="24" filterUnits="userSpaceOnUse" color-interpolation-filters="sRGB">
<feFlood flood-opacity="0" result="BackgroundImageFix"/>
<feBlend mode="normal" in="SourceGraphic" in2="BackgroundImageFix" result="shape"/>
<feColorMatrix in="SourceAlpha" type="matrix" values="0 0 0 0 0 0 0 0 0 0 0 0 0 0 0 0 0 0 127 0" result="hardAlpha"/>
<feOffset dy="4"/>
<feGaussianBlur stdDeviation="2"/>
<feComposite in2="hardAlpha" operator="arithmetic" k2="-1" k3="1"/>
<feColorMatrix type="matrix" values="0 0 0 0 0 0 0 0 0 0 0 0 0 0 0 0 0 0 0.25 0"/>
<feBlend mode="normal" in2="shape" result="effect1_innerShadow"/>
</filter>
<filter id="filter2_i" x="100" y="60" width="20" height="24" filterUnits="userSpaceOnUse" color-interpolation-filters="sRGB">
<feFlood flood-opacity="0" result="BackgroundImageFix"/>
<feBlend mode="normal" in="SourceGraphic" in2="BackgroundImageFix" result="shape"/>
<feColorMatrix in="SourceAlpha" type="matrix" values="0 0 0 0 0 0 0 0 0 0 0 0 0 0 0 0 0 0 127 0" result="hardAlpha"/>
<feOffset dy="4"/>
<feGaussianBlur stdDeviation="2"/>
<feComposite in2="hardAlpha" operator="arithmetic" k2="-1" k3="1"/>
<feColorMatrix type="matrix" values="0 0 0 0 0 0 0 0 0 0 0 0 0 0 0 0 0 0 0.25 0"/>
<feBlend mode="normal" in2="shape" result="effect1_innerShadow"/>
</filter>
<filter id="filter3_i" x="160" y="0" width="20" height="24" filterUnits="userSpaceOnUse" color-interpolation-filters="sRGB">
<feFlood flood-opacity="0" result="BackgroundImageFix"/>
<feBlend mode="normal" in="SourceGraphic" in2="BackgroundImageFix" result="shape"/>
<feColorMatrix in="SourceAlpha" type="matrix" values="0 0 0 0 0 0 0 0 0 0 0 0 0 0 0 0 0 0 127 0" result="hardAlpha"/>
<feOffset dy="4"/>
<feGaussianBlur stdDeviation="2"/>
<feComposite in2="hardAlpha" operator="arithmetic" k2="-1" k3="1"/>
<feColorMatrix type="matrix" values="0 0 0 0 0 0 0 0 0 0 0 0 0 0 0 0 0 0 0.25 0"/>
<feBlend mode="normal" in2="shape" result="effect1_innerShadow"/>
</filter>
<filter id="filter4_i" x="160" y="160" width="20" height="24" filterUnits="userSpaceOnUse" color-interpolation-filters="sRGB">
<feFlood flood-opacity="0" result="BackgroundImageFix"/>
<feBlend mode="normal" in="SourceGraphic" in2="BackgroundImageFix" result="shape"/>
<feColorMatrix in="SourceAlpha" type="matrix" values="0 0 0 0 0 0 0 0 0 0 0 0 0 0 0 0 0 0 127 0" result="hardAlpha"/>
<feOffset dy="4"/>
<feGaussianBlur stdDeviation="2"/>
<feComposite in2="hardAlpha" operator="arithmetic" k2="-1" k3="1"/>
<feColorMatrix type="matrix" values="0 0 0 0 0 0 0 0 0 0 0 0 0 0 0 0 0 0 0.25 0"/>
<feBlend mode="normal" in2="shape" result="effect1_innerShadow"/>
</filter>
<filter id="filter5_i" x="40" y="20" width="20" height="24" filterUnits="userSpaceOnUse" color-interpolation-filters="sRGB">
<feFlood flood-opacity="0" result="BackgroundImageFix"/>
<feBlend mode="normal" in="SourceGraphic" in2="BackgroundImageFix" result="shape"/>
<feColorMatrix in="SourceAlpha" type="matrix" values="0 0 0 0 0 0 0 0 0 0 0 0 0 0 0 0 0 0 127 0" result="hardAlpha"/>
<feOffset dy="4"/>
<feGaussianBlur stdDeviation="2"/>
<feComposite in2="hardAlpha" operator="arithmetic" k2="-1" k3="1"/>
<feColorMatrix type="matrix" values="0 0 0 0 0 0 0 0 0 0 0 0 0 0 0 0 0 0 0.25 0"/>
<feBlend mode="normal" in2="shape" result="effect1_innerShadow"/>
</filter>
</defs>
</svg>
