<svg width="295" height="323" viewBox="0 0 295 323" fill="none" xmlns="http://www.w3.org/2000/svg">
<g opacity="0.18" clip-path="url(#clip0)">
<path d="M180.488 183.921C180.488 183.921 226.403 4.12627 75.7407 132.349C69.5225 137.644 62.8232 142.656 62.8232 142.656C62.8232 142.656 148.916 344.553 219.223 242.861C289.53 141.168 250.795 99.9212 250.795 99.9212L204.88 200.126C204.88 200.126 52.7921 186.861 101.576 160.331C150.342 133.819 180.488 183.921 180.488 183.921Z" fill="#17304F"/>
<path d="M189.468 89.5254C189.468 89.5254 202.582 140.62 201.12 155.089C199.659 169.558 233.156 89.5254 233.156 89.5254C233.156 89.5254 118.11 -38.8741 48.213 113.115C-21.684 265.105 147.241 291.157 147.241 291.157C147.241 291.157 246.269 292.609 243.347 223.132C243.347 223.132 232.14 260.801 173.45 271.516C114.76 282.231 58.4044 180.716 62.7697 165.024C67.1349 149.333 119.197 42.4869 189.468 82.707" fill="#17304F"/>
<path d="M31.2692 220.228C31.2692 220.228 104.195 354.843 208.729 278.122C208.729 278.122 220.898 323 119.999 323C19.1 323 31.2692 220.228 31.2692 220.228Z" fill="#17304F"/>
<path d="M253.771 94.3779C253.771 94.3779 168.07 -32.5871 71.5002 53.8391C71.5002 53.8391 55.0014 10.3604 155.437 0.637412C255.873 -9.08553 253.771 94.3779 253.771 94.3779Z" fill="#17304F"/>
<path d="M261.433 105.872C261.433 105.872 314.706 160.88 287.036 204.306C259.366 247.731 243.419 254.975 243.419 254.975C243.419 254.975 292.631 175.349 261.433 105.872Z" fill="#17304F"/>
<path d="M24.0527 206.289C24.0527 206.289 -21.0962 144.534 12.3112 105.288C45.7185 66.0416 62.5379 61.0828 62.5379 61.0828C62.5379 61.0828 2.76112 133.199 24.0527 206.289Z" fill="#17304F"/>
</g>
<defs>
<clipPath id="clip0">
<rect width="295" height="323" fill="white"/>
</clipPath>
</defs>
</svg>
