<svg width="405" height="443" viewBox="0 0 405 443" fill="none" xmlns="http://www.w3.org/2000/svg">
<g opacity="0.18">
<path d="M85.6622 373.664L97.1529 319.074C97.1529 319.074 44.9209 337.896 50.1422 319.074C55.3635 300.252 60.5911 283.307 60.5911 283.307C60.5911 283.307 29.2507 273.893 31.3405 266.368C33.4303 258.842 10.449 247.545 10.449 247.545C10.449 247.545 15.6702 207.074 35.52 205.191C55.3699 203.308 0 149.663 0 149.663C0 149.663 17.76 127.075 31.3405 134.607C44.9209 142.138 5.22128 112.013 5.22128 112.013C5.22128 112.013 7.31107 83.777 36.5617 93.1909C36.5617 93.1909 25.0711 27.3104 48.5764 25.4277C72.0818 23.5449 69.992 64.0163 69.992 64.0163L86.7039 9.42677C86.7039 9.42677 98.1946 7.544 108.644 49.8982C108.644 49.8982 114.913 -0.925701 128.493 0.012817C142.074 0.951335 175.504 47.0711 175.504 47.0711C175.504 47.0711 174.462 7.85491 184.905 4.406C195.347 0.957095 230.867 51.781 230.867 51.781C230.867 51.781 251.759 40.4842 259.07 38.6072C266.381 36.7244 265.339 68.7261 273.692 69.6646C282.051 70.6031 313.392 57.4294 300.853 116.723C300.853 116.723 318.613 107.309 328.014 114.84C337.415 122.371 319.655 160.016 319.655 160.016C319.655 160.016 362.486 154.367 369.797 164.72C377.108 175.072 353.085 207.074 348.905 208.013C344.726 208.951 377.108 208.013 380.246 213.661C383.384 219.309 362.486 236.249 362.486 236.249C362.486 236.249 368.755 263.541 398.006 261.658C427.257 259.775 357.271 305.895 325.931 284.251L336.38 302.135C336.38 302.135 364.582 323.784 375.031 344.489C385.48 365.194 353.091 367.077 353.091 367.077C353.091 367.077 368.762 389.665 358.313 395.313C347.864 400.961 299.811 384.961 299.811 384.961C299.811 384.961 296.68 447.761 270.567 442.711L255.945 418.839C255.945 418.839 247.586 444.248 239.233 438.606C230.874 432.957 202.512 393.43 202.512 393.43L190.133 366.138C190.133 366.138 160.882 406.61 152.523 405.665C144.164 404.721 134.763 360.49 134.763 360.49C134.763 360.49 88.7937 385.899 85.6622 373.664Z" fill="#17304F"/>
<path d="M224.167 293.065L177.501 271.422C177.501 271.422 172.28 255.421 160.789 259.187C160.789 259.187 164.969 256.365 155.568 246.013C146.167 235.66 150.347 233.778 145.119 224.364C139.891 214.95 151.388 217.777 145.119 200.832C145.119 200.832 146.487 179.182 143.713 169.774C143.713 169.774 169.142 172.595 167.052 163.187C167.052 163.187 179.591 160.366 177.501 154.718C175.411 149.069 179.591 160.366 179.591 160.366C179.591 160.366 203.62 157.205 201.531 153.14C201.531 153.14 215.111 167.897 218.242 161.31C221.374 154.723 227.643 188.602 232.865 182.959C238.086 177.311 225.554 205.547 242.265 204.609C258.977 203.67 251.666 228.141 251.666 228.141L257.936 249.79C257.936 249.79 242.265 278.026 247.487 281.792C252.708 285.557 210.925 282.73 219.284 293.088" fill="#F1EEEC"/>
</g>
</svg>
