<svg width="299" height="435" viewBox="0 0 299 435" fill="none" xmlns="http://www.w3.org/2000/svg">
<path d="M294.538 65.7454C294.538 65.7454 274.187 142.196 231.292 118.201C231.292 118.201 197.5 103.5 210 75.0442C210 75.0442 250.311 34.3394 264.054 44.5C264.054 44.5 265.144 56.2723 258 60.5C250.856 64.7277 277.988 54.0555 280.954 55.7237C283.921 57.3919 272.99 75.0442 272.99 75.0442C272.99 75.0442 290.241 63.4925 294.538 65.7454Z" fill="#17304F"/>
<path d="M225.041 113.965C225.041 113.965 197.626 153.224 177.974 195.266C167.653 217.331 97.2668 399.528 96.3203 417.858" stroke="#17304F" stroke-miterlimit="10"/>
<path d="M95.6416 157.858C95.6416 157.858 125.399 221.366 129.297 251.046C133.194 280.726 137.136 304.538 133.813 313.029C130.503 321.525 107.522 240.374 107.522 240.374L95.6416 157.858Z" fill="#17304F"/>
</svg>
