<svg width="1440" height="1021" viewBox="0 0 1440 1021" fill="none" xmlns="http://www.w3.org/2000/svg">
<g clip-path="url(#clip0)">
<rect width="1440" height="1021" fill="white"/>
<path d="M1166.01 202.889V186.439C1166.23 189.149 1166.35 191.899 1166.35 194.669C1166.35 197.439 1166.23 200.179 1166.01 202.889Z" fill="#08B710"/>
<rect y="-3" width="1440" height="1024" fill="white"/>
<path d="M1439.54 837.614C1431.05 839.656 1421.93 840.894 1412.15 841.216C1261.37 840.83 1258.13 616.647 1408.84 611.888C1418.64 611.92 1427.79 612.901 1436.32 614.685C1405.45 684.59 1406.65 768.659 1439.54 837.614Z" fill="white"/>
<path d="M1439.54 837.614C1406.65 768.642 1405.45 684.574 1436.32 614.685C1550.83 638.689 1553.32 810.331 1439.54 837.614Z" fill="white"/>
<path d="M598.452 895.725H696.484C681.351 921.701 653.727 940.753 613.599 941.446C594.382 941.126 578.061 936.563 564.583 929.065C579.262 920.914 590.565 909.267 598.452 895.725Z" fill="#DB3C1D"/>
<path d="M564.596 757.801V895.725H598.466C590.579 909.267 579.276 920.9 564.596 929.065C501.128 893.791 501.115 793.076 564.596 757.801Z" fill="#DB3C1D"/>
<path d="M602.776 887.414C606.139 888.174 609.742 888.614 613.599 888.681C673.077 887.667 673.064 799.213 613.599 798.212C609.742 798.279 606.139 798.719 602.776 799.48C594.943 782.416 582.198 767.607 564.583 757.828C578.061 750.33 594.382 745.78 613.599 745.447C702.329 746.954 729.966 838.303 696.484 895.752H598.452C600.027 893.03 601.482 890.255 602.776 887.414Z" fill="#DB3C1D"/>
<path d="M602.79 799.466C557.751 809.579 557.764 877.3 602.79 887.413C601.482 890.255 600.041 893.03 598.466 895.738H564.597V757.814C582.199 767.593 594.943 782.389 602.79 799.466Z" fill="#DB3C1D"/>
<path d="M602.79 799.466C606.153 798.705 609.756 798.265 613.613 798.198C673.078 799.199 673.091 887.653 613.613 888.667C609.756 888.6 606.14 888.16 602.79 887.4C615.361 860.023 615.361 826.856 602.79 799.466Z" fill="white"/>
<path d="M602.79 799.466C615.361 826.856 615.361 860.023 602.79 887.413C557.751 877.287 557.751 809.579 602.79 799.466Z" fill="white"/>
<path d="M948.478 38.0414C979.819 37.4981 988.517 2.91248 974.594 -16.5537H1016.33C1027.24 25.06 1004.63 76.4659 948.49 77.4463C892.352 76.4777 869.744 25.06 880.653 -16.5537H922.387C908.44 2.91248 917.138 37.4981 948.478 38.0414Z" fill="#DB3C1D"/>
<path d="M1380.41 401C1429.09 401.129 1470.67 412.013 1505.12 430.502C1460.82 455.953 1429.09 494.008 1409.82 537.578C1401.28 535.793 1392.12 534.796 1382.34 534.78C1231.62 539.523 1234.87 763.722 1385.65 764.108C1395.43 763.803 1404.55 762.549 1413.04 760.507C1433.54 803.514 1466.35 840.637 1511.38 864.785C1477.49 884.255 1436.24 896.345 1387.6 897.872C1060.9 897.052 1053.84 411.29 1380.41 401Z" fill="#DB3C1D"/>
<path d="M1413.08 760.491C1526.86 733.192 1524.36 561.566 1409.86 537.562C1429.11 493.992 1460.84 455.937 1505.16 430.487C1533.22 445.551 1556.53 465.648 1575.07 489.073L1579.62 804.206C1561.75 828.145 1539.03 848.917 1511.42 864.785C1466.39 840.621 1433.58 803.498 1413.08 760.491Z" fill="#DB3C1D"/>
</g>
<defs>
<clipPath id="clip0">
<rect width="1440" height="1021" fill="white"/>
</clipPath>
</defs>
</svg>
