<svg width="1440" height="1024" viewBox="0 0 1440 1024" fill="none" xmlns="http://www.w3.org/2000/svg">
<rect width="1440" height="1024" fill="white"/>
<path d="M1368.42 877.81C1369.09 825.06 1401.08 793.429 1439.25 783L1439.51 841.118C1429.35 848.625 1422.27 860.766 1422.05 877.556C1422.42 894.343 1429.61 906.421 1439.84 913.837L1440.09 971.955C1401.83 961.897 1369.56 930.553 1368.42 877.81Z" fill="#070707"/>
<path d="M100.368 287.985C36.5992 289.159 -17.6571 304.257 -62.4027 329.158C-3.83653 361.539 38.5147 410.67 64.6523 467.274C75.8024 464.763 87.7903 463.269 100.599 463.046C298.143 466.139 298.511 759.521 100.989 763.139C88.1731 762.942 76.202 761.489 65.0362 758.993C39.0619 815.682 -3.15053 864.926 -61.6419 897.448C-16.8509 922.221 37.437 937.186 101.198 938.18C529.17 930.36 528.401 294.703 100.368 287.985Z" fill="#DB3C1D"/>
<path d="M64.9823 758.973C-84.6341 725.608 -84.908 501.022 64.5984 467.254C38.4819 410.65 -3.86932 361.519 -62.4565 329.138C-98.9089 349.426 -129.021 376.199 -152.829 407.228L-152.292 819.603C-128.393 850.553 -98.1957 877.26 -61.6954 897.45C-3.20438 864.906 39.008 815.662 64.9823 758.973Z" fill="#DB3C1D"/>
</svg>
