<svg width="161" height="181" viewBox="0 0 161 181" fill="none" xmlns="http://www.w3.org/2000/svg">
<g filter="url(#filter0_i)">
<rect x="80.1061" y="79.9998" width="20" height="20" transform="rotate(179.695 80.1061 79.9998)" fill="#FFA903"/>
</g>
<g filter="url(#filter1_i)">
<rect x="100.106" y="99.9998" width="20" height="20" transform="rotate(179.695 100.106 99.9998)" fill="#FFA903"/>
</g>
<rect x="120.106" y="99.9998" width="20" height="20" transform="rotate(179.695 120.106 99.9998)" fill="#FFA903"/>
<rect x="120.106" y="79.9998" width="20" height="20" transform="rotate(179.695 120.106 79.9998)" fill="#FFA903"/>
<rect x="80.1061" y="59.9998" width="20" height="20" transform="rotate(179.695 80.1061 59.9998)" fill="#FFA903"/>
<rect x="100.106" y="79.9998" width="20" height="20" transform="rotate(179.695 100.106 79.9998)" fill="#FFA903"/>
<rect x="60.1061" y="39.9998" width="20" height="20" transform="rotate(179.695 60.1061 39.9998)" fill="#FFA903"/>
<rect x="60.1061" y="19.9998" width="20" height="20" transform="rotate(179.695 60.1061 19.9998)" fill="#FFA903"/>
<rect x="40.1061" y="19.9998" width="20" height="20" transform="rotate(179.695 40.1061 19.9998)" fill="#FFA903"/>
<rect x="20.1061" y="39.9998" width="20" height="20" transform="rotate(179.695 20.1061 39.9998)" fill="#FFA903"/>
<g filter="url(#filter2_i)">
<rect x="140.106" y="59.9998" width="20" height="20" transform="rotate(179.695 140.106 59.9998)" fill="#FFA903"/>
</g>
<rect x="140.106" y="39.9998" width="20" height="20" transform="rotate(179.695 140.106 39.9998)" fill="#FFA903"/>
<g filter="url(#filter3_i)">
<rect x="140.106" y="19.9998" width="20" height="20" transform="rotate(179.695 140.106 19.9998)" fill="#FFA903"/>
</g>
<rect x="160.106" y="19.9998" width="20" height="20" transform="rotate(179.695 160.106 19.9998)" fill="#FFA903"/>
<rect x="140.106" y="79.9998" width="20" height="20" transform="rotate(179.695 140.106 79.9998)" fill="#FFA903"/>
<g filter="url(#filter4_d)">
<rect x="140.106" y="99.9998" width="20" height="20" transform="rotate(179.695 140.106 99.9998)" fill="#FFA903"/>
</g>
<rect x="120.106" y="120" width="20" height="20" transform="rotate(179.695 120.106 120)" fill="#FFA903"/>
<rect x="120.106" y="140" width="20" height="20" transform="rotate(179.695 120.106 140)" fill="#FFA903"/>
<g filter="url(#filter5_i)">
<rect x="120.106" y="180" width="20" height="20" transform="rotate(179.695 120.106 180)" fill="#FFA903"/>
</g>
<rect x="140.106" y="180" width="20" height="20" transform="rotate(179.695 140.106 180)" fill="#FFA903"/>
<rect x="120.106" y="160" width="20" height="20" transform="rotate(179.695 120.106 160)" fill="#FFA903"/>
<defs>
<filter id="filter0_i" x="60" y="60" width="20.1061" height="24.1061" filterUnits="userSpaceOnUse" color-interpolation-filters="sRGB">
<feFlood flood-opacity="0" result="BackgroundImageFix"/>
<feBlend mode="normal" in="SourceGraphic" in2="BackgroundImageFix" result="shape"/>
<feColorMatrix in="SourceAlpha" type="matrix" values="0 0 0 0 0 0 0 0 0 0 0 0 0 0 0 0 0 0 127 0" result="hardAlpha"/>
<feOffset dy="4"/>
<feGaussianBlur stdDeviation="2"/>
<feComposite in2="hardAlpha" operator="arithmetic" k2="-1" k3="1"/>
<feColorMatrix type="matrix" values="0 0 0 0 0 0 0 0 0 0 0 0 0 0 0 0 0 0 0.25 0"/>
<feBlend mode="normal" in2="shape" result="effect1_innerShadow"/>
</filter>
<filter id="filter1_i" x="80" y="80" width="20.1061" height="24.1061" filterUnits="userSpaceOnUse" color-interpolation-filters="sRGB">
<feFlood flood-opacity="0" result="BackgroundImageFix"/>
<feBlend mode="normal" in="SourceGraphic" in2="BackgroundImageFix" result="shape"/>
<feColorMatrix in="SourceAlpha" type="matrix" values="0 0 0 0 0 0 0 0 0 0 0 0 0 0 0 0 0 0 127 0" result="hardAlpha"/>
<feOffset dy="4"/>
<feGaussianBlur stdDeviation="2"/>
<feComposite in2="hardAlpha" operator="arithmetic" k2="-1" k3="1"/>
<feColorMatrix type="matrix" values="0 0 0 0 0 0 0 0 0 0 0 0 0 0 0 0 0 0 0.25 0"/>
<feBlend mode="normal" in2="shape" result="effect1_innerShadow"/>
</filter>
<filter id="filter2_i" x="120" y="40" width="20.1061" height="24.1061" filterUnits="userSpaceOnUse" color-interpolation-filters="sRGB">
<feFlood flood-opacity="0" result="BackgroundImageFix"/>
<feBlend mode="normal" in="SourceGraphic" in2="BackgroundImageFix" result="shape"/>
<feColorMatrix in="SourceAlpha" type="matrix" values="0 0 0 0 0 0 0 0 0 0 0 0 0 0 0 0 0 0 127 0" result="hardAlpha"/>
<feOffset dy="4"/>
<feGaussianBlur stdDeviation="2"/>
<feComposite in2="hardAlpha" operator="arithmetic" k2="-1" k3="1"/>
<feColorMatrix type="matrix" values="0 0 0 0 0 0 0 0 0 0 0 0 0 0 0 0 0 0 0.25 0"/>
<feBlend mode="normal" in2="shape" result="effect1_innerShadow"/>
</filter>
<filter id="filter3_i" x="120" y="0" width="20.1061" height="24.1061" filterUnits="userSpaceOnUse" color-interpolation-filters="sRGB">
<feFlood flood-opacity="0" result="BackgroundImageFix"/>
<feBlend mode="normal" in="SourceGraphic" in2="BackgroundImageFix" result="shape"/>
<feColorMatrix in="SourceAlpha" type="matrix" values="0 0 0 0 0 0 0 0 0 0 0 0 0 0 0 0 0 0 127 0" result="hardAlpha"/>
<feOffset dy="4"/>
<feGaussianBlur stdDeviation="2"/>
<feComposite in2="hardAlpha" operator="arithmetic" k2="-1" k3="1"/>
<feColorMatrix type="matrix" values="0 0 0 0 0 0 0 0 0 0 0 0 0 0 0 0 0 0 0.25 0"/>
<feBlend mode="normal" in2="shape" result="effect1_innerShadow"/>
</filter>
<filter id="filter4_d" x="116" y="80" width="28.1061" height="28.1061" filterUnits="userSpaceOnUse" color-interpolation-filters="sRGB">
<feFlood flood-opacity="0" result="BackgroundImageFix"/>
<feColorMatrix in="SourceAlpha" type="matrix" values="0 0 0 0 0 0 0 0 0 0 0 0 0 0 0 0 0 0 127 0"/>
<feOffset dy="4"/>
<feGaussianBlur stdDeviation="2"/>
<feColorMatrix type="matrix" values="0 0 0 0 0 0 0 0 0 0 0 0 0 0 0 0 0 0 0.25 0"/>
<feBlend mode="normal" in2="BackgroundImageFix" result="effect1_dropShadow"/>
<feBlend mode="normal" in="SourceGraphic" in2="effect1_dropShadow" result="shape"/>
</filter>
<filter id="filter5_i" x="100" y="160" width="20.1061" height="24.1061" filterUnits="userSpaceOnUse" color-interpolation-filters="sRGB">
<feFlood flood-opacity="0" result="BackgroundImageFix"/>
<feBlend mode="normal" in="SourceGraphic" in2="BackgroundImageFix" result="shape"/>
<feColorMatrix in="SourceAlpha" type="matrix" values="0 0 0 0 0 0 0 0 0 0 0 0 0 0 0 0 0 0 127 0" result="hardAlpha"/>
<feOffset dy="4"/>
<feGaussianBlur stdDeviation="2"/>
<feComposite in2="hardAlpha" operator="arithmetic" k2="-1" k3="1"/>
<feColorMatrix type="matrix" values="0 0 0 0 0 0 0 0 0 0 0 0 0 0 0 0 0 0 0.25 0"/>
<feBlend mode="normal" in2="shape" result="effect1_innerShadow"/>
</filter>
</defs>
</svg>
